%TF.GenerationSoftware,KiCad,Pcbnew,(7.0.0)*%
%TF.CreationDate,2023-09-10T22:45:04+02:00*%
%TF.ProjectId,Wakizashi,57616b69-7a61-4736-9869-2e6b69636164,rev?*%
%TF.SameCoordinates,Original*%
%TF.FileFunction,Soldermask,Top*%
%TF.FilePolarity,Negative*%
%FSLAX46Y46*%
G04 Gerber Fmt 4.6, Leading zero omitted, Abs format (unit mm)*
G04 Created by KiCad (PCBNEW (7.0.0)) date 2023-09-10 22:45:04*
%MOMM*%
%LPD*%
G01*
G04 APERTURE LIST*
%ADD10C,1.750000*%
%ADD11C,3.987800*%
%ADD12R,1.600000X1.600000*%
%ADD13C,1.600000*%
%ADD14C,3.048000*%
%ADD15R,1.752600X1.752600*%
%ADD16C,1.752600*%
%ADD17R,1.700000X1.700000*%
%ADD18O,1.700000X1.700000*%
G04 APERTURE END LIST*
D10*
%TO.C,MX1*%
X42545000Y-26987500D03*
D11*
X47625000Y-26987500D03*
D10*
X52705000Y-26987500D03*
%TD*%
%TO.C,MX35*%
X223520000Y-65087500D03*
D11*
X228600000Y-65087500D03*
D10*
X233680000Y-65087500D03*
%TD*%
D12*
%TO.C,D37*%
X274637499Y-68987499D03*
D13*
X274637500Y-61187500D03*
%TD*%
D10*
%TO.C,MX63*%
X137795000Y-88900000D03*
D11*
X142875000Y-88900000D03*
D10*
X147955000Y-88900000D03*
%TD*%
%TO.C,MX20*%
X180657500Y-46037500D03*
D11*
X185737500Y-46037500D03*
D10*
X190817500Y-46037500D03*
%TD*%
%TO.C,MX23*%
X237807500Y-46037500D03*
D11*
X242887500Y-46037500D03*
D10*
X247967500Y-46037500D03*
%TD*%
%TO.C,MX17*%
X113982500Y-46037500D03*
D11*
X119062500Y-46037500D03*
D10*
X124142500Y-46037500D03*
%TD*%
%TO.C,MX38*%
X33020000Y-84137500D03*
D11*
X38100000Y-84137500D03*
D10*
X43180000Y-84137500D03*
%TD*%
D14*
%TO.C,S4*%
X190500000Y-95885000D03*
D11*
X190500000Y-80645000D03*
D14*
X152400000Y-95885000D03*
D11*
X152400000Y-80645000D03*
%TD*%
D10*
%TO.C,MX13*%
X37782500Y-46037500D03*
D11*
X42862500Y-46037500D03*
D10*
X47942500Y-46037500D03*
%TD*%
%TO.C,MX59*%
X187801250Y-88900000D03*
D11*
X192881250Y-88900000D03*
D10*
X197961250Y-88900000D03*
%TD*%
%TO.C,MX5*%
X118745000Y-26987500D03*
D11*
X123825000Y-26987500D03*
D10*
X128905000Y-26987500D03*
%TD*%
%TO.C,MX51*%
X228282500Y-46037500D03*
D11*
X233362500Y-46037500D03*
D10*
X238442500Y-46037500D03*
%TD*%
D12*
%TO.C,D1*%
X74612499Y-30887499D03*
D13*
X74612500Y-23087500D03*
%TD*%
D10*
%TO.C,MX60*%
X202088750Y-88900000D03*
D11*
X207168750Y-88900000D03*
D10*
X212248750Y-88900000D03*
%TD*%
%TO.C,MX68*%
X144938750Y-88900000D03*
D11*
X150018750Y-88900000D03*
D10*
X155098750Y-88900000D03*
%TD*%
%TO.C,MX43*%
X233045000Y-84137500D03*
D11*
X238125000Y-84137500D03*
D10*
X243205000Y-84137500D03*
%TD*%
%TO.C,MX52*%
X252095000Y-46037500D03*
D11*
X257175000Y-46037500D03*
D10*
X262255000Y-46037500D03*
%TD*%
D12*
%TO.C,D39*%
X74612499Y-88037499D03*
D13*
X74612500Y-80237500D03*
%TD*%
D10*
%TO.C,MX2*%
X61595000Y-26987500D03*
D11*
X66675000Y-26987500D03*
D10*
X71755000Y-26987500D03*
%TD*%
D14*
%TO.C,S9*%
X209550000Y-95885000D03*
D11*
X209550000Y-80645000D03*
D14*
X95250000Y-95885000D03*
D11*
X95250000Y-80645000D03*
%TD*%
D12*
%TO.C,D44*%
X274637499Y-88037499D03*
D13*
X274637500Y-80237500D03*
%TD*%
D10*
%TO.C,MX30*%
X128270000Y-65087500D03*
D11*
X133350000Y-65087500D03*
D10*
X138430000Y-65087500D03*
%TD*%
D12*
%TO.C,D10*%
X227012499Y-30887499D03*
D13*
X227012500Y-23087500D03*
%TD*%
D10*
%TO.C,MX16*%
X94932500Y-46037500D03*
D11*
X100012500Y-46037500D03*
D10*
X105092500Y-46037500D03*
%TD*%
%TO.C,MX29*%
X109220000Y-65087500D03*
D11*
X114300000Y-65087500D03*
D10*
X119380000Y-65087500D03*
%TD*%
D14*
%TO.C,S15*%
X130968750Y-58102500D03*
D11*
X130968750Y-73342500D03*
D14*
X154781250Y-58102500D03*
D11*
X154781250Y-73342500D03*
%TD*%
D14*
%TO.C,S3*%
X133350000Y-95885000D03*
D11*
X133350000Y-80645000D03*
D14*
X95250000Y-95885000D03*
D11*
X95250000Y-80645000D03*
%TD*%
D14*
%TO.C,S13*%
X235743750Y-20002500D03*
D11*
X235743750Y-35242500D03*
D14*
X259556250Y-20002500D03*
D11*
X259556250Y-35242500D03*
%TD*%
D14*
%TO.C,S5*%
X152400000Y-95885000D03*
D11*
X152400000Y-80645000D03*
D14*
X114300000Y-95885000D03*
D11*
X114300000Y-80645000D03*
%TD*%
D10*
%TO.C,MX33*%
X185420000Y-65087500D03*
D11*
X190500000Y-65087500D03*
D10*
X195580000Y-65087500D03*
%TD*%
D12*
%TO.C,D2*%
X77787499Y-30887499D03*
D13*
X77787500Y-23087500D03*
%TD*%
D12*
%TO.C,D3*%
X93662499Y-30887499D03*
D13*
X93662500Y-23087500D03*
%TD*%
D12*
%TO.C,D27*%
X84137499Y-68987499D03*
D13*
X84137500Y-61187500D03*
%TD*%
D10*
%TO.C,MX10*%
X213995000Y-26987500D03*
D11*
X219075000Y-26987500D03*
D10*
X224155000Y-26987500D03*
%TD*%
%TO.C,MX26*%
X52070000Y-65087500D03*
D11*
X57150000Y-65087500D03*
D10*
X62230000Y-65087500D03*
%TD*%
D12*
%TO.C,D7*%
X169862499Y-30887499D03*
D13*
X169862500Y-23087500D03*
%TD*%
D10*
%TO.C,MX8*%
X175895000Y-26987500D03*
D11*
X180975000Y-26987500D03*
D10*
X186055000Y-26987500D03*
%TD*%
%TO.C,MX62*%
X128270000Y-88900000D03*
D11*
X133350000Y-88900000D03*
D10*
X138430000Y-88900000D03*
%TD*%
D12*
%TO.C,D16*%
X107949999Y-49937499D03*
D13*
X107950000Y-42137500D03*
%TD*%
D14*
%TO.C,S11*%
X157162500Y-95885000D03*
D11*
X157162500Y-80645000D03*
D14*
X119062500Y-95885000D03*
D11*
X119062500Y-80645000D03*
%TD*%
D12*
%TO.C,D17*%
X126999999Y-49937499D03*
D13*
X127000000Y-42137500D03*
%TD*%
D12*
%TO.C,D19*%
X167412499Y-50799999D03*
D13*
X159612500Y-50800000D03*
%TD*%
D12*
%TO.C,D30*%
X143599999Y-69849999D03*
D13*
X135800000Y-69850000D03*
%TD*%
D12*
%TO.C,D40*%
X111056249Y-77787499D03*
D13*
X103256250Y-77787500D03*
%TD*%
D12*
%TO.C,D38*%
X46037499Y-88037499D03*
D13*
X46037500Y-80237500D03*
%TD*%
D10*
%TO.C,MX40*%
X90170000Y-88900000D03*
D11*
X95250000Y-88900000D03*
D10*
X100330000Y-88900000D03*
%TD*%
D14*
%TO.C,S6*%
X209550000Y-95885000D03*
D11*
X209550000Y-80645000D03*
D14*
X171450000Y-95885000D03*
D11*
X171450000Y-80645000D03*
%TD*%
D12*
%TO.C,D14*%
X69849999Y-49937499D03*
D13*
X69850000Y-42137500D03*
%TD*%
D12*
%TO.C,D32*%
X179387499Y-68987499D03*
D13*
X179387500Y-61187500D03*
%TD*%
D12*
%TO.C,D24*%
X267612499Y-50799999D03*
D13*
X259812500Y-50800000D03*
%TD*%
D12*
%TO.C,D4*%
X112712499Y-30887499D03*
D13*
X112712500Y-23087500D03*
%TD*%
D10*
%TO.C,MX27*%
X71120000Y-65087500D03*
D11*
X76200000Y-65087500D03*
D10*
X81280000Y-65087500D03*
%TD*%
D12*
%TO.C,D20*%
X186462499Y-50799999D03*
D13*
X178662500Y-50800000D03*
%TD*%
D10*
%TO.C,MX22*%
X218757500Y-46037500D03*
D11*
X223837500Y-46037500D03*
D10*
X228917500Y-46037500D03*
%TD*%
D12*
%TO.C,D35*%
X236537499Y-68987499D03*
D13*
X236537500Y-61187500D03*
%TD*%
D12*
%TO.C,D23*%
X243612499Y-50799999D03*
D13*
X235812500Y-50800000D03*
%TD*%
D10*
%TO.C,MX56*%
X106838750Y-88900000D03*
D11*
X111918750Y-88900000D03*
D10*
X116998750Y-88900000D03*
%TD*%
D12*
%TO.C,D42*%
X201543749Y-77787499D03*
D13*
X193743750Y-77787500D03*
%TD*%
D12*
%TO.C,D33*%
X198437499Y-68987499D03*
D13*
X198437500Y-61187500D03*
%TD*%
D12*
%TO.C,D26*%
X65087499Y-68987499D03*
D13*
X65087500Y-61187500D03*
%TD*%
D10*
%TO.C,MX3*%
X80645000Y-26987500D03*
D11*
X85725000Y-26987500D03*
D10*
X90805000Y-26987500D03*
%TD*%
%TO.C,MX58*%
X204470000Y-88900000D03*
D11*
X209550000Y-88900000D03*
D10*
X214630000Y-88900000D03*
%TD*%
%TO.C,MX7*%
X156845000Y-26987500D03*
D11*
X161925000Y-26987500D03*
D10*
X167005000Y-26987500D03*
%TD*%
%TO.C,MX25*%
X33020000Y-65087500D03*
D11*
X38100000Y-65087500D03*
D10*
X43180000Y-65087500D03*
%TD*%
%TO.C,MX64*%
X166370000Y-88900000D03*
D11*
X171450000Y-88900000D03*
D10*
X176530000Y-88900000D03*
%TD*%
%TO.C,MX31*%
X147320000Y-65087500D03*
D11*
X152400000Y-65087500D03*
D10*
X157480000Y-65087500D03*
%TD*%
%TO.C,MX45*%
X242570000Y-26987500D03*
D11*
X247650000Y-26987500D03*
D10*
X252730000Y-26987500D03*
%TD*%
%TO.C,MX53*%
X137795000Y-65087500D03*
D11*
X142875000Y-65087500D03*
D10*
X147955000Y-65087500D03*
%TD*%
%TO.C,MX36*%
X242570000Y-65087500D03*
D11*
X247650000Y-65087500D03*
D10*
X252730000Y-65087500D03*
%TD*%
D14*
%TO.C,S2*%
X185737500Y-95885000D03*
D11*
X185737500Y-80645000D03*
D14*
X147637500Y-95885000D03*
D11*
X147637500Y-80645000D03*
%TD*%
D10*
%TO.C,MX37*%
X261620000Y-65087500D03*
D11*
X266700000Y-65087500D03*
D10*
X271780000Y-65087500D03*
%TD*%
D14*
%TO.C,S7*%
X190500000Y-95885000D03*
D11*
X190500000Y-80645000D03*
D14*
X95250000Y-95885000D03*
D11*
X95250000Y-80645000D03*
%TD*%
D10*
%TO.C,MX28*%
X90170000Y-65087500D03*
D11*
X95250000Y-65087500D03*
D10*
X100330000Y-65087500D03*
%TD*%
D12*
%TO.C,D12*%
X265112499Y-30887499D03*
D13*
X265112500Y-23087500D03*
%TD*%
D10*
%TO.C,MX57*%
X92551250Y-88900000D03*
D11*
X97631250Y-88900000D03*
D10*
X102711250Y-88900000D03*
%TD*%
D12*
%TO.C,D22*%
X224562499Y-50799999D03*
D13*
X216762500Y-50800000D03*
%TD*%
D12*
%TO.C,D18*%
X150018749Y-49937499D03*
D13*
X150018750Y-42137500D03*
%TD*%
D12*
%TO.C,D8*%
X188912499Y-30887499D03*
D13*
X188912500Y-23087500D03*
%TD*%
D12*
%TO.C,D43*%
X246062499Y-88037499D03*
D13*
X246062500Y-80237500D03*
%TD*%
D10*
%TO.C,MX42*%
X185420000Y-88900000D03*
D11*
X190500000Y-88900000D03*
D10*
X195580000Y-88900000D03*
%TD*%
D12*
%TO.C,D31*%
X160337499Y-68987499D03*
D13*
X160337500Y-61187500D03*
%TD*%
D10*
%TO.C,MX21*%
X199707500Y-46037500D03*
D11*
X204787500Y-46037500D03*
D10*
X209867500Y-46037500D03*
%TD*%
%TO.C,MX14*%
X56832500Y-46037500D03*
D11*
X61912500Y-46037500D03*
D10*
X66992500Y-46037500D03*
%TD*%
D14*
%TO.C,S12*%
X123825000Y-95885000D03*
D11*
X123825000Y-80645000D03*
D14*
X100012500Y-95885000D03*
D11*
X100012500Y-80645000D03*
%TD*%
D10*
%TO.C,MX39*%
X61595000Y-84137500D03*
D11*
X66675000Y-84137500D03*
D10*
X71755000Y-84137500D03*
%TD*%
D14*
%TO.C,S14*%
X245268750Y-58102500D03*
D11*
X245268750Y-73342500D03*
D14*
X269081250Y-58102500D03*
D11*
X269081250Y-73342500D03*
%TD*%
D10*
%TO.C,MX41*%
X147320000Y-88900000D03*
D11*
X152400000Y-88900000D03*
D10*
X157480000Y-88900000D03*
%TD*%
%TO.C,MX49*%
X190182500Y-46037500D03*
D11*
X195262500Y-46037500D03*
D10*
X200342500Y-46037500D03*
%TD*%
D12*
%TO.C,D28*%
X103187499Y-68987499D03*
D13*
X103187500Y-61187500D03*
%TD*%
D10*
%TO.C,MX12*%
X252095000Y-26987500D03*
D11*
X257175000Y-26987500D03*
D10*
X262255000Y-26987500D03*
%TD*%
D12*
%TO.C,D41*%
X144206249Y-77787499D03*
D13*
X136406250Y-77787500D03*
%TD*%
D10*
%TO.C,MX47*%
X152082500Y-46037500D03*
D11*
X157162500Y-46037500D03*
D10*
X162242500Y-46037500D03*
%TD*%
%TO.C,MX44*%
X261620000Y-84137500D03*
D11*
X266700000Y-84137500D03*
D10*
X271780000Y-84137500D03*
%TD*%
D14*
%TO.C,S1*%
X204787500Y-95885000D03*
D11*
X204787500Y-80645000D03*
D14*
X180975000Y-95885000D03*
D11*
X180975000Y-80645000D03*
%TD*%
D14*
%TO.C,S8*%
X209550000Y-95885000D03*
D11*
X209550000Y-80645000D03*
D14*
X114300000Y-95885000D03*
D11*
X114300000Y-80645000D03*
%TD*%
D10*
%TO.C,MX65*%
X142557500Y-88900000D03*
D11*
X147637500Y-88900000D03*
D10*
X152717500Y-88900000D03*
%TD*%
D12*
%TO.C,D34*%
X217487499Y-68987499D03*
D13*
X217487500Y-61187500D03*
%TD*%
D12*
%TO.C,D13*%
X50799999Y-49937499D03*
D13*
X50800000Y-42137500D03*
%TD*%
D12*
%TO.C,D29*%
X122237499Y-68987499D03*
D13*
X122237500Y-61187500D03*
%TD*%
D10*
%TO.C,MX50*%
X209232500Y-46037500D03*
D11*
X214312500Y-46037500D03*
D10*
X219392500Y-46037500D03*
%TD*%
%TO.C,MX18*%
X133032500Y-46037500D03*
D11*
X138112500Y-46037500D03*
D10*
X143192500Y-46037500D03*
%TD*%
%TO.C,MX46*%
X137795000Y-46037500D03*
D11*
X142875000Y-46037500D03*
D10*
X147955000Y-46037500D03*
%TD*%
%TO.C,MX48*%
X171132500Y-46037500D03*
D11*
X176212500Y-46037500D03*
D10*
X181292500Y-46037500D03*
%TD*%
%TO.C,MX61*%
X156845000Y-88900000D03*
D11*
X161925000Y-88900000D03*
D10*
X167005000Y-88900000D03*
%TD*%
%TO.C,MX19*%
X161607500Y-46037500D03*
D11*
X166687500Y-46037500D03*
D10*
X171767500Y-46037500D03*
%TD*%
%TO.C,MX67*%
X161607500Y-88900000D03*
D11*
X166687500Y-88900000D03*
D10*
X171767500Y-88900000D03*
%TD*%
D12*
%TO.C,D21*%
X205512499Y-50799999D03*
D13*
X197712500Y-50800000D03*
%TD*%
D12*
%TO.C,D15*%
X88899999Y-49937499D03*
D13*
X88900000Y-42137500D03*
%TD*%
D10*
%TO.C,MX4*%
X99695000Y-26987500D03*
D11*
X104775000Y-26987500D03*
D10*
X109855000Y-26987500D03*
%TD*%
D12*
%TO.C,D25*%
X46037499Y-68987499D03*
D13*
X46037500Y-61187500D03*
%TD*%
D12*
%TO.C,D36*%
X257899999Y-69849999D03*
D13*
X250100000Y-69850000D03*
%TD*%
D10*
%TO.C,MX15*%
X75882500Y-46037500D03*
D11*
X80962500Y-46037500D03*
D10*
X86042500Y-46037500D03*
%TD*%
%TO.C,MX66*%
X133032500Y-88900000D03*
D11*
X138112500Y-88900000D03*
D10*
X143192500Y-88900000D03*
%TD*%
%TO.C,MX24*%
X256857500Y-46037500D03*
D11*
X261937500Y-46037500D03*
D10*
X267017500Y-46037500D03*
%TD*%
%TO.C,MX9*%
X194945000Y-26987500D03*
D11*
X200025000Y-26987500D03*
D10*
X205105000Y-26987500D03*
%TD*%
%TO.C,MX54*%
X252095000Y-65087500D03*
D11*
X257175000Y-65087500D03*
D10*
X262255000Y-65087500D03*
%TD*%
%TO.C,MX55*%
X109220000Y-88900000D03*
D11*
X114300000Y-88900000D03*
D10*
X119380000Y-88900000D03*
%TD*%
D12*
%TO.C,D6*%
X150812499Y-30887499D03*
D13*
X150812500Y-23087500D03*
%TD*%
D12*
%TO.C,D5*%
X131762499Y-30887499D03*
D13*
X131762500Y-23087500D03*
%TD*%
D10*
%TO.C,MX6*%
X137795000Y-26987500D03*
D11*
X142875000Y-26987500D03*
D10*
X147955000Y-26987500D03*
%TD*%
%TO.C,MX34*%
X204470000Y-65087500D03*
D11*
X209550000Y-65087500D03*
D10*
X214630000Y-65087500D03*
%TD*%
D12*
%TO.C,D11*%
X243749999Y-31749999D03*
D13*
X251550000Y-31750000D03*
%TD*%
D10*
%TO.C,MX32*%
X166370000Y-65087500D03*
D11*
X171450000Y-65087500D03*
D10*
X176530000Y-65087500D03*
%TD*%
%TO.C,MX11*%
X233045000Y-26987500D03*
D11*
X238125000Y-26987500D03*
D10*
X243205000Y-26987500D03*
%TD*%
D12*
%TO.C,D9*%
X207962499Y-30887499D03*
D13*
X207962500Y-23087500D03*
%TD*%
D15*
%TO.C,U2*%
X42386249Y-19367499D03*
D16*
X44926250Y-19367500D03*
X47466250Y-19367500D03*
X50006250Y-19367500D03*
X52546250Y-19367500D03*
X55086250Y-19367500D03*
X57626250Y-19367500D03*
X60166250Y-19367500D03*
X62706250Y-19367500D03*
X65246250Y-19367500D03*
X67786250Y-19367500D03*
X70326250Y-19367500D03*
X70326250Y-34607500D03*
X67786250Y-34607500D03*
X65246250Y-34607500D03*
X62706250Y-34607500D03*
X60166250Y-34607500D03*
X57626250Y-34607500D03*
X55086250Y-34607500D03*
X52546250Y-34607500D03*
X50006250Y-34607500D03*
X47466250Y-34607500D03*
X44926250Y-34607500D03*
X42386250Y-34607500D03*
%TD*%
D17*
%TO.C,J1*%
X49212499Y-53816249D03*
D18*
X49212499Y-56356249D03*
X49212499Y-58896249D03*
%TD*%
M02*
