M48
; DRILL file {KiCad (7.0.0)} date Sun Sep 10 22:45:06 2023
; FORMAT={-:-/ absolute / inch / decimal}
; #@! TF.CreationDate,2023-09-10T22:45:06+02:00
; #@! TF.GenerationSoftware,Kicad,Pcbnew,(7.0.0)
; #@! TF.FileFunction,Plated,1,2,PTH
FMAT,2
INCH
; #@! TA.AperFunction,Plated,PTH,ComponentDrill
T1C0.0394
; #@! TA.AperFunction,Plated,PTH,ComponentDrill
T2C0.0430
; #@! TA.AperFunction,Plated,PTH,ComponentDrill
T3C0.0600
%
G90
G05
T1
X1.8125Y-2.409
X1.8125Y-2.716
X1.8125Y-3.159
X1.8125Y-3.466
X1.9375Y-2.1187
X1.9375Y-2.2188
X1.9375Y-2.3188
X2.0Y-1.659
X2.0Y-1.966
X2.5625Y-2.409
X2.5625Y-2.716
X2.75Y-1.659
X2.75Y-1.966
X2.9375Y-0.909
X2.9375Y-1.216
X2.9375Y-3.159
X2.9375Y-3.466
X3.0625Y-0.909
X3.0625Y-1.216
X3.3125Y-2.409
X3.3125Y-2.716
X3.5Y-1.659
X3.5Y-1.966
X3.6875Y-0.909
X3.6875Y-1.216
X4.0625Y-2.409
X4.0625Y-2.716
X4.0652Y-3.0625
X4.25Y-1.659
X4.25Y-1.966
X4.3723Y-3.0625
X4.4375Y-0.909
X4.4375Y-1.216
X4.8125Y-2.409
X4.8125Y-2.716
X5.0Y-1.659
X5.0Y-1.966
X5.1875Y-0.909
X5.1875Y-1.216
X5.3465Y-2.75
X5.3703Y-3.0625
X5.6535Y-2.75
X5.6774Y-3.0625
X5.9062Y-1.659
X5.9062Y-1.966
X5.9375Y-0.909
X5.9375Y-1.216
X6.284Y-2.0
X6.3125Y-2.409
X6.3125Y-2.716
X6.591Y-2.0
X6.6875Y-0.909
X6.6875Y-1.216
X7.034Y-2.0
X7.0625Y-2.409
X7.0625Y-2.716
X7.341Y-2.0
X7.4375Y-0.909
X7.4375Y-1.216
X7.6277Y-3.0625
X7.784Y-2.0
X7.8125Y-2.409
X7.8125Y-2.716
X7.9348Y-3.0625
X8.091Y-2.0
X8.1875Y-0.909
X8.1875Y-1.216
X8.534Y-2.0
X8.5625Y-2.409
X8.5625Y-2.716
X8.841Y-2.0
X8.9375Y-0.909
X8.9375Y-1.216
X9.284Y-2.0
X9.3125Y-2.409
X9.3125Y-2.716
X9.591Y-2.0
X9.5965Y-1.25
X9.6875Y-3.159
X9.6875Y-3.466
X9.8465Y-2.75
X9.9035Y-1.25
X10.1535Y-2.75
X10.2288Y-2.0
X10.4375Y-0.909
X10.4375Y-1.216
X10.5359Y-2.0
X10.8125Y-2.409
X10.8125Y-2.716
X10.8125Y-3.159
X10.8125Y-3.466
T2
X1.6687Y-0.7625
X1.6687Y-1.3625
X1.7688Y-0.7625
X1.7688Y-1.3625
X1.8687Y-0.7625
X1.8687Y-1.3625
X1.9688Y-0.7625
X1.9688Y-1.3625
X2.0688Y-0.7625
X2.0688Y-1.3625
X2.1687Y-0.7625
X2.1687Y-1.3625
X2.2687Y-0.7625
X2.2687Y-1.3625
X2.3687Y-0.7625
X2.3687Y-1.3625
X2.4688Y-0.7625
X2.4688Y-1.3625
X2.5688Y-0.7625
X2.5688Y-1.3625
X2.6687Y-0.7625
X2.6687Y-1.3625
X2.7687Y-0.7625
X2.7687Y-1.3625
T3
X1.35Y-2.4625
X1.35Y-3.2125
X1.5375Y-1.7125
X1.6Y-2.3625
X1.6Y-3.1125
X1.725Y-0.9625
X1.7875Y-1.6125
X1.975Y-0.8625
X2.1Y-2.4625
X2.2875Y-1.7125
X2.35Y-2.3625
X2.475Y-0.9625
X2.475Y-3.2125
X2.5375Y-1.6125
X2.725Y-0.8625
X2.725Y-3.1125
X2.85Y-2.4625
X3.0375Y-1.7125
X3.1Y-2.3625
X3.225Y-0.9625
X3.2875Y-1.6125
X3.475Y-0.8625
X3.6Y-2.4625
X3.6Y-3.4
X3.6938Y-3.4
X3.7875Y-1.7125
X3.85Y-2.3625
X3.85Y-3.3
X3.9438Y-3.3
X3.975Y-0.9625
X4.0375Y-1.6125
X4.225Y-0.8625
X4.2562Y-3.4
X4.35Y-2.4625
X4.35Y-3.4
X4.5062Y-3.3
X4.5375Y-1.7125
X4.6Y-2.3625
X4.6Y-3.3
X4.725Y-0.9625
X4.7875Y-1.6125
X4.975Y-0.8625
X5.1Y-2.4625
X5.1Y-3.4
X5.2875Y-1.7125
X5.2875Y-3.4
X5.35Y-2.3625
X5.35Y-3.3
X5.475Y-0.9625
X5.475Y-1.7125
X5.475Y-2.4625
X5.475Y-3.4
X5.5375Y-1.6125
X5.5375Y-3.3
X5.6625Y-3.4
X5.725Y-0.8625
X5.725Y-1.6125
X5.725Y-2.3625
X5.725Y-3.3
X5.7562Y-3.4
X5.85Y-2.4625
X5.85Y-3.4
X5.9125Y-3.3
X6.0062Y-3.3
X6.0375Y-1.7125
X6.1Y-2.3625
X6.1Y-3.3
X6.225Y-0.9625
X6.225Y-3.4
X6.2875Y-1.6125
X6.4125Y-1.7125
X6.4125Y-3.4
X6.475Y-0.8625
X6.475Y-3.3
X6.6Y-2.4625
X6.6Y-3.4
X6.6625Y-1.6125
X6.6625Y-3.3
X6.7875Y-1.7125
X6.85Y-2.3625
X6.85Y-3.3
X6.975Y-0.9625
X7.0375Y-1.6125
X7.1625Y-1.7125
X7.225Y-0.8625
X7.35Y-2.4625
X7.35Y-3.4
X7.4125Y-1.6125
X7.4437Y-3.4
X7.5375Y-1.7125
X7.6Y-2.3625
X7.6Y-3.3
X7.6937Y-3.3
X7.725Y-0.9625
X7.7875Y-1.6125
X7.9125Y-1.7125
X7.975Y-0.8625
X8.0062Y-3.4
X8.1Y-2.4625
X8.1Y-3.4
X8.1625Y-1.6125
X8.2562Y-3.3
X8.2875Y-1.7125
X8.35Y-2.3625
X8.35Y-3.3
X8.475Y-0.9625
X8.5375Y-1.6125
X8.6625Y-1.7125
X8.725Y-0.8625
X8.85Y-2.4625
X8.9125Y-1.6125
X9.0375Y-1.7125
X9.1Y-2.3625
X9.225Y-0.9625
X9.225Y-3.2125
X9.2875Y-1.6125
X9.4125Y-1.7125
X9.475Y-0.8625
X9.475Y-3.1125
X9.6Y-0.9625
X9.6Y-2.4625
X9.6625Y-1.6125
X9.85Y-0.8625
X9.85Y-2.3625
X9.975Y-0.9625
X9.975Y-1.7125
X9.975Y-2.4625
X10.1625Y-1.7125
X10.225Y-0.8625
X10.225Y-1.6125
X10.225Y-2.3625
X10.35Y-2.4625
X10.35Y-3.2125
X10.4125Y-1.6125
X10.6Y-2.3625
X10.6Y-3.1125
T0
M30
