%TF.GenerationSoftware,KiCad,Pcbnew,(7.0.0)*%
%TF.CreationDate,2023-09-12T13:05:00+02:00*%
%TF.ProjectId,Wakizashi,57616b69-7a61-4736-9869-2e6b69636164,rev?*%
%TF.SameCoordinates,Original*%
%TF.FileFunction,Copper,L2,Bot*%
%TF.FilePolarity,Positive*%
%FSLAX46Y46*%
G04 Gerber Fmt 4.6, Leading zero omitted, Abs format (unit mm)*
G04 Created by KiCad (PCBNEW (7.0.0)) date 2023-09-12 13:05:00*
%MOMM*%
%LPD*%
G01*
G04 APERTURE LIST*
%TA.AperFunction,ComponentPad*%
%ADD10C,2.300000*%
%TD*%
%TA.AperFunction,SMDPad,CuDef*%
%ADD11R,1.200000X1.600000*%
%TD*%
%TA.AperFunction,SMDPad,CuDef*%
%ADD12R,0.500000X2.900000*%
%TD*%
%TA.AperFunction,ComponentPad*%
%ADD13R,1.600000X1.600000*%
%TD*%
%TA.AperFunction,ComponentPad*%
%ADD14C,1.600000*%
%TD*%
%TA.AperFunction,SMDPad,CuDef*%
%ADD15R,1.600000X1.200000*%
%TD*%
%TA.AperFunction,SMDPad,CuDef*%
%ADD16R,2.900000X0.500000*%
%TD*%
%TA.AperFunction,ComponentPad*%
%ADD17R,1.752600X1.752600*%
%TD*%
%TA.AperFunction,ComponentPad*%
%ADD18C,1.752600*%
%TD*%
%TA.AperFunction,ComponentPad*%
%ADD19R,1.700000X1.700000*%
%TD*%
%TA.AperFunction,ComponentPad*%
%ADD20O,1.700000X1.700000*%
%TD*%
%TA.AperFunction,Conductor*%
%ADD21C,0.250000*%
%TD*%
G04 APERTURE END LIST*
D10*
%TO.P,MX1,1,1*%
%TO.N,COL0*%
X43815000Y-24447500D03*
%TO.P,MX1,2,2*%
%TO.N,Net-(D1-A)*%
X50165000Y-21907500D03*
%TD*%
%TO.P,MX35,1,1*%
%TO.N,COL10*%
X224790000Y-62547500D03*
%TO.P,MX35,2,2*%
%TO.N,Net-(D35-A)*%
X231140000Y-60007500D03*
%TD*%
D11*
%TO.P,D37,1,K*%
%TO.N,ROW3*%
X274637499Y-66487499D03*
D12*
X274637499Y-67587499D03*
D13*
X274637499Y-68987499D03*
D14*
%TO.P,D37,2,A*%
%TO.N,Net-(D37-A)*%
X274637500Y-61187500D03*
D12*
X274637499Y-62587499D03*
D11*
X274637499Y-63687499D03*
%TD*%
D10*
%TO.P,MX63,1,1*%
%TO.N,COL5*%
X139065000Y-86360000D03*
%TO.P,MX63,2,2*%
%TO.N,Net-(D41-A)*%
X145415000Y-83820000D03*
%TD*%
%TO.P,MX20,1,1*%
%TO.N,COL7*%
X181927500Y-43497500D03*
%TO.P,MX20,2,2*%
%TO.N,Net-(D20-A)*%
X188277500Y-40957500D03*
%TD*%
%TO.P,MX23,1,1*%
%TO.N,COL10*%
X239077500Y-43497500D03*
%TO.P,MX23,2,2*%
%TO.N,Net-(D23-A)*%
X245427500Y-40957500D03*
%TD*%
%TO.P,MX17,1,1*%
%TO.N,COL4*%
X115252500Y-43497500D03*
%TO.P,MX17,2,2*%
%TO.N,Net-(D17-A)*%
X121602500Y-40957500D03*
%TD*%
%TO.P,MX38,1,1*%
%TO.N,COL0*%
X34290000Y-81597500D03*
%TO.P,MX38,2,2*%
%TO.N,Net-(D38-A)*%
X40640000Y-79057500D03*
%TD*%
%TO.P,MX13,1,1*%
%TO.N,COL0*%
X39052500Y-43497500D03*
%TO.P,MX13,2,2*%
%TO.N,Net-(D13-A)*%
X45402500Y-40957500D03*
%TD*%
%TO.P,MX59,1,1*%
%TO.N,COL8*%
X189071250Y-86360000D03*
%TO.P,MX59,2,2*%
%TO.N,Net-(D42-A)*%
X195421250Y-83820000D03*
%TD*%
%TO.P,MX5,1,1*%
%TO.N,COL4*%
X120015000Y-24447500D03*
%TO.P,MX5,2,2*%
%TO.N,Net-(D5-A)*%
X126365000Y-21907500D03*
%TD*%
%TO.P,MX51,1,1*%
%TO.N,COL10*%
X229552500Y-43497500D03*
%TO.P,MX51,2,2*%
%TO.N,Net-(D23-A)*%
X235902500Y-40957500D03*
%TD*%
D11*
%TO.P,D1,1,K*%
%TO.N,ROW0*%
X74612499Y-28387499D03*
D12*
X74612499Y-29487499D03*
D13*
X74612499Y-30887499D03*
D14*
%TO.P,D1,2,A*%
%TO.N,Net-(D1-A)*%
X74612500Y-23087500D03*
D12*
X74612499Y-24487499D03*
D11*
X74612499Y-25587499D03*
%TD*%
D10*
%TO.P,MX60,1,1*%
%TO.N,COL8*%
X203358750Y-86360000D03*
%TO.P,MX60,2,2*%
%TO.N,Net-(D42-A)*%
X209708750Y-83820000D03*
%TD*%
%TO.P,MX68,1,1*%
%TO.N,COL5*%
X146208750Y-86360000D03*
%TO.P,MX68,2,2*%
%TO.N,Net-(D41-A)*%
X152558750Y-83820000D03*
%TD*%
%TO.P,MX43,1,1*%
%TO.N,COL9*%
X234315000Y-81597500D03*
%TO.P,MX43,2,2*%
%TO.N,Net-(D43-A)*%
X240665000Y-79057500D03*
%TD*%
%TO.P,MX52,1,1*%
%TO.N,COL11*%
X253365000Y-43497500D03*
%TO.P,MX52,2,2*%
%TO.N,Net-(D24-A)*%
X259715000Y-40957500D03*
%TD*%
D11*
%TO.P,D39,1,K*%
%TO.N,ROW3*%
X74612499Y-85537499D03*
D12*
X74612499Y-86637499D03*
D13*
X74612499Y-88037499D03*
D14*
%TO.P,D39,2,A*%
%TO.N,Net-(D39-A)*%
X74612500Y-80237500D03*
D12*
X74612499Y-81637499D03*
D11*
X74612499Y-82737499D03*
%TD*%
D10*
%TO.P,MX2,1,1*%
%TO.N,COL1*%
X62865000Y-24447500D03*
%TO.P,MX2,2,2*%
%TO.N,Net-(D2-A)*%
X69215000Y-21907500D03*
%TD*%
D11*
%TO.P,D44,1,K*%
%TO.N,ROW3*%
X274637499Y-85537499D03*
D12*
X274637499Y-86637499D03*
D13*
X274637499Y-88037499D03*
D14*
%TO.P,D44,2,A*%
%TO.N,Net-(D44-A)*%
X274637500Y-80237500D03*
D12*
X274637499Y-81637499D03*
D11*
X274637499Y-82737499D03*
%TD*%
D10*
%TO.P,MX30,1,1*%
%TO.N,COL5*%
X129540000Y-62547500D03*
%TO.P,MX30,2,2*%
%TO.N,Net-(D30-A)*%
X135890000Y-60007500D03*
%TD*%
D11*
%TO.P,D10,1,K*%
%TO.N,ROW0*%
X227012499Y-28387499D03*
D12*
X227012499Y-29487499D03*
D13*
X227012499Y-30887499D03*
D14*
%TO.P,D10,2,A*%
%TO.N,Net-(D10-A)*%
X227012500Y-23087500D03*
D12*
X227012499Y-24487499D03*
D11*
X227012499Y-25587499D03*
%TD*%
D10*
%TO.P,MX16,1,1*%
%TO.N,COL3*%
X96202500Y-43497500D03*
%TO.P,MX16,2,2*%
%TO.N,Net-(D16-A)*%
X102552500Y-40957500D03*
%TD*%
%TO.P,MX29,1,1*%
%TO.N,COL4*%
X110490000Y-62547500D03*
%TO.P,MX29,2,2*%
%TO.N,Net-(D29-A)*%
X116840000Y-60007500D03*
%TD*%
%TO.P,MX33,1,1*%
%TO.N,COL8*%
X186690000Y-62547500D03*
%TO.P,MX33,2,2*%
%TO.N,Net-(D33-A)*%
X193040000Y-60007500D03*
%TD*%
D11*
%TO.P,D2,1,K*%
%TO.N,ROW0*%
X77787499Y-28387499D03*
D12*
X77787499Y-29487499D03*
D13*
X77787499Y-30887499D03*
D14*
%TO.P,D2,2,A*%
%TO.N,Net-(D2-A)*%
X77787500Y-23087500D03*
D12*
X77787499Y-24487499D03*
D11*
X77787499Y-25587499D03*
%TD*%
%TO.P,D3,1,K*%
%TO.N,ROW0*%
X93662499Y-28387499D03*
D12*
X93662499Y-29487499D03*
D13*
X93662499Y-30887499D03*
D14*
%TO.P,D3,2,A*%
%TO.N,Net-(D3-A)*%
X93662500Y-23087500D03*
D12*
X93662499Y-24487499D03*
D11*
X93662499Y-25587499D03*
%TD*%
%TO.P,D27,1,K*%
%TO.N,ROW2*%
X84137499Y-66487499D03*
D12*
X84137499Y-67587499D03*
D13*
X84137499Y-68987499D03*
D14*
%TO.P,D27,2,A*%
%TO.N,Net-(D27-A)*%
X84137500Y-61187500D03*
D12*
X84137499Y-62587499D03*
D11*
X84137499Y-63687499D03*
%TD*%
D10*
%TO.P,MX10,1,1*%
%TO.N,COL9*%
X215265000Y-24447500D03*
%TO.P,MX10,2,2*%
%TO.N,Net-(D10-A)*%
X221615000Y-21907500D03*
%TD*%
%TO.P,MX26,1,1*%
%TO.N,COL1*%
X53340000Y-62547500D03*
%TO.P,MX26,2,2*%
%TO.N,Net-(D26-A)*%
X59690000Y-60007500D03*
%TD*%
D11*
%TO.P,D7,1,K*%
%TO.N,ROW0*%
X169862499Y-28387499D03*
D12*
X169862499Y-29487499D03*
D13*
X169862499Y-30887499D03*
D14*
%TO.P,D7,2,A*%
%TO.N,Net-(D7-A)*%
X169862500Y-23087500D03*
D12*
X169862499Y-24487499D03*
D11*
X169862499Y-25587499D03*
%TD*%
D10*
%TO.P,MX8,1,1*%
%TO.N,COL7*%
X177165000Y-24447500D03*
%TO.P,MX8,2,2*%
%TO.N,Net-(D8-A)*%
X183515000Y-21907500D03*
%TD*%
%TO.P,MX62,1,1*%
%TO.N,COL5*%
X129540000Y-86360000D03*
%TO.P,MX62,2,2*%
%TO.N,Net-(D41-A)*%
X135890000Y-83820000D03*
%TD*%
D11*
%TO.P,D16,1,K*%
%TO.N,ROW1*%
X107949999Y-47437499D03*
D12*
X107949999Y-48537499D03*
D13*
X107949999Y-49937499D03*
D14*
%TO.P,D16,2,A*%
%TO.N,Net-(D16-A)*%
X107950000Y-42137500D03*
D12*
X107949999Y-43537499D03*
D11*
X107949999Y-44637499D03*
%TD*%
%TO.P,D17,1,K*%
%TO.N,ROW1*%
X126999999Y-47437499D03*
D12*
X126999999Y-48537499D03*
D13*
X126999999Y-49937499D03*
D14*
%TO.P,D17,2,A*%
%TO.N,Net-(D17-A)*%
X127000000Y-42137500D03*
D12*
X126999999Y-43537499D03*
D11*
X126999999Y-44637499D03*
%TD*%
D15*
%TO.P,D19,1,K*%
%TO.N,ROW1*%
X164912499Y-50799999D03*
D16*
X166012499Y-50799999D03*
D13*
X167412499Y-50799999D03*
D14*
%TO.P,D19,2,A*%
%TO.N,Net-(D19-A)*%
X159612500Y-50800000D03*
D16*
X161012499Y-50799999D03*
D15*
X162112499Y-50799999D03*
%TD*%
%TO.P,D30,1,K*%
%TO.N,ROW2*%
X141099999Y-69849999D03*
D16*
X142199999Y-69849999D03*
D13*
X143599999Y-69849999D03*
D14*
%TO.P,D30,2,A*%
%TO.N,Net-(D30-A)*%
X135800000Y-69850000D03*
D16*
X137199999Y-69849999D03*
D15*
X138299999Y-69849999D03*
%TD*%
%TO.P,D40,1,K*%
%TO.N,ROW3*%
X108556249Y-77787499D03*
D16*
X109656249Y-77787499D03*
D13*
X111056249Y-77787499D03*
D14*
%TO.P,D40,2,A*%
%TO.N,Net-(D40-A)*%
X103256250Y-77787500D03*
D16*
X104656249Y-77787499D03*
D15*
X105756249Y-77787499D03*
%TD*%
D11*
%TO.P,D38,1,K*%
%TO.N,ROW3*%
X46037499Y-85537499D03*
D12*
X46037499Y-86637499D03*
D13*
X46037499Y-88037499D03*
D14*
%TO.P,D38,2,A*%
%TO.N,Net-(D38-A)*%
X46037500Y-80237500D03*
D12*
X46037499Y-81637499D03*
D11*
X46037499Y-82737499D03*
%TD*%
D10*
%TO.P,MX40,1,1*%
%TO.N,COL4*%
X91440000Y-86360000D03*
%TO.P,MX40,2,2*%
%TO.N,Net-(D40-A)*%
X97790000Y-83820000D03*
%TD*%
D11*
%TO.P,D14,1,K*%
%TO.N,ROW1*%
X69849999Y-47437499D03*
D12*
X69849999Y-48537499D03*
D13*
X69849999Y-49937499D03*
D14*
%TO.P,D14,2,A*%
%TO.N,Net-(D14-A)*%
X69850000Y-42137500D03*
D12*
X69849999Y-43537499D03*
D11*
X69849999Y-44637499D03*
%TD*%
%TO.P,D32,1,K*%
%TO.N,ROW2*%
X179387499Y-66487499D03*
D12*
X179387499Y-67587499D03*
D13*
X179387499Y-68987499D03*
D14*
%TO.P,D32,2,A*%
%TO.N,Net-(D32-A)*%
X179387500Y-61187500D03*
D12*
X179387499Y-62587499D03*
D11*
X179387499Y-63687499D03*
%TD*%
D15*
%TO.P,D24,1,K*%
%TO.N,ROW1*%
X265112499Y-50799999D03*
D16*
X266212499Y-50799999D03*
D13*
X267612499Y-50799999D03*
D14*
%TO.P,D24,2,A*%
%TO.N,Net-(D24-A)*%
X259812500Y-50800000D03*
D16*
X261212499Y-50799999D03*
D15*
X262312499Y-50799999D03*
%TD*%
D11*
%TO.P,D4,1,K*%
%TO.N,ROW0*%
X112712499Y-28387499D03*
D12*
X112712499Y-29487499D03*
D13*
X112712499Y-30887499D03*
D14*
%TO.P,D4,2,A*%
%TO.N,Net-(D4-A)*%
X112712500Y-23087500D03*
D12*
X112712499Y-24487499D03*
D11*
X112712499Y-25587499D03*
%TD*%
D10*
%TO.P,MX27,1,1*%
%TO.N,COL2*%
X72390000Y-62547500D03*
%TO.P,MX27,2,2*%
%TO.N,Net-(D27-A)*%
X78740000Y-60007500D03*
%TD*%
D15*
%TO.P,D20,1,K*%
%TO.N,ROW1*%
X183962499Y-50799999D03*
D16*
X185062499Y-50799999D03*
D13*
X186462499Y-50799999D03*
D14*
%TO.P,D20,2,A*%
%TO.N,Net-(D20-A)*%
X178662500Y-50800000D03*
D16*
X180062499Y-50799999D03*
D15*
X181162499Y-50799999D03*
%TD*%
D10*
%TO.P,MX22,1,1*%
%TO.N,COL9*%
X220027500Y-43497500D03*
%TO.P,MX22,2,2*%
%TO.N,Net-(D22-A)*%
X226377500Y-40957500D03*
%TD*%
D11*
%TO.P,D35,1,K*%
%TO.N,ROW2*%
X236537499Y-66487499D03*
D12*
X236537499Y-67587499D03*
D13*
X236537499Y-68987499D03*
D14*
%TO.P,D35,2,A*%
%TO.N,Net-(D35-A)*%
X236537500Y-61187500D03*
D12*
X236537499Y-62587499D03*
D11*
X236537499Y-63687499D03*
%TD*%
D15*
%TO.P,D23,1,K*%
%TO.N,ROW1*%
X241112499Y-50799999D03*
D16*
X242212499Y-50799999D03*
D13*
X243612499Y-50799999D03*
D14*
%TO.P,D23,2,A*%
%TO.N,Net-(D23-A)*%
X235812500Y-50800000D03*
D16*
X237212499Y-50799999D03*
D15*
X238312499Y-50799999D03*
%TD*%
D10*
%TO.P,MX56,1,1*%
%TO.N,COL4*%
X108108750Y-86360000D03*
%TO.P,MX56,2,2*%
%TO.N,Net-(D40-A)*%
X114458750Y-83820000D03*
%TD*%
D15*
%TO.P,D42,1,K*%
%TO.N,ROW3*%
X199043749Y-77787499D03*
D16*
X200143749Y-77787499D03*
D13*
X201543749Y-77787499D03*
D14*
%TO.P,D42,2,A*%
%TO.N,Net-(D42-A)*%
X193743750Y-77787500D03*
D16*
X195143749Y-77787499D03*
D15*
X196243749Y-77787499D03*
%TD*%
D11*
%TO.P,D33,1,K*%
%TO.N,ROW2*%
X198437499Y-66487499D03*
D12*
X198437499Y-67587499D03*
D13*
X198437499Y-68987499D03*
D14*
%TO.P,D33,2,A*%
%TO.N,Net-(D33-A)*%
X198437500Y-61187500D03*
D12*
X198437499Y-62587499D03*
D11*
X198437499Y-63687499D03*
%TD*%
%TO.P,D26,1,K*%
%TO.N,ROW2*%
X65087499Y-66487499D03*
D12*
X65087499Y-67587499D03*
D13*
X65087499Y-68987499D03*
D14*
%TO.P,D26,2,A*%
%TO.N,Net-(D26-A)*%
X65087500Y-61187500D03*
D12*
X65087499Y-62587499D03*
D11*
X65087499Y-63687499D03*
%TD*%
D10*
%TO.P,MX3,1,1*%
%TO.N,COL2*%
X81915000Y-24447500D03*
%TO.P,MX3,2,2*%
%TO.N,Net-(D3-A)*%
X88265000Y-21907500D03*
%TD*%
%TO.P,MX58,1,1*%
%TO.N,COL8*%
X205740000Y-86360000D03*
%TO.P,MX58,2,2*%
%TO.N,Net-(D42-A)*%
X212090000Y-83820000D03*
%TD*%
%TO.P,MX7,1,1*%
%TO.N,COL6*%
X158115000Y-24447500D03*
%TO.P,MX7,2,2*%
%TO.N,Net-(D7-A)*%
X164465000Y-21907500D03*
%TD*%
%TO.P,MX25,1,1*%
%TO.N,COL0*%
X34290000Y-62547500D03*
%TO.P,MX25,2,2*%
%TO.N,Net-(D25-A)*%
X40640000Y-60007500D03*
%TD*%
%TO.P,MX64,1,1*%
%TO.N,COL5*%
X167640000Y-86360000D03*
%TO.P,MX64,2,2*%
%TO.N,Net-(D41-A)*%
X173990000Y-83820000D03*
%TD*%
%TO.P,MX31,1,1*%
%TO.N,COL6*%
X148590000Y-62547500D03*
%TO.P,MX31,2,2*%
%TO.N,Net-(D31-A)*%
X154940000Y-60007500D03*
%TD*%
%TO.P,MX45,1,1*%
%TO.N,COL11*%
X243840000Y-24447500D03*
%TO.P,MX45,2,2*%
%TO.N,Net-(D12-A)*%
X250190000Y-21907500D03*
%TD*%
%TO.P,MX53,1,1*%
%TO.N,COL5*%
X139065000Y-62547500D03*
%TO.P,MX53,2,2*%
%TO.N,Net-(D30-A)*%
X145415000Y-60007500D03*
%TD*%
%TO.P,MX36,1,1*%
%TO.N,COL11*%
X243840000Y-62547500D03*
%TO.P,MX36,2,2*%
%TO.N,Net-(D36-A)*%
X250190000Y-60007500D03*
%TD*%
%TO.P,MX37,1,1*%
%TO.N,COL11*%
X262890000Y-62547500D03*
%TO.P,MX37,2,2*%
%TO.N,Net-(D37-A)*%
X269240000Y-60007500D03*
%TD*%
%TO.P,MX28,1,1*%
%TO.N,COL3*%
X91440000Y-62547500D03*
%TO.P,MX28,2,2*%
%TO.N,Net-(D28-A)*%
X97790000Y-60007500D03*
%TD*%
D11*
%TO.P,D12,1,K*%
%TO.N,ROW0*%
X265112499Y-28387499D03*
D12*
X265112499Y-29487499D03*
D13*
X265112499Y-30887499D03*
D14*
%TO.P,D12,2,A*%
%TO.N,Net-(D12-A)*%
X265112500Y-23087500D03*
D12*
X265112499Y-24487499D03*
D11*
X265112499Y-25587499D03*
%TD*%
D10*
%TO.P,MX57,1,1*%
%TO.N,COL4*%
X93821250Y-86360000D03*
%TO.P,MX57,2,2*%
%TO.N,Net-(D40-A)*%
X100171250Y-83820000D03*
%TD*%
D15*
%TO.P,D22,1,K*%
%TO.N,ROW1*%
X222062499Y-50799999D03*
D16*
X223162499Y-50799999D03*
D13*
X224562499Y-50799999D03*
D14*
%TO.P,D22,2,A*%
%TO.N,Net-(D22-A)*%
X216762500Y-50800000D03*
D16*
X218162499Y-50799999D03*
D15*
X219262499Y-50799999D03*
%TD*%
D11*
%TO.P,D18,1,K*%
%TO.N,ROW1*%
X150018749Y-47437499D03*
D12*
X150018749Y-48537499D03*
D13*
X150018749Y-49937499D03*
D14*
%TO.P,D18,2,A*%
%TO.N,Net-(D18-A)*%
X150018750Y-42137500D03*
D12*
X150018749Y-43537499D03*
D11*
X150018749Y-44637499D03*
%TD*%
%TO.P,D8,1,K*%
%TO.N,ROW0*%
X188912499Y-28387499D03*
D12*
X188912499Y-29487499D03*
D13*
X188912499Y-30887499D03*
D14*
%TO.P,D8,2,A*%
%TO.N,Net-(D8-A)*%
X188912500Y-23087500D03*
D12*
X188912499Y-24487499D03*
D11*
X188912499Y-25587499D03*
%TD*%
%TO.P,D43,1,K*%
%TO.N,ROW3*%
X246062499Y-85537499D03*
D12*
X246062499Y-86637499D03*
D13*
X246062499Y-88037499D03*
D14*
%TO.P,D43,2,A*%
%TO.N,Net-(D43-A)*%
X246062500Y-80237500D03*
D12*
X246062499Y-81637499D03*
D11*
X246062499Y-82737499D03*
%TD*%
D10*
%TO.P,MX42,1,1*%
%TO.N,COL8*%
X186690000Y-86360000D03*
%TO.P,MX42,2,2*%
%TO.N,Net-(D42-A)*%
X193040000Y-83820000D03*
%TD*%
D11*
%TO.P,D31,1,K*%
%TO.N,ROW2*%
X160337499Y-66487499D03*
D12*
X160337499Y-67587499D03*
D13*
X160337499Y-68987499D03*
D14*
%TO.P,D31,2,A*%
%TO.N,Net-(D31-A)*%
X160337500Y-61187500D03*
D12*
X160337499Y-62587499D03*
D11*
X160337499Y-63687499D03*
%TD*%
D10*
%TO.P,MX21,1,1*%
%TO.N,COL8*%
X200977500Y-43497500D03*
%TO.P,MX21,2,2*%
%TO.N,Net-(D21-A)*%
X207327500Y-40957500D03*
%TD*%
%TO.P,MX14,1,1*%
%TO.N,COL1*%
X58102500Y-43497500D03*
%TO.P,MX14,2,2*%
%TO.N,Net-(D14-A)*%
X64452500Y-40957500D03*
%TD*%
%TO.P,MX39,1,1*%
%TO.N,COL1*%
X62865000Y-81597500D03*
%TO.P,MX39,2,2*%
%TO.N,Net-(D39-A)*%
X69215000Y-79057500D03*
%TD*%
%TO.P,MX41,1,1*%
%TO.N,COL5*%
X148590000Y-86360000D03*
%TO.P,MX41,2,2*%
%TO.N,Net-(D41-A)*%
X154940000Y-83820000D03*
%TD*%
%TO.P,MX49,1,1*%
%TO.N,COL8*%
X191452500Y-43497500D03*
%TO.P,MX49,2,2*%
%TO.N,Net-(D21-A)*%
X197802500Y-40957500D03*
%TD*%
D11*
%TO.P,D28,1,K*%
%TO.N,ROW2*%
X103187499Y-66487499D03*
D12*
X103187499Y-67587499D03*
D13*
X103187499Y-68987499D03*
D14*
%TO.P,D28,2,A*%
%TO.N,Net-(D28-A)*%
X103187500Y-61187500D03*
D12*
X103187499Y-62587499D03*
D11*
X103187499Y-63687499D03*
%TD*%
D10*
%TO.P,MX12,1,1*%
%TO.N,COL11*%
X253365000Y-24447500D03*
%TO.P,MX12,2,2*%
%TO.N,Net-(D12-A)*%
X259715000Y-21907500D03*
%TD*%
D15*
%TO.P,D41,1,K*%
%TO.N,ROW3*%
X141706249Y-77787499D03*
D16*
X142806249Y-77787499D03*
D13*
X144206249Y-77787499D03*
D14*
%TO.P,D41,2,A*%
%TO.N,Net-(D41-A)*%
X136406250Y-77787500D03*
D16*
X137806249Y-77787499D03*
D15*
X138906249Y-77787499D03*
%TD*%
D10*
%TO.P,MX47,1,1*%
%TO.N,COL6*%
X153352500Y-43497500D03*
%TO.P,MX47,2,2*%
%TO.N,Net-(D19-A)*%
X159702500Y-40957500D03*
%TD*%
%TO.P,MX44,1,1*%
%TO.N,COL10*%
X262890000Y-81597500D03*
%TO.P,MX44,2,2*%
%TO.N,Net-(D44-A)*%
X269240000Y-79057500D03*
%TD*%
%TO.P,MX65,1,1*%
%TO.N,COL5*%
X143827500Y-86360000D03*
%TO.P,MX65,2,2*%
%TO.N,Net-(D41-A)*%
X150177500Y-83820000D03*
%TD*%
D11*
%TO.P,D34,1,K*%
%TO.N,ROW2*%
X217487499Y-66487499D03*
D12*
X217487499Y-67587499D03*
D13*
X217487499Y-68987499D03*
D14*
%TO.P,D34,2,A*%
%TO.N,Net-(D34-A)*%
X217487500Y-61187500D03*
D12*
X217487499Y-62587499D03*
D11*
X217487499Y-63687499D03*
%TD*%
%TO.P,D13,1,K*%
%TO.N,ROW1*%
X50799999Y-47437499D03*
D12*
X50799999Y-48537499D03*
D13*
X50799999Y-49937499D03*
D14*
%TO.P,D13,2,A*%
%TO.N,Net-(D13-A)*%
X50800000Y-42137500D03*
D12*
X50799999Y-43537499D03*
D11*
X50799999Y-44637499D03*
%TD*%
%TO.P,D29,1,K*%
%TO.N,ROW2*%
X122237499Y-66487499D03*
D12*
X122237499Y-67587499D03*
D13*
X122237499Y-68987499D03*
D14*
%TO.P,D29,2,A*%
%TO.N,Net-(D29-A)*%
X122237500Y-61187500D03*
D12*
X122237499Y-62587499D03*
D11*
X122237499Y-63687499D03*
%TD*%
D10*
%TO.P,MX50,1,1*%
%TO.N,COL9*%
X210502500Y-43497500D03*
%TO.P,MX50,2,2*%
%TO.N,Net-(D22-A)*%
X216852500Y-40957500D03*
%TD*%
%TO.P,MX18,1,1*%
%TO.N,COL5*%
X134302500Y-43497500D03*
%TO.P,MX18,2,2*%
%TO.N,Net-(D18-A)*%
X140652500Y-40957500D03*
%TD*%
%TO.P,MX46,1,1*%
%TO.N,COL5*%
X139065000Y-43497500D03*
%TO.P,MX46,2,2*%
%TO.N,Net-(D18-A)*%
X145415000Y-40957500D03*
%TD*%
%TO.P,MX48,1,1*%
%TO.N,COL7*%
X172402500Y-43497500D03*
%TO.P,MX48,2,2*%
%TO.N,Net-(D20-A)*%
X178752500Y-40957500D03*
%TD*%
%TO.P,MX61,1,1*%
%TO.N,COL5*%
X158115000Y-86360000D03*
%TO.P,MX61,2,2*%
%TO.N,Net-(D41-A)*%
X164465000Y-83820000D03*
%TD*%
%TO.P,MX19,1,1*%
%TO.N,COL6*%
X162877500Y-43497500D03*
%TO.P,MX19,2,2*%
%TO.N,Net-(D19-A)*%
X169227500Y-40957500D03*
%TD*%
%TO.P,MX67,1,1*%
%TO.N,COL5*%
X162877500Y-86360000D03*
%TO.P,MX67,2,2*%
%TO.N,Net-(D41-A)*%
X169227500Y-83820000D03*
%TD*%
D15*
%TO.P,D21,1,K*%
%TO.N,ROW1*%
X203012499Y-50799999D03*
D16*
X204112499Y-50799999D03*
D13*
X205512499Y-50799999D03*
D14*
%TO.P,D21,2,A*%
%TO.N,Net-(D21-A)*%
X197712500Y-50800000D03*
D16*
X199112499Y-50799999D03*
D15*
X200212499Y-50799999D03*
%TD*%
D11*
%TO.P,D15,1,K*%
%TO.N,ROW1*%
X88899999Y-47437499D03*
D12*
X88899999Y-48537499D03*
D13*
X88899999Y-49937499D03*
D14*
%TO.P,D15,2,A*%
%TO.N,Net-(D15-A)*%
X88900000Y-42137500D03*
D12*
X88899999Y-43537499D03*
D11*
X88899999Y-44637499D03*
%TD*%
D10*
%TO.P,MX4,1,1*%
%TO.N,COL3*%
X100965000Y-24447500D03*
%TO.P,MX4,2,2*%
%TO.N,Net-(D4-A)*%
X107315000Y-21907500D03*
%TD*%
D11*
%TO.P,D25,1,K*%
%TO.N,ROW2*%
X46037499Y-66487499D03*
D12*
X46037499Y-67587499D03*
D13*
X46037499Y-68987499D03*
D14*
%TO.P,D25,2,A*%
%TO.N,Net-(D25-A)*%
X46037500Y-61187500D03*
D12*
X46037499Y-62587499D03*
D11*
X46037499Y-63687499D03*
%TD*%
D15*
%TO.P,D36,1,K*%
%TO.N,ROW2*%
X255399999Y-69849999D03*
D16*
X256499999Y-69849999D03*
D13*
X257899999Y-69849999D03*
D14*
%TO.P,D36,2,A*%
%TO.N,Net-(D36-A)*%
X250100000Y-69850000D03*
D16*
X251499999Y-69849999D03*
D15*
X252599999Y-69849999D03*
%TD*%
D10*
%TO.P,MX15,1,1*%
%TO.N,COL2*%
X77152500Y-43497500D03*
%TO.P,MX15,2,2*%
%TO.N,Net-(D15-A)*%
X83502500Y-40957500D03*
%TD*%
%TO.P,MX66,1,1*%
%TO.N,COL5*%
X134302500Y-86360000D03*
%TO.P,MX66,2,2*%
%TO.N,Net-(D41-A)*%
X140652500Y-83820000D03*
%TD*%
%TO.P,MX24,1,1*%
%TO.N,COL11*%
X258127500Y-43497500D03*
%TO.P,MX24,2,2*%
%TO.N,Net-(D24-A)*%
X264477500Y-40957500D03*
%TD*%
%TO.P,MX9,1,1*%
%TO.N,COL8*%
X196215000Y-24447500D03*
%TO.P,MX9,2,2*%
%TO.N,Net-(D9-A)*%
X202565000Y-21907500D03*
%TD*%
%TO.P,MX54,1,1*%
%TO.N,COL11*%
X253365000Y-62547500D03*
%TO.P,MX54,2,2*%
%TO.N,Net-(D36-A)*%
X259715000Y-60007500D03*
%TD*%
%TO.P,MX55,1,1*%
%TO.N,COL4*%
X110490000Y-86360000D03*
%TO.P,MX55,2,2*%
%TO.N,Net-(D40-A)*%
X116840000Y-83820000D03*
%TD*%
D11*
%TO.P,D6,1,K*%
%TO.N,ROW0*%
X150812499Y-28387499D03*
D12*
X150812499Y-29487499D03*
D13*
X150812499Y-30887499D03*
D14*
%TO.P,D6,2,A*%
%TO.N,Net-(D6-A)*%
X150812500Y-23087500D03*
D12*
X150812499Y-24487499D03*
D11*
X150812499Y-25587499D03*
%TD*%
%TO.P,D5,1,K*%
%TO.N,ROW0*%
X131762499Y-28387499D03*
D12*
X131762499Y-29487499D03*
D13*
X131762499Y-30887499D03*
D14*
%TO.P,D5,2,A*%
%TO.N,Net-(D5-A)*%
X131762500Y-23087500D03*
D12*
X131762499Y-24487499D03*
D11*
X131762499Y-25587499D03*
%TD*%
D10*
%TO.P,MX6,1,1*%
%TO.N,COL5*%
X139065000Y-24447500D03*
%TO.P,MX6,2,2*%
%TO.N,Net-(D6-A)*%
X145415000Y-21907500D03*
%TD*%
%TO.P,MX34,1,1*%
%TO.N,COL9*%
X205740000Y-62547500D03*
%TO.P,MX34,2,2*%
%TO.N,Net-(D34-A)*%
X212090000Y-60007500D03*
%TD*%
D15*
%TO.P,D11,1,K*%
%TO.N,ROW0*%
X246249999Y-31749999D03*
D16*
X245149999Y-31749999D03*
D13*
X243749999Y-31749999D03*
D14*
%TO.P,D11,2,A*%
%TO.N,Net-(D11-A)*%
X251550000Y-31750000D03*
D16*
X250149999Y-31749999D03*
D15*
X249049999Y-31749999D03*
%TD*%
D10*
%TO.P,MX32,1,1*%
%TO.N,COL7*%
X167640000Y-62547500D03*
%TO.P,MX32,2,2*%
%TO.N,Net-(D32-A)*%
X173990000Y-60007500D03*
%TD*%
%TO.P,MX11,1,1*%
%TO.N,COL10*%
X234315000Y-24447500D03*
%TO.P,MX11,2,2*%
%TO.N,Net-(D11-A)*%
X240665000Y-21907500D03*
%TD*%
D11*
%TO.P,D9,1,K*%
%TO.N,ROW0*%
X207962499Y-28387499D03*
D12*
X207962499Y-29487499D03*
D13*
X207962499Y-30887499D03*
D14*
%TO.P,D9,2,A*%
%TO.N,Net-(D9-A)*%
X207962500Y-23087500D03*
D12*
X207962499Y-24487499D03*
D11*
X207962499Y-25587499D03*
%TD*%
D17*
%TO.P,U2,1,TX0/PD3*%
%TO.N,ROW3*%
X42386249Y-19367499D03*
D18*
%TO.P,U2,2,RX1/PD2*%
%TO.N,ROW2*%
X44926250Y-19367500D03*
%TO.P,U2,3,GND*%
%TO.N,GND*%
X47466250Y-19367500D03*
%TO.P,U2,4,GND*%
X50006250Y-19367500D03*
%TO.P,U2,5,2/PD1*%
%TO.N,ROW1*%
X52546250Y-19367500D03*
%TO.P,U2,6,3/PD0*%
%TO.N,COL0*%
X55086250Y-19367500D03*
%TO.P,U2,7,4/PD4*%
%TO.N,COL6*%
X57626250Y-19367500D03*
%TO.P,U2,8,5/PC6*%
%TO.N,COL1*%
X60166250Y-19367500D03*
%TO.P,U2,9,6/PD7*%
%TO.N,COL8*%
X62706250Y-19367500D03*
%TO.P,U2,10,7/PE6*%
%TO.N,COL10*%
X65246250Y-19367500D03*
%TO.P,U2,11,8/PB4*%
%TO.N,COL2*%
X67786250Y-19367500D03*
%TO.P,U2,12,9/PB5*%
%TO.N,ROW0*%
X70326250Y-19367500D03*
%TO.P,U2,13,10/PB6*%
%TO.N,COL11*%
X70326250Y-34607500D03*
%TO.P,U2,14,16/PB2*%
%TO.N,COL9*%
X67786250Y-34607500D03*
%TO.P,U2,15,14/PB3*%
%TO.N,COL7*%
X65246250Y-34607500D03*
%TO.P,U2,16,15/PB1*%
%TO.N,COL5*%
X62706250Y-34607500D03*
%TO.P,U2,17,A0/PF7*%
%TO.N,COL4*%
X60166250Y-34607500D03*
%TO.P,U2,18,A1/PF6*%
%TO.N,COL3*%
X57626250Y-34607500D03*
%TO.P,U2,19,A2/PF5*%
%TO.N,unconnected-(U2-A2{slash}PF5-Pad19)*%
X55086250Y-34607500D03*
%TO.P,U2,20,A3/PF4*%
%TO.N,RGB*%
X52546250Y-34607500D03*
%TO.P,U2,21,VCC*%
%TO.N,VCC*%
X50006250Y-34607500D03*
%TO.P,U2,22,RST*%
%TO.N,RST*%
X47466250Y-34607500D03*
%TO.P,U2,23,GND*%
%TO.N,GND*%
X44926250Y-34607500D03*
%TO.P,U2,24,RAW*%
%TO.N,RAW*%
X42386250Y-34607500D03*
%TD*%
D19*
%TO.P,J1,1,Pin_1*%
%TO.N,VCC*%
X49212499Y-53816249D03*
D20*
%TO.P,J1,2,Pin_2*%
%TO.N,RGB*%
X49212499Y-56356249D03*
%TO.P,J1,3,Pin_3*%
%TO.N,GND*%
X49212499Y-58896249D03*
%TD*%
D21*
%TO.N,ROW0*%
X252081250Y-32875000D02*
X254068750Y-30887500D01*
X227012500Y-30887500D02*
X242887500Y-30887500D01*
X74612500Y-30887500D02*
X73750000Y-30887500D01*
X244875000Y-32875000D02*
X252081250Y-32875000D01*
X73025000Y-30162500D02*
X73025000Y-21431250D01*
X242887500Y-30887500D02*
X243750000Y-31750000D01*
X73025000Y-21431250D02*
X70961250Y-19367500D01*
X70961250Y-19367500D02*
X70326250Y-19367500D01*
X73750000Y-30887500D02*
X73025000Y-30162500D01*
X74612500Y-30887500D02*
X227012500Y-30887500D01*
X254068750Y-30887500D02*
X265112500Y-30887500D01*
X243750000Y-31750000D02*
X244875000Y-32875000D01*
%TO.N,Net-(D3-A)*%
X92482500Y-21907500D02*
X93662500Y-23087500D01*
X88265000Y-21907500D02*
X92482500Y-21907500D01*
%TO.N,Net-(D4-A)*%
X111532500Y-21907500D02*
X112712500Y-23087500D01*
X107315000Y-21907500D02*
X111532500Y-21907500D01*
%TO.N,Net-(D5-A)*%
X126365000Y-21907500D02*
X130582500Y-21907500D01*
X130582500Y-21907500D02*
X131762500Y-23087500D01*
%TO.N,Net-(D6-A)*%
X145415000Y-21907500D02*
X149632500Y-21907500D01*
X149632500Y-21907500D02*
X150812500Y-23087500D01*
%TO.N,Net-(D7-A)*%
X168682500Y-21907500D02*
X169862500Y-23087500D01*
X164465000Y-21907500D02*
X168682500Y-21907500D01*
%TO.N,Net-(D8-A)*%
X183515000Y-21907500D02*
X187732500Y-21907500D01*
X187732500Y-21907500D02*
X188912500Y-23087500D01*
%TO.N,Net-(D9-A)*%
X206782500Y-21907500D02*
X207962500Y-23087500D01*
X202565000Y-21907500D02*
X206782500Y-21907500D01*
%TO.N,Net-(D10-A)*%
X221615000Y-21907500D02*
X225832500Y-21907500D01*
X225832500Y-21907500D02*
X227012500Y-23087500D01*
%TO.N,Net-(D11-A)*%
X245920131Y-21907500D02*
X250825000Y-26812369D01*
X250825000Y-26812369D02*
X250845000Y-26832369D01*
X250825000Y-31025000D02*
X251550000Y-31750000D01*
X240665000Y-21907500D02*
X245920131Y-21907500D01*
X250825000Y-26812369D02*
X250825000Y-31025000D01*
%TO.N,Net-(D12-A)*%
X265112500Y-23087500D02*
X260475000Y-23087500D01*
X250190000Y-21907500D02*
X259715000Y-21907500D01*
X260475000Y-23087500D02*
X259715000Y-22327500D01*
%TO.N,Net-(D13-A)*%
X45402500Y-40957500D02*
X49620000Y-40957500D01*
X49620000Y-40957500D02*
X50800000Y-42137500D01*
%TO.N,ROW1*%
X51593750Y-23812500D02*
X52387500Y-23018750D01*
X39793750Y-26193750D02*
X39793750Y-23706250D01*
X40527500Y-22972500D02*
X47578750Y-22972500D01*
X35297792Y-38206250D02*
X38472792Y-38206250D01*
X168537500Y-51925000D02*
X185337500Y-51925000D01*
X186462500Y-50800000D02*
X187587500Y-51925000D01*
X152006250Y-51925000D02*
X166287500Y-51925000D01*
X37306250Y-49937500D02*
X36443750Y-49937500D01*
X38100000Y-49937500D02*
X37772500Y-49937500D01*
X50800000Y-49937500D02*
X38100000Y-49937500D01*
X50006250Y-23812500D02*
X51593750Y-23812500D01*
X244737500Y-51925000D02*
X266487500Y-51925000D01*
X37306250Y-49937500D02*
X35650000Y-49937500D01*
X38100000Y-49937500D02*
X37306250Y-49937500D01*
X243612500Y-50800000D02*
X244737500Y-51925000D01*
X38472792Y-38206250D02*
X39793750Y-36885292D01*
X40481250Y-23018750D02*
X40527500Y-22972500D01*
X39793750Y-36885292D02*
X39793750Y-26193750D01*
X48418750Y-23812500D02*
X50006250Y-23812500D01*
X166287500Y-51925000D02*
X167412500Y-50800000D01*
X242487500Y-51925000D02*
X243612500Y-50800000D01*
X47578750Y-22972500D02*
X47625000Y-23018750D01*
X52546250Y-19367500D02*
X52546250Y-22860000D01*
X204387500Y-51925000D02*
X205512500Y-50800000D01*
X47625000Y-23018750D02*
X48418750Y-23812500D01*
X88900000Y-49937500D02*
X150018750Y-49937500D01*
X223437500Y-51925000D02*
X224562500Y-50800000D01*
X150018750Y-49937500D02*
X152006250Y-51925000D01*
X35031250Y-38472792D02*
X35297792Y-38206250D01*
X35031250Y-49318750D02*
X35031250Y-38472792D01*
X266487500Y-51925000D02*
X267612500Y-50800000D01*
X167412500Y-50800000D02*
X168537500Y-51925000D01*
X69850000Y-49937500D02*
X88900000Y-49937500D01*
X206637500Y-51925000D02*
X223437500Y-51925000D01*
X35650000Y-49937500D02*
X35031250Y-49318750D01*
X185337500Y-51925000D02*
X186462500Y-50800000D01*
X224562500Y-50800000D02*
X225687500Y-51925000D01*
X187587500Y-51925000D02*
X204387500Y-51925000D01*
X225687500Y-51925000D02*
X242487500Y-51925000D01*
X39793750Y-23706250D02*
X40481250Y-23018750D01*
X205512500Y-50800000D02*
X206637500Y-51925000D01*
X52546250Y-22860000D02*
X52387500Y-23018750D01*
%TO.N,Net-(D14-A)*%
X64452500Y-40957500D02*
X68670000Y-40957500D01*
X68670000Y-40957500D02*
X69850000Y-42137500D01*
%TO.N,Net-(D15-A)*%
X83502500Y-40957500D02*
X87720000Y-40957500D01*
X87720000Y-40957500D02*
X88900000Y-42137500D01*
%TO.N,Net-(D16-A)*%
X106770000Y-40957500D02*
X107950000Y-42137500D01*
X102552500Y-40957500D02*
X106770000Y-40957500D01*
%TO.N,Net-(D17-A)*%
X121602500Y-40957500D02*
X125820000Y-40957500D01*
X125820000Y-40957500D02*
X127000000Y-42137500D01*
%TO.N,Net-(D18-A)*%
X145415000Y-40957500D02*
X148838750Y-40957500D01*
X140652500Y-40957500D02*
X145415000Y-40957500D01*
X148838750Y-40957500D02*
X150018750Y-42137500D01*
%TO.N,Net-(D19-A)*%
X159702500Y-40957500D02*
X169227500Y-40957500D01*
X159702500Y-50710000D02*
X159612500Y-50800000D01*
X159702500Y-40957500D02*
X159702500Y-50710000D01*
%TO.N,Net-(D20-A)*%
X178752500Y-50710000D02*
X178662500Y-50800000D01*
X178752500Y-40957500D02*
X188277500Y-40957500D01*
X178752500Y-40957500D02*
X178752500Y-50710000D01*
%TO.N,Net-(D21-A)*%
X197802500Y-40957500D02*
X197802500Y-50710000D01*
X197802500Y-50710000D02*
X197712500Y-50800000D01*
X197802500Y-40957500D02*
X207327500Y-40957500D01*
%TO.N,Net-(D22-A)*%
X216852500Y-40957500D02*
X226377500Y-40957500D01*
X216852500Y-40957500D02*
X216852500Y-50710000D01*
X216852500Y-50710000D02*
X216762500Y-50800000D01*
%TO.N,Net-(D23-A)*%
X235902500Y-40957500D02*
X245427500Y-40957500D01*
X235902500Y-40957500D02*
X235902500Y-50710000D01*
X235902500Y-50710000D02*
X235812500Y-50800000D01*
%TO.N,Net-(D24-A)*%
X259568600Y-50556100D02*
X259812500Y-50800000D01*
X259715000Y-40957500D02*
X264477500Y-40957500D01*
X259715000Y-44909869D02*
X259568600Y-45056269D01*
X259568600Y-45056269D02*
X259568600Y-50556100D01*
X259715000Y-40957500D02*
X259715000Y-44909869D01*
%TO.N,Net-(D25-A)*%
X44857500Y-60007500D02*
X46037500Y-61187500D01*
X40640000Y-60007500D02*
X44857500Y-60007500D01*
%TO.N,ROW2*%
X122237500Y-68987500D02*
X133346509Y-68987500D01*
X29818750Y-57336396D02*
X30348896Y-56806250D01*
X44450000Y-21431250D02*
X44926250Y-20955000D01*
X34581250Y-55748896D02*
X34581250Y-38286396D01*
X30348896Y-56806250D02*
X30956250Y-56806250D01*
X159475000Y-69850000D02*
X160337500Y-68987500D01*
X247646509Y-68987500D02*
X249634009Y-70975000D01*
X39343750Y-21775000D02*
X39687500Y-21431250D01*
X160337500Y-68987500D02*
X236537500Y-68987500D01*
X143600000Y-69850000D02*
X159475000Y-69850000D01*
X29818750Y-68262500D02*
X29818750Y-57336396D01*
X249634009Y-70975000D02*
X256775000Y-70975000D01*
X46037500Y-68987500D02*
X30543750Y-68987500D01*
X30543750Y-68987500D02*
X29818750Y-68262500D01*
X135334009Y-70975000D02*
X142475000Y-70975000D01*
X46037500Y-68987500D02*
X122237500Y-68987500D01*
X33523896Y-56806250D02*
X34581250Y-55748896D01*
X33523896Y-56806250D02*
X33655698Y-56674448D01*
X30956250Y-56806250D02*
X33523896Y-56806250D01*
X34581250Y-38286396D02*
X35111396Y-37756250D01*
X142475000Y-70975000D02*
X143600000Y-69850000D01*
X133346509Y-68987500D02*
X135334009Y-70975000D01*
X39687500Y-21431250D02*
X44450000Y-21431250D01*
X236537500Y-68987500D02*
X247646509Y-68987500D01*
X256775000Y-70975000D02*
X257900000Y-69850000D01*
X44926250Y-20955000D02*
X44926250Y-19367500D01*
X35111396Y-37756250D02*
X38286396Y-37756250D01*
X38286396Y-37756250D02*
X39343750Y-36698896D01*
X39343750Y-36698896D02*
X39343750Y-21775000D01*
%TO.N,Net-(D26-A)*%
X59690000Y-60007500D02*
X63907500Y-60007500D01*
X63907500Y-60007500D02*
X65087500Y-61187500D01*
%TO.N,Net-(D27-A)*%
X78740000Y-60007500D02*
X82957500Y-60007500D01*
X82957500Y-60007500D02*
X84137500Y-61187500D01*
%TO.N,Net-(D28-A)*%
X102007500Y-60007500D02*
X103187500Y-61187500D01*
X97790000Y-60007500D02*
X102007500Y-60007500D01*
%TO.N,Net-(D29-A)*%
X116840000Y-60007500D02*
X121057500Y-60007500D01*
X121057500Y-60007500D02*
X122237500Y-61187500D01*
%TO.N,Net-(D30-A)*%
X135800000Y-69850000D02*
X135800000Y-60097500D01*
X135890000Y-60007500D02*
X145415000Y-60007500D01*
X135800000Y-60097500D02*
X135890000Y-60007500D01*
%TO.N,Net-(D31-A)*%
X155700000Y-61187500D02*
X154940000Y-60427500D01*
X160337500Y-61187500D02*
X155700000Y-61187500D01*
%TO.N,Net-(D32-A)*%
X178207500Y-60007500D02*
X179387500Y-61187500D01*
X173990000Y-60007500D02*
X178207500Y-60007500D01*
%TO.N,Net-(D33-A)*%
X197257500Y-60007500D02*
X198437500Y-61187500D01*
X193040000Y-60007500D02*
X197257500Y-60007500D01*
%TO.N,Net-(D34-A)*%
X216307500Y-60007500D02*
X217487500Y-61187500D01*
X212090000Y-60007500D02*
X216307500Y-60007500D01*
%TO.N,Net-(D35-A)*%
X235357500Y-60007500D02*
X236537500Y-61187500D01*
X231140000Y-60007500D02*
X235357500Y-60007500D01*
%TO.N,Net-(D36-A)*%
X250190000Y-60007500D02*
X259715000Y-60007500D01*
X250100000Y-60097500D02*
X250190000Y-60007500D01*
X250100000Y-69850000D02*
X250100000Y-60097500D01*
%TO.N,Net-(D37-A)*%
X270000000Y-61187500D02*
X269240000Y-60427500D01*
X274637500Y-61187500D02*
X270000000Y-61187500D01*
%TO.N,Net-(D38-A)*%
X44857500Y-79057500D02*
X46037500Y-80237500D01*
X40640000Y-79057500D02*
X44857500Y-79057500D01*
%TO.N,ROW3*%
X200418750Y-76662500D02*
X201543750Y-77787500D01*
X34131250Y-38100000D02*
X34925000Y-37306250D01*
X36068000Y-88037500D02*
X35152233Y-88037500D01*
X230981250Y-88037500D02*
X246062500Y-88037500D01*
X38893750Y-36512500D02*
X38893750Y-20637500D01*
X145331250Y-76662500D02*
X200418750Y-76662500D01*
X202598761Y-76732489D02*
X219676239Y-76732489D01*
X201543750Y-77787500D02*
X202598761Y-76732489D01*
X31641500Y-87421000D02*
X29368750Y-85148250D01*
X31641500Y-87421000D02*
X31320000Y-87099500D01*
X34925000Y-37306250D02*
X38100000Y-37306250D01*
X38100000Y-37306250D02*
X38893750Y-36512500D01*
X111056250Y-77787500D02*
X112181250Y-76662500D01*
X36068000Y-88037500D02*
X32258000Y-88037500D01*
X144206250Y-77787500D02*
X145331250Y-76662500D01*
X275762500Y-70112500D02*
X274637500Y-68987500D01*
X32258000Y-88037500D02*
X31641500Y-87421000D01*
X275762500Y-86912500D02*
X275762500Y-70112500D01*
X29368750Y-57150000D02*
X30162500Y-56356250D01*
X30162500Y-56356250D02*
X33337500Y-56356250D01*
X274637500Y-88037500D02*
X275762500Y-86912500D01*
X33337500Y-56356250D02*
X34131250Y-55562500D01*
X34131250Y-55562500D02*
X34131250Y-38100000D01*
X46037500Y-88037500D02*
X74612500Y-88037500D01*
X219676239Y-76732489D02*
X230981250Y-88037500D01*
X274637500Y-88037500D02*
X246062500Y-88037500D01*
X112181250Y-76662500D02*
X143081250Y-76662500D01*
X46037500Y-88037500D02*
X36068000Y-88037500D01*
X143081250Y-76662500D02*
X144206250Y-77787500D01*
X29368750Y-85148250D02*
X29368750Y-57150000D01*
X40163750Y-19367500D02*
X42386250Y-19367500D01*
X38893750Y-20637500D02*
X40163750Y-19367500D01*
X74612500Y-88037500D02*
X85987500Y-76662500D01*
X109931250Y-76662500D02*
X111056250Y-77787500D01*
X85987500Y-76662500D02*
X109931250Y-76662500D01*
%TO.N,Net-(D39-A)*%
X69215000Y-79057500D02*
X73432500Y-79057500D01*
X73432500Y-79057500D02*
X74612500Y-80237500D01*
%TO.N,Net-(D40-A)*%
X97790000Y-83820000D02*
X116840000Y-83820000D01*
X103256250Y-82361345D02*
X103256250Y-77787500D01*
X101797595Y-83820000D02*
X103256250Y-82361345D01*
X100171250Y-83820000D02*
X101797595Y-83820000D01*
%TO.N,Net-(D41-A)*%
X135890000Y-78303750D02*
X136406250Y-77787500D01*
X135890000Y-83820000D02*
X173990000Y-83820000D01*
X135890000Y-83820000D02*
X135890000Y-78303750D01*
%TO.N,Net-(D42-A)*%
X193040000Y-83820000D02*
X212090000Y-83820000D01*
X193743750Y-83116250D02*
X193743750Y-77787500D01*
X193040000Y-83820000D02*
X193743750Y-83116250D01*
%TO.N,Net-(D43-A)*%
X244882500Y-79057500D02*
X246062500Y-80237500D01*
X240665000Y-79057500D02*
X244882500Y-79057500D01*
%TO.N,Net-(D44-A)*%
X273457500Y-79057500D02*
X274637500Y-80237500D01*
X269240000Y-79057500D02*
X273457500Y-79057500D01*
%TO.N,COL0*%
X55086250Y-23495000D02*
X54133750Y-24447500D01*
X54133750Y-24447500D02*
X43815000Y-24447500D01*
X55086250Y-19367500D02*
X55086250Y-23495000D01*
%TO.N,COL1*%
X62865000Y-24447500D02*
X60166250Y-21748750D01*
X60166250Y-21748750D02*
X60166250Y-19367500D01*
%TO.N,COL2*%
X67786250Y-18732500D02*
X67786250Y-19367500D01*
X68352550Y-18166200D02*
X67786250Y-18732500D01*
X81915000Y-24447500D02*
X75633700Y-18166200D01*
X75633700Y-18166200D02*
X68352550Y-18166200D01*
%TO.N,COL3*%
X91440000Y-62547500D02*
X86446000Y-57553500D01*
X51925000Y-38614832D02*
X54657332Y-35882500D01*
X57023000Y-35882500D02*
X57626250Y-35279250D01*
X57626250Y-35279250D02*
X57626250Y-34607500D01*
X54548604Y-57553500D02*
X51925000Y-54929896D01*
X86446000Y-57553500D02*
X54548604Y-57553500D01*
X51925000Y-54929896D02*
X51925000Y-38614832D01*
X54657332Y-35882500D02*
X57023000Y-35882500D01*
%TO.N,COL4*%
X105046000Y-57103500D02*
X110490000Y-62547500D01*
X59531250Y-36332500D02*
X54843728Y-36332500D01*
X54735000Y-57103500D02*
X105046000Y-57103500D01*
X60166250Y-34607500D02*
X60166250Y-35697500D01*
X54843728Y-36332500D02*
X52375000Y-38801228D01*
X52375000Y-38801228D02*
X52375000Y-54743500D01*
X60166250Y-35697500D02*
X59531250Y-36332500D01*
X52375000Y-54743500D02*
X54735000Y-57103500D01*
%TO.N,COL5*%
X62706250Y-36193750D02*
X62117500Y-36782500D01*
X52825000Y-54557104D02*
X54921396Y-56653500D01*
X54921396Y-56653500D02*
X123646000Y-56653500D01*
X52825000Y-38987624D02*
X52825000Y-54557104D01*
X62117500Y-36782500D02*
X55030124Y-36782500D01*
X55030124Y-36782500D02*
X52825000Y-38987624D01*
X62706250Y-34607500D02*
X62706250Y-36193750D01*
X123646000Y-56653500D02*
X129540000Y-62547500D01*
%TO.N,COL6*%
X64044950Y-31750000D02*
X64044950Y-36098800D01*
X57626250Y-19367500D02*
X57626250Y-25331300D01*
X148590000Y-60921155D02*
X143872345Y-56203500D01*
X148590000Y-62547500D02*
X148590000Y-60921155D01*
X57819350Y-25524400D02*
X64044950Y-31750000D01*
X64293750Y-56203500D02*
X63652750Y-56203500D01*
X53275000Y-39174020D02*
X53275000Y-54370708D01*
X53275000Y-54370708D02*
X55107792Y-56203500D01*
X130175000Y-56203500D02*
X64293750Y-56203500D01*
X143872345Y-56203500D02*
X130175000Y-56203500D01*
X55216520Y-37232500D02*
X53275000Y-39174020D01*
X64044950Y-36098800D02*
X62911250Y-37232500D01*
X130175000Y-56203500D02*
X129534000Y-56203500D01*
X62911250Y-37232500D02*
X55216520Y-37232500D01*
X57700734Y-25405784D02*
X57819350Y-25524400D01*
X57626250Y-25331300D02*
X57819350Y-25524400D01*
X55107792Y-56203500D02*
X64293750Y-56203500D01*
%TO.N,COL7*%
X167640000Y-62547500D02*
X160846000Y-55753500D01*
X65246250Y-36730000D02*
X64293750Y-37682500D01*
X53725000Y-39360416D02*
X53725000Y-54184312D01*
X69056250Y-55753500D02*
X68262500Y-55753500D01*
X143685949Y-55753500D02*
X83343750Y-55753500D01*
X55402916Y-37682500D02*
X53725000Y-39360416D01*
X64293750Y-37682500D02*
X55402916Y-37682500D01*
X55294188Y-55753500D02*
X69056250Y-55753500D01*
X53725000Y-54184312D02*
X55294188Y-55753500D01*
X65246250Y-34607500D02*
X65246250Y-36730000D01*
X83343750Y-55753500D02*
X69056250Y-55753500D01*
X160846000Y-55753500D02*
X143685949Y-55753500D01*
%TO.N,COL8*%
X54175000Y-39546812D02*
X54175000Y-53997916D01*
X62706250Y-19367500D02*
X62706250Y-21431250D01*
X69056250Y-30956250D02*
X66584950Y-33427550D01*
X65744284Y-38132500D02*
X55589312Y-38132500D01*
X179446000Y-55303500D02*
X186690000Y-62547500D01*
X65262631Y-22225000D02*
X69056250Y-26018619D01*
X63500000Y-22225000D02*
X65262631Y-22225000D01*
X55480584Y-55303500D02*
X179446000Y-55303500D01*
X54175000Y-53997916D02*
X55480584Y-55303500D01*
X66584950Y-33427550D02*
X66584950Y-37291834D01*
X66584950Y-37291834D02*
X65744284Y-38132500D01*
X55589312Y-38132500D02*
X54175000Y-39546812D01*
X69056250Y-26018619D02*
X69056250Y-30956250D01*
X62706250Y-21431250D02*
X63500000Y-22225000D01*
%TO.N,COL9*%
X205740000Y-62547500D02*
X198046000Y-54853500D01*
X54625000Y-53811520D02*
X54625000Y-39733208D01*
X198046000Y-54853500D02*
X55666980Y-54853500D01*
X67786250Y-37782500D02*
X67786250Y-34607500D01*
X55775708Y-38582500D02*
X66986250Y-38582500D01*
X54625000Y-39733208D02*
X55775708Y-38582500D01*
X66986250Y-38582500D02*
X67786250Y-37782500D01*
X55666980Y-54853500D02*
X54625000Y-53811520D01*
%TO.N,COL10*%
X65246250Y-19367500D02*
X65246250Y-20796250D01*
X55853376Y-54403500D02*
X216646000Y-54403500D01*
X55075000Y-53625124D02*
X55853376Y-54403500D01*
X55962104Y-39032500D02*
X55075000Y-39919604D01*
X216646000Y-54403500D02*
X224790000Y-62547500D01*
X55075000Y-39919604D02*
X55075000Y-53625124D01*
X69056250Y-38238750D02*
X68262500Y-39032500D01*
X69056250Y-33337500D02*
X69056250Y-38238750D01*
X70505000Y-26055000D02*
X70505000Y-31888750D01*
X68262500Y-39032500D02*
X55962104Y-39032500D01*
X70505000Y-31888750D02*
X69056250Y-33337500D01*
X65246250Y-20796250D02*
X70505000Y-26055000D01*
%TO.N,COL11*%
X55525000Y-53438728D02*
X56039772Y-53953500D01*
X70326250Y-38417500D02*
X69261250Y-39482500D01*
X56148500Y-39482500D02*
X55525000Y-40106000D01*
X69261250Y-39482500D02*
X56148500Y-39482500D01*
X56039772Y-53953500D02*
X235246000Y-53953500D01*
X70326250Y-34607500D02*
X70326250Y-38417500D01*
X235246000Y-53953500D02*
X243840000Y-62547500D01*
X55525000Y-40106000D02*
X55525000Y-53438728D01*
%TD*%
%TA.AperFunction,Conductor*%
%TO.N,GND*%
G36*
X56366780Y-19923671D02*
G01*
X56411240Y-20025030D01*
X56536037Y-20216047D01*
X56536355Y-20216392D01*
X56536357Y-20216395D01*
X56553418Y-20234928D01*
X56690573Y-20383917D01*
X56870631Y-20524061D01*
X56994723Y-20591216D01*
X56999129Y-20595443D01*
X57000750Y-20601330D01*
X57000750Y-25260976D01*
X57000473Y-25263485D01*
X56998734Y-25271260D01*
X56998733Y-25271268D01*
X56998577Y-25271967D01*
X56998599Y-25272685D01*
X56998599Y-25272691D01*
X57000744Y-25340923D01*
X57000750Y-25341284D01*
X57000750Y-25370650D01*
X57000794Y-25371002D01*
X57000795Y-25371010D01*
X57001917Y-25379891D01*
X57002002Y-25380971D01*
X57003259Y-25420978D01*
X57003541Y-25429927D01*
X57003741Y-25430616D01*
X57003742Y-25430621D01*
X57011599Y-25457663D01*
X57011965Y-25459430D01*
X57015494Y-25487368D01*
X57015495Y-25487372D01*
X57015586Y-25488092D01*
X57015853Y-25488766D01*
X57015854Y-25488770D01*
X57033615Y-25533629D01*
X57033965Y-25534651D01*
X57047632Y-25581690D01*
X57047997Y-25582308D01*
X57047998Y-25582309D01*
X57062337Y-25606556D01*
X57063130Y-25608176D01*
X57073496Y-25634357D01*
X57073498Y-25634361D01*
X57073764Y-25635032D01*
X57074190Y-25635618D01*
X57074191Y-25635620D01*
X57102553Y-25674659D01*
X57103147Y-25675564D01*
X57127709Y-25717094D01*
X57127712Y-25717098D01*
X57128080Y-25717720D01*
X57128588Y-25718227D01*
X57128588Y-25718228D01*
X57148503Y-25738143D01*
X57149675Y-25739515D01*
X57166656Y-25762887D01*
X57204389Y-25794102D01*
X57205190Y-25794830D01*
X57404879Y-25994520D01*
X57404881Y-25994522D01*
X57404886Y-25994526D01*
X63416082Y-32005723D01*
X63419450Y-32013855D01*
X63419450Y-33408684D01*
X63416827Y-33415995D01*
X63410155Y-33419971D01*
X63402477Y-33418798D01*
X63261200Y-33342342D01*
X63260752Y-33342188D01*
X63260747Y-33342186D01*
X63045838Y-33268407D01*
X63045829Y-33268404D01*
X63045393Y-33268255D01*
X63044929Y-33268177D01*
X63044927Y-33268177D01*
X62820810Y-33230779D01*
X62820806Y-33230778D01*
X62820335Y-33230700D01*
X62592165Y-33230700D01*
X62591694Y-33230778D01*
X62591689Y-33230779D01*
X62367572Y-33268177D01*
X62367567Y-33268178D01*
X62367107Y-33268255D01*
X62366673Y-33268403D01*
X62366661Y-33268407D01*
X62151752Y-33342186D01*
X62151743Y-33342189D01*
X62151300Y-33342342D01*
X62150881Y-33342568D01*
X62150878Y-33342570D01*
X61951054Y-33450709D01*
X61951044Y-33450715D01*
X61950631Y-33450939D01*
X61950254Y-33451232D01*
X61950250Y-33451235D01*
X61770955Y-33590785D01*
X61770950Y-33590789D01*
X61770573Y-33591083D01*
X61770248Y-33591435D01*
X61770248Y-33591436D01*
X61616357Y-33758604D01*
X61616350Y-33758612D01*
X61616037Y-33758953D01*
X61615778Y-33759349D01*
X61615776Y-33759352D01*
X61491504Y-33949565D01*
X61491502Y-33949569D01*
X61491240Y-33949970D01*
X61491049Y-33950404D01*
X61491047Y-33950409D01*
X61446781Y-34051327D01*
X61440578Y-34057362D01*
X61431922Y-34057362D01*
X61425719Y-34051327D01*
X61381260Y-33949970D01*
X61256463Y-33758953D01*
X61101927Y-33591083D01*
X60921869Y-33450939D01*
X60921449Y-33450712D01*
X60921445Y-33450709D01*
X60727244Y-33345613D01*
X60721200Y-33342342D01*
X60720752Y-33342188D01*
X60720747Y-33342186D01*
X60505838Y-33268407D01*
X60505829Y-33268404D01*
X60505393Y-33268255D01*
X60504929Y-33268177D01*
X60504927Y-33268177D01*
X60280810Y-33230779D01*
X60280806Y-33230778D01*
X60280335Y-33230700D01*
X60052165Y-33230700D01*
X60051694Y-33230778D01*
X60051689Y-33230779D01*
X59827572Y-33268177D01*
X59827567Y-33268178D01*
X59827107Y-33268255D01*
X59826673Y-33268403D01*
X59826661Y-33268407D01*
X59611752Y-33342186D01*
X59611743Y-33342189D01*
X59611300Y-33342342D01*
X59610881Y-33342568D01*
X59610878Y-33342570D01*
X59411054Y-33450709D01*
X59411044Y-33450715D01*
X59410631Y-33450939D01*
X59410254Y-33451232D01*
X59410250Y-33451235D01*
X59230955Y-33590785D01*
X59230950Y-33590789D01*
X59230573Y-33591083D01*
X59230248Y-33591435D01*
X59230248Y-33591436D01*
X59076357Y-33758604D01*
X59076350Y-33758612D01*
X59076037Y-33758953D01*
X59075778Y-33759349D01*
X59075776Y-33759352D01*
X58951504Y-33949565D01*
X58951502Y-33949569D01*
X58951240Y-33949970D01*
X58951049Y-33950404D01*
X58951047Y-33950409D01*
X58906781Y-34051327D01*
X58900578Y-34057362D01*
X58891922Y-34057362D01*
X58885719Y-34051327D01*
X58841260Y-33949970D01*
X58716463Y-33758953D01*
X58561927Y-33591083D01*
X58381869Y-33450939D01*
X58381449Y-33450712D01*
X58381445Y-33450709D01*
X58187244Y-33345613D01*
X58181200Y-33342342D01*
X58180752Y-33342188D01*
X58180747Y-33342186D01*
X57965838Y-33268407D01*
X57965829Y-33268404D01*
X57965393Y-33268255D01*
X57964929Y-33268177D01*
X57964927Y-33268177D01*
X57740810Y-33230779D01*
X57740806Y-33230778D01*
X57740335Y-33230700D01*
X57512165Y-33230700D01*
X57511694Y-33230778D01*
X57511689Y-33230779D01*
X57287572Y-33268177D01*
X57287567Y-33268178D01*
X57287107Y-33268255D01*
X57286673Y-33268403D01*
X57286661Y-33268407D01*
X57071752Y-33342186D01*
X57071743Y-33342189D01*
X57071300Y-33342342D01*
X57070881Y-33342568D01*
X57070878Y-33342570D01*
X56871054Y-33450709D01*
X56871044Y-33450715D01*
X56870631Y-33450939D01*
X56870254Y-33451232D01*
X56870250Y-33451235D01*
X56690955Y-33590785D01*
X56690950Y-33590789D01*
X56690573Y-33591083D01*
X56690248Y-33591435D01*
X56690248Y-33591436D01*
X56536357Y-33758604D01*
X56536350Y-33758612D01*
X56536037Y-33758953D01*
X56535778Y-33759349D01*
X56535776Y-33759352D01*
X56411504Y-33949565D01*
X56411502Y-33949569D01*
X56411240Y-33949970D01*
X56411049Y-33950404D01*
X56411047Y-33950409D01*
X56366781Y-34051327D01*
X56360578Y-34057362D01*
X56351922Y-34057362D01*
X56345719Y-34051327D01*
X56301260Y-33949970D01*
X56176463Y-33758953D01*
X56021927Y-33591083D01*
X55841869Y-33450939D01*
X55841449Y-33450712D01*
X55841445Y-33450709D01*
X55647244Y-33345613D01*
X55641200Y-33342342D01*
X55640752Y-33342188D01*
X55640747Y-33342186D01*
X55425838Y-33268407D01*
X55425829Y-33268404D01*
X55425393Y-33268255D01*
X55424929Y-33268177D01*
X55424927Y-33268177D01*
X55200810Y-33230779D01*
X55200806Y-33230778D01*
X55200335Y-33230700D01*
X54972165Y-33230700D01*
X54971694Y-33230778D01*
X54971689Y-33230779D01*
X54747572Y-33268177D01*
X54747567Y-33268178D01*
X54747107Y-33268255D01*
X54746673Y-33268403D01*
X54746661Y-33268407D01*
X54531752Y-33342186D01*
X54531743Y-33342189D01*
X54531300Y-33342342D01*
X54530881Y-33342568D01*
X54530878Y-33342570D01*
X54331054Y-33450709D01*
X54331044Y-33450715D01*
X54330631Y-33450939D01*
X54330254Y-33451232D01*
X54330250Y-33451235D01*
X54150955Y-33590785D01*
X54150950Y-33590789D01*
X54150573Y-33591083D01*
X54150248Y-33591435D01*
X54150248Y-33591436D01*
X53996357Y-33758604D01*
X53996350Y-33758612D01*
X53996037Y-33758953D01*
X53995778Y-33759349D01*
X53995776Y-33759352D01*
X53871504Y-33949565D01*
X53871502Y-33949569D01*
X53871240Y-33949970D01*
X53871049Y-33950404D01*
X53871047Y-33950409D01*
X53826781Y-34051327D01*
X53820578Y-34057362D01*
X53811922Y-34057362D01*
X53805719Y-34051327D01*
X53761260Y-33949970D01*
X53636463Y-33758953D01*
X53481927Y-33591083D01*
X53301869Y-33450939D01*
X53301449Y-33450712D01*
X53301445Y-33450709D01*
X53107244Y-33345613D01*
X53101200Y-33342342D01*
X53100752Y-33342188D01*
X53100747Y-33342186D01*
X52885838Y-33268407D01*
X52885829Y-33268404D01*
X52885393Y-33268255D01*
X52884929Y-33268177D01*
X52884927Y-33268177D01*
X52660810Y-33230779D01*
X52660806Y-33230778D01*
X52660335Y-33230700D01*
X52432165Y-33230700D01*
X52431694Y-33230778D01*
X52431689Y-33230779D01*
X52207572Y-33268177D01*
X52207567Y-33268178D01*
X52207107Y-33268255D01*
X52206673Y-33268403D01*
X52206661Y-33268407D01*
X51991752Y-33342186D01*
X51991743Y-33342189D01*
X51991300Y-33342342D01*
X51990881Y-33342568D01*
X51990878Y-33342570D01*
X51791054Y-33450709D01*
X51791044Y-33450715D01*
X51790631Y-33450939D01*
X51790254Y-33451232D01*
X51790250Y-33451235D01*
X51610955Y-33590785D01*
X51610950Y-33590789D01*
X51610573Y-33591083D01*
X51610248Y-33591435D01*
X51610248Y-33591436D01*
X51456357Y-33758604D01*
X51456350Y-33758612D01*
X51456037Y-33758953D01*
X51455778Y-33759349D01*
X51455776Y-33759352D01*
X51331504Y-33949565D01*
X51331502Y-33949569D01*
X51331240Y-33949970D01*
X51331049Y-33950404D01*
X51331047Y-33950409D01*
X51286781Y-34051327D01*
X51280578Y-34057362D01*
X51271922Y-34057362D01*
X51265719Y-34051327D01*
X51221260Y-33949970D01*
X51096463Y-33758953D01*
X50941927Y-33591083D01*
X50761869Y-33450939D01*
X50761449Y-33450712D01*
X50761445Y-33450709D01*
X50567244Y-33345613D01*
X50561200Y-33342342D01*
X50560752Y-33342188D01*
X50560747Y-33342186D01*
X50345838Y-33268407D01*
X50345829Y-33268404D01*
X50345393Y-33268255D01*
X50344929Y-33268177D01*
X50344927Y-33268177D01*
X50120810Y-33230779D01*
X50120806Y-33230778D01*
X50120335Y-33230700D01*
X49892165Y-33230700D01*
X49891694Y-33230778D01*
X49891689Y-33230779D01*
X49667572Y-33268177D01*
X49667567Y-33268178D01*
X49667107Y-33268255D01*
X49666673Y-33268403D01*
X49666661Y-33268407D01*
X49451752Y-33342186D01*
X49451743Y-33342189D01*
X49451300Y-33342342D01*
X49450881Y-33342568D01*
X49450878Y-33342570D01*
X49251054Y-33450709D01*
X49251044Y-33450715D01*
X49250631Y-33450939D01*
X49250254Y-33451232D01*
X49250250Y-33451235D01*
X49070955Y-33590785D01*
X49070950Y-33590789D01*
X49070573Y-33591083D01*
X49070248Y-33591435D01*
X49070248Y-33591436D01*
X48916357Y-33758604D01*
X48916350Y-33758612D01*
X48916037Y-33758953D01*
X48915778Y-33759349D01*
X48915776Y-33759352D01*
X48791504Y-33949565D01*
X48791502Y-33949569D01*
X48791240Y-33949970D01*
X48791049Y-33950404D01*
X48791047Y-33950409D01*
X48746781Y-34051327D01*
X48740578Y-34057362D01*
X48731922Y-34057362D01*
X48725719Y-34051327D01*
X48681260Y-33949970D01*
X48556463Y-33758953D01*
X48401927Y-33591083D01*
X48221869Y-33450939D01*
X48221449Y-33450712D01*
X48221445Y-33450709D01*
X48027244Y-33345613D01*
X48021200Y-33342342D01*
X48020752Y-33342188D01*
X48020747Y-33342186D01*
X47805838Y-33268407D01*
X47805829Y-33268404D01*
X47805393Y-33268255D01*
X47804929Y-33268177D01*
X47804927Y-33268177D01*
X47580810Y-33230779D01*
X47580806Y-33230778D01*
X47580335Y-33230700D01*
X47352165Y-33230700D01*
X47351694Y-33230778D01*
X47351689Y-33230779D01*
X47127572Y-33268177D01*
X47127567Y-33268178D01*
X47127107Y-33268255D01*
X47126673Y-33268403D01*
X47126661Y-33268407D01*
X46911752Y-33342186D01*
X46911743Y-33342189D01*
X46911300Y-33342342D01*
X46910881Y-33342568D01*
X46910878Y-33342570D01*
X46711054Y-33450709D01*
X46711044Y-33450715D01*
X46710631Y-33450939D01*
X46710254Y-33451232D01*
X46710250Y-33451235D01*
X46530955Y-33590785D01*
X46530950Y-33590789D01*
X46530573Y-33591083D01*
X46530248Y-33591435D01*
X46530248Y-33591436D01*
X46376357Y-33758604D01*
X46376350Y-33758612D01*
X46376037Y-33758953D01*
X46375778Y-33759349D01*
X46375776Y-33759352D01*
X46251501Y-33949569D01*
X46251496Y-33949577D01*
X46251240Y-33949970D01*
X46251051Y-33950398D01*
X46251048Y-33950406D01*
X46206506Y-34051950D01*
X46200302Y-34057985D01*
X46191647Y-34057985D01*
X46185444Y-34051949D01*
X46141012Y-33950653D01*
X46140553Y-33949804D01*
X46061252Y-33828424D01*
X46060251Y-33827588D01*
X46059101Y-33828200D01*
X45281420Y-34605882D01*
X45280750Y-34607500D01*
X45281420Y-34609117D01*
X46059101Y-35386798D01*
X46060251Y-35387410D01*
X46061252Y-35386574D01*
X46140553Y-35265195D01*
X46141012Y-35264346D01*
X46185444Y-35163049D01*
X46191647Y-35157013D01*
X46200302Y-35157013D01*
X46206506Y-35163048D01*
X46251048Y-35264593D01*
X46251240Y-35265030D01*
X46376037Y-35456047D01*
X46530573Y-35623917D01*
X46530955Y-35624214D01*
X46625980Y-35698175D01*
X46629939Y-35703969D01*
X46629794Y-35710984D01*
X46625599Y-35716609D01*
X46618917Y-35718750D01*
X45683947Y-35718750D01*
X44927867Y-34962670D01*
X44926250Y-34962000D01*
X44924632Y-34962670D01*
X44168553Y-35718750D01*
X43233583Y-35718750D01*
X43226901Y-35716609D01*
X43222706Y-35710984D01*
X43222561Y-35703969D01*
X43226520Y-35698175D01*
X43251823Y-35678481D01*
X43321927Y-35623917D01*
X43476463Y-35456047D01*
X43601260Y-35265030D01*
X43645993Y-35163047D01*
X43652195Y-35157013D01*
X43660851Y-35157013D01*
X43667054Y-35163049D01*
X43711487Y-35264346D01*
X43711946Y-35265195D01*
X43791246Y-35386574D01*
X43792247Y-35387410D01*
X43793397Y-35386798D01*
X44571626Y-34608570D01*
X44572244Y-34607500D01*
X44571626Y-34606429D01*
X43793397Y-33828200D01*
X43792247Y-33827588D01*
X43791246Y-33828424D01*
X43711943Y-33949808D01*
X43711490Y-33950645D01*
X43667053Y-34051950D01*
X43660849Y-34057985D01*
X43652194Y-34057985D01*
X43645992Y-34051950D01*
X43601260Y-33949970D01*
X43476463Y-33758953D01*
X43321927Y-33591083D01*
X43169018Y-33472070D01*
X44144877Y-33472070D01*
X44145494Y-33473191D01*
X44925179Y-34252876D01*
X44926250Y-34253494D01*
X44927320Y-34252876D01*
X45707004Y-33473191D01*
X45707621Y-33472069D01*
X45706870Y-33471032D01*
X45681971Y-33451652D01*
X45681172Y-33451130D01*
X45481419Y-33343029D01*
X45480545Y-33342645D01*
X45265715Y-33268894D01*
X45264804Y-33268664D01*
X45040768Y-33231279D01*
X45039812Y-33231200D01*
X44812688Y-33231200D01*
X44811731Y-33231279D01*
X44587695Y-33268664D01*
X44586784Y-33268894D01*
X44371954Y-33342645D01*
X44371080Y-33343029D01*
X44171328Y-33451129D01*
X44170524Y-33451655D01*
X44145630Y-33471030D01*
X44144877Y-33472070D01*
X43169018Y-33472070D01*
X43141869Y-33450939D01*
X43141449Y-33450712D01*
X43141445Y-33450709D01*
X42947244Y-33345613D01*
X42941200Y-33342342D01*
X42940752Y-33342188D01*
X42940747Y-33342186D01*
X42725838Y-33268407D01*
X42725829Y-33268404D01*
X42725393Y-33268255D01*
X42724929Y-33268177D01*
X42724927Y-33268177D01*
X42500810Y-33230779D01*
X42500806Y-33230778D01*
X42500335Y-33230700D01*
X42272165Y-33230700D01*
X42271694Y-33230778D01*
X42271689Y-33230779D01*
X42047572Y-33268177D01*
X42047567Y-33268178D01*
X42047107Y-33268255D01*
X42046673Y-33268403D01*
X42046661Y-33268407D01*
X41831752Y-33342186D01*
X41831743Y-33342189D01*
X41831300Y-33342342D01*
X41830881Y-33342568D01*
X41830878Y-33342570D01*
X41631054Y-33450709D01*
X41631044Y-33450715D01*
X41630631Y-33450939D01*
X41630254Y-33451232D01*
X41630250Y-33451235D01*
X41450955Y-33590785D01*
X41450950Y-33590789D01*
X41450573Y-33591083D01*
X41450248Y-33591435D01*
X41450248Y-33591436D01*
X41296357Y-33758604D01*
X41296350Y-33758612D01*
X41296037Y-33758953D01*
X41295778Y-33759349D01*
X41295776Y-33759352D01*
X41171504Y-33949565D01*
X41171502Y-33949569D01*
X41171240Y-33949970D01*
X41171046Y-33950411D01*
X41171045Y-33950414D01*
X41079778Y-34158483D01*
X41079775Y-34158488D01*
X41079586Y-34158922D01*
X41079469Y-34159380D01*
X41079469Y-34159383D01*
X41023690Y-34379645D01*
X41023689Y-34379650D01*
X41023573Y-34380109D01*
X41023534Y-34380572D01*
X41023533Y-34380582D01*
X41004865Y-34605882D01*
X41004731Y-34607500D01*
X41004770Y-34607971D01*
X41023533Y-34834417D01*
X41023534Y-34834425D01*
X41023573Y-34834891D01*
X41023689Y-34835351D01*
X41023690Y-34835354D01*
X41076602Y-35044293D01*
X41079586Y-35056078D01*
X41171240Y-35265030D01*
X41171504Y-35265434D01*
X41204303Y-35315637D01*
X41206149Y-35322721D01*
X41203345Y-35329483D01*
X41197029Y-35333184D01*
X41189759Y-35332323D01*
X41008672Y-35246675D01*
X41007677Y-35246143D01*
X40671956Y-35044920D01*
X40671017Y-35044293D01*
X40423899Y-34861018D01*
X40420478Y-34856952D01*
X40419250Y-34851781D01*
X40419250Y-33200696D01*
X40917250Y-33200696D01*
X41029619Y-33313065D01*
X41084183Y-33253795D01*
X41084514Y-33253451D01*
X41112402Y-33225574D01*
X41112746Y-33225243D01*
X41114144Y-33223957D01*
X41114499Y-33223644D01*
X41144329Y-33198388D01*
X41144697Y-33198090D01*
X41324755Y-33057946D01*
X41325135Y-33057662D01*
X41357049Y-33034874D01*
X41357441Y-33034606D01*
X41359031Y-33033567D01*
X41359435Y-33033315D01*
X41393195Y-33013196D01*
X41393609Y-33012961D01*
X41594278Y-32904364D01*
X41594700Y-32904147D01*
X41629928Y-32886923D01*
X41630358Y-32886723D01*
X41632097Y-32885960D01*
X41632537Y-32885778D01*
X41669152Y-32871489D01*
X41669599Y-32871325D01*
X41749400Y-32843928D01*
X41863461Y-32729867D01*
X42567741Y-32729867D01*
X42576650Y-32738776D01*
X42581832Y-32739423D01*
X42582302Y-32739492D01*
X42807360Y-32777047D01*
X42807826Y-32777135D01*
X42846203Y-32785180D01*
X42846666Y-32785287D01*
X42848507Y-32785753D01*
X42848966Y-32785879D01*
X42886641Y-32797093D01*
X42887094Y-32797238D01*
X43102901Y-32871325D01*
X43103348Y-32871489D01*
X43139963Y-32885778D01*
X43140403Y-32885960D01*
X43142142Y-32886723D01*
X43142572Y-32886923D01*
X43177800Y-32904147D01*
X43178222Y-32904364D01*
X43378891Y-33012961D01*
X43379305Y-33013196D01*
X43413065Y-33033315D01*
X43413469Y-33033567D01*
X43415059Y-33034606D01*
X43415451Y-33034874D01*
X43447365Y-33057662D01*
X43447745Y-33057946D01*
X43565247Y-33149401D01*
X43984781Y-32729868D01*
X44689062Y-32729868D01*
X44703626Y-32744432D01*
X44730239Y-32739992D01*
X44730709Y-32739923D01*
X44769631Y-32735070D01*
X44770103Y-32735021D01*
X44771996Y-32734864D01*
X44772471Y-32734835D01*
X44811731Y-32733210D01*
X44812207Y-32733200D01*
X45040293Y-32733200D01*
X45040769Y-32733210D01*
X45080029Y-32734835D01*
X45080504Y-32734864D01*
X45082397Y-32735021D01*
X45082869Y-32735070D01*
X45121791Y-32739923D01*
X45122261Y-32739992D01*
X45347238Y-32777534D01*
X45347705Y-32777622D01*
X45386081Y-32785667D01*
X45386543Y-32785774D01*
X45388384Y-32786240D01*
X45388843Y-32786366D01*
X45426516Y-32797579D01*
X45426969Y-32797724D01*
X45642697Y-32871783D01*
X45643144Y-32871947D01*
X45679761Y-32886237D01*
X45680201Y-32886419D01*
X45681940Y-32887182D01*
X45682370Y-32887382D01*
X45717598Y-32904606D01*
X45718020Y-32904823D01*
X45856308Y-32979661D01*
X46106101Y-32729868D01*
X46810382Y-32729868D01*
X46900153Y-32819639D01*
X46965406Y-32797238D01*
X46965859Y-32797093D01*
X47003534Y-32785879D01*
X47003993Y-32785753D01*
X47005834Y-32785287D01*
X47006297Y-32785180D01*
X47044674Y-32777135D01*
X47045140Y-32777047D01*
X47270198Y-32739492D01*
X47270668Y-32739423D01*
X47309589Y-32734570D01*
X47310061Y-32734521D01*
X47311954Y-32734364D01*
X47312429Y-32734335D01*
X47351689Y-32732710D01*
X47352165Y-32732700D01*
X47580335Y-32732700D01*
X47580811Y-32732710D01*
X47620071Y-32734335D01*
X47620546Y-32734364D01*
X47622439Y-32734521D01*
X47622911Y-32734570D01*
X47661832Y-32739423D01*
X47662302Y-32739492D01*
X47887360Y-32777047D01*
X47887826Y-32777135D01*
X47926203Y-32785180D01*
X47926666Y-32785287D01*
X47928507Y-32785753D01*
X47928966Y-32785879D01*
X47966641Y-32797093D01*
X47967094Y-32797238D01*
X48110739Y-32846551D01*
X48227422Y-32729867D01*
X48931702Y-32729867D01*
X49144149Y-32942314D01*
X49214278Y-32904364D01*
X49214700Y-32904147D01*
X49249928Y-32886923D01*
X49250358Y-32886723D01*
X49252097Y-32885960D01*
X49252537Y-32885778D01*
X49289152Y-32871489D01*
X49289599Y-32871325D01*
X49505406Y-32797238D01*
X49505859Y-32797093D01*
X49543534Y-32785879D01*
X49543993Y-32785753D01*
X49545834Y-32785287D01*
X49546297Y-32785180D01*
X49584674Y-32777135D01*
X49585140Y-32777047D01*
X49810198Y-32739492D01*
X49810668Y-32739423D01*
X49849589Y-32734570D01*
X49850061Y-32734521D01*
X49851954Y-32734364D01*
X49852429Y-32734335D01*
X49891689Y-32732710D01*
X49892165Y-32732700D01*
X50120335Y-32732700D01*
X50120811Y-32732710D01*
X50160071Y-32734335D01*
X50160546Y-32734364D01*
X50162439Y-32734521D01*
X50162911Y-32734570D01*
X50201832Y-32739423D01*
X50202302Y-32739492D01*
X50319553Y-32759057D01*
X50348742Y-32729868D01*
X51053023Y-32729868D01*
X51426467Y-33103312D01*
X51484755Y-33057946D01*
X51485135Y-33057662D01*
X51517049Y-33034874D01*
X51517441Y-33034606D01*
X51519031Y-33033567D01*
X51519435Y-33033315D01*
X51553195Y-33013196D01*
X51553609Y-33012961D01*
X51754278Y-32904364D01*
X51754700Y-32904147D01*
X51789928Y-32886923D01*
X51790358Y-32886723D01*
X51792097Y-32885960D01*
X51792537Y-32885778D01*
X51829152Y-32871489D01*
X51829599Y-32871325D01*
X52045406Y-32797238D01*
X52045859Y-32797093D01*
X52083534Y-32785879D01*
X52083993Y-32785753D01*
X52085834Y-32785287D01*
X52086297Y-32785180D01*
X52124674Y-32777135D01*
X52125140Y-32777047D01*
X52350198Y-32739492D01*
X52350668Y-32739423D01*
X52389589Y-32734570D01*
X52390061Y-32734521D01*
X52391954Y-32734364D01*
X52392429Y-32734335D01*
X52431689Y-32732710D01*
X52432165Y-32732700D01*
X52467232Y-32732700D01*
X52470064Y-32729867D01*
X53174343Y-32729867D01*
X53361363Y-32916887D01*
X53538891Y-33012961D01*
X53539305Y-33013196D01*
X53573065Y-33033315D01*
X53573469Y-33033567D01*
X53575059Y-33034606D01*
X53575451Y-33034874D01*
X53607365Y-33057662D01*
X53607745Y-33057946D01*
X53787803Y-33198090D01*
X53788171Y-33198388D01*
X53816250Y-33222161D01*
X53844329Y-33198388D01*
X53844697Y-33198090D01*
X54024755Y-33057946D01*
X54025135Y-33057662D01*
X54057049Y-33034874D01*
X54057441Y-33034606D01*
X54059031Y-33033567D01*
X54059435Y-33033315D01*
X54093195Y-33013196D01*
X54093609Y-33012961D01*
X54294278Y-32904364D01*
X54294700Y-32904147D01*
X54329928Y-32886923D01*
X54330358Y-32886723D01*
X54332097Y-32885960D01*
X54332537Y-32885778D01*
X54369152Y-32871489D01*
X54369599Y-32871325D01*
X54491919Y-32829331D01*
X54591383Y-32729867D01*
X55295663Y-32729867D01*
X55309891Y-32744095D01*
X55507360Y-32777047D01*
X55507826Y-32777135D01*
X55546203Y-32785180D01*
X55546666Y-32785287D01*
X55548507Y-32785753D01*
X55548966Y-32785879D01*
X55586641Y-32797093D01*
X55587094Y-32797238D01*
X55802901Y-32871325D01*
X55803348Y-32871489D01*
X55839963Y-32885778D01*
X55840403Y-32885960D01*
X55842142Y-32886723D01*
X55842572Y-32886923D01*
X55877800Y-32904147D01*
X55878222Y-32904364D01*
X56078891Y-33012961D01*
X56079305Y-33013196D01*
X56113065Y-33033315D01*
X56113469Y-33033567D01*
X56115059Y-33034606D01*
X56115451Y-33034874D01*
X56147365Y-33057662D01*
X56147745Y-33057946D01*
X56280948Y-33161622D01*
X56712703Y-32729868D01*
X57416984Y-32729868D01*
X57427121Y-32740005D01*
X57430199Y-32739492D01*
X57430668Y-32739423D01*
X57469589Y-32734570D01*
X57470061Y-32734521D01*
X57471954Y-32734364D01*
X57472429Y-32734335D01*
X57511689Y-32732710D01*
X57512165Y-32732700D01*
X57740335Y-32732700D01*
X57740811Y-32732710D01*
X57780071Y-32734335D01*
X57780546Y-32734364D01*
X57782439Y-32734521D01*
X57782911Y-32734570D01*
X57821832Y-32739423D01*
X57822302Y-32739492D01*
X58047360Y-32777047D01*
X58047826Y-32777135D01*
X58086203Y-32785180D01*
X58086666Y-32785287D01*
X58088507Y-32785753D01*
X58088966Y-32785879D01*
X58126641Y-32797093D01*
X58127094Y-32797238D01*
X58342901Y-32871325D01*
X58343348Y-32871489D01*
X58379963Y-32885778D01*
X58380403Y-32885960D01*
X58382142Y-32886723D01*
X58382572Y-32886923D01*
X58417800Y-32904147D01*
X58418222Y-32904364D01*
X58574795Y-32989096D01*
X58834024Y-32729867D01*
X59538304Y-32729867D01*
X59620940Y-32812503D01*
X59665406Y-32797238D01*
X59665859Y-32797093D01*
X59703534Y-32785879D01*
X59703993Y-32785753D01*
X59705834Y-32785287D01*
X59706297Y-32785180D01*
X59744674Y-32777135D01*
X59745140Y-32777047D01*
X59970198Y-32739492D01*
X59970668Y-32739423D01*
X60009589Y-32734570D01*
X60010061Y-32734521D01*
X60011954Y-32734364D01*
X60012429Y-32734335D01*
X60051689Y-32732710D01*
X60052165Y-32732700D01*
X60280335Y-32732700D01*
X60280811Y-32732710D01*
X60320071Y-32734335D01*
X60320546Y-32734364D01*
X60322439Y-32734521D01*
X60322911Y-32734570D01*
X60361832Y-32739423D01*
X60362302Y-32739492D01*
X60587360Y-32777047D01*
X60587826Y-32777135D01*
X60626203Y-32785180D01*
X60626666Y-32785287D01*
X60628507Y-32785753D01*
X60628966Y-32785879D01*
X60666641Y-32797093D01*
X60667094Y-32797238D01*
X60831525Y-32853687D01*
X60955344Y-32729867D01*
X61659624Y-32729867D01*
X61862267Y-32932510D01*
X61914278Y-32904364D01*
X61914700Y-32904147D01*
X61949928Y-32886923D01*
X61950358Y-32886723D01*
X61952097Y-32885960D01*
X61952537Y-32885778D01*
X61989152Y-32871489D01*
X61989599Y-32871325D01*
X62205406Y-32797238D01*
X62205859Y-32797093D01*
X62243534Y-32785879D01*
X62243993Y-32785753D01*
X62245834Y-32785287D01*
X62246297Y-32785180D01*
X62284674Y-32777135D01*
X62285140Y-32777047D01*
X62510198Y-32739492D01*
X62510668Y-32739423D01*
X62549589Y-32734570D01*
X62550061Y-32734521D01*
X62551954Y-32734364D01*
X62552429Y-32734335D01*
X62591689Y-32732710D01*
X62592165Y-32732700D01*
X62820335Y-32732700D01*
X62820811Y-32732710D01*
X62860071Y-32734335D01*
X62860546Y-32734364D01*
X62862439Y-32734521D01*
X62862911Y-32734570D01*
X62901832Y-32739423D01*
X62902302Y-32739492D01*
X62921450Y-32742687D01*
X62921450Y-32574652D01*
X62368145Y-32021347D01*
X61659624Y-32729867D01*
X60955344Y-32729867D01*
X60246825Y-32021347D01*
X59538304Y-32729867D01*
X58834024Y-32729867D01*
X58125504Y-32021347D01*
X57416984Y-32729868D01*
X56712703Y-32729868D01*
X56712704Y-32729867D01*
X56004184Y-32021347D01*
X55295663Y-32729867D01*
X54591383Y-32729867D01*
X53882864Y-32021347D01*
X53174343Y-32729867D01*
X52470064Y-32729867D01*
X51761543Y-32021347D01*
X51053023Y-32729868D01*
X50348742Y-32729868D01*
X50348743Y-32729867D01*
X49640223Y-32021347D01*
X48931702Y-32729867D01*
X48227422Y-32729867D01*
X47518902Y-32021347D01*
X46810382Y-32729868D01*
X46106101Y-32729868D01*
X46106102Y-32729867D01*
X45397582Y-32021347D01*
X44689062Y-32729868D01*
X43984781Y-32729868D01*
X43984782Y-32729867D01*
X43276262Y-32021347D01*
X42567741Y-32729867D01*
X41863461Y-32729867D01*
X41154941Y-32021347D01*
X40917250Y-32259039D01*
X40917250Y-33200696D01*
X40419250Y-33200696D01*
X40419250Y-31669207D01*
X41507081Y-31669207D01*
X42215602Y-32377728D01*
X42924122Y-31669207D01*
X43628401Y-31669207D01*
X44336922Y-32377728D01*
X45045442Y-31669207D01*
X45749722Y-31669207D01*
X46458242Y-32377728D01*
X47166763Y-31669207D01*
X47871042Y-31669207D01*
X48579563Y-32377728D01*
X49288083Y-31669207D01*
X49992362Y-31669207D01*
X50700883Y-32377728D01*
X51409403Y-31669207D01*
X52113683Y-31669207D01*
X52822203Y-32377728D01*
X53530724Y-31669207D01*
X54235003Y-31669207D01*
X54943524Y-32377728D01*
X55652044Y-31669207D01*
X56356323Y-31669207D01*
X57064844Y-32377728D01*
X57773364Y-31669207D01*
X58477644Y-31669207D01*
X59186164Y-32377728D01*
X59894685Y-31669207D01*
X60598964Y-31669207D01*
X61307485Y-32377728D01*
X62016005Y-31669207D01*
X61307485Y-30960687D01*
X60598964Y-31669207D01*
X59894685Y-31669207D01*
X59186164Y-30960687D01*
X58477644Y-31669207D01*
X57773364Y-31669207D01*
X57064844Y-30960687D01*
X56356323Y-31669207D01*
X55652044Y-31669207D01*
X54943524Y-30960687D01*
X54235003Y-31669207D01*
X53530724Y-31669207D01*
X52822203Y-30960687D01*
X52113683Y-31669207D01*
X51409403Y-31669207D01*
X50700883Y-30960687D01*
X49992362Y-31669207D01*
X49288083Y-31669207D01*
X48579563Y-30960687D01*
X47871042Y-31669207D01*
X47166763Y-31669207D01*
X46458242Y-30960687D01*
X45749722Y-31669207D01*
X45045442Y-31669207D01*
X44336922Y-30960687D01*
X43628401Y-31669207D01*
X42924122Y-31669207D01*
X42215602Y-30960687D01*
X41507081Y-31669207D01*
X40419250Y-31669207D01*
X40419250Y-31079376D01*
X40917250Y-31079376D01*
X41154942Y-31317068D01*
X41863462Y-30608547D01*
X42567741Y-30608547D01*
X43276262Y-31317068D01*
X43984782Y-30608547D01*
X44689062Y-30608547D01*
X45397582Y-31317068D01*
X46106103Y-30608547D01*
X46810382Y-30608547D01*
X47518902Y-31317068D01*
X48227423Y-30608547D01*
X48931702Y-30608547D01*
X49640223Y-31317068D01*
X50348743Y-30608547D01*
X51053023Y-30608547D01*
X51761543Y-31317068D01*
X52470064Y-30608547D01*
X53174343Y-30608547D01*
X53882864Y-31317068D01*
X54591384Y-30608547D01*
X55295663Y-30608547D01*
X56004184Y-31317068D01*
X56712704Y-30608547D01*
X57416984Y-30608547D01*
X58125504Y-31317068D01*
X58834025Y-30608547D01*
X59538304Y-30608547D01*
X60246825Y-31317068D01*
X60955345Y-30608547D01*
X60246825Y-29900027D01*
X59538304Y-30608547D01*
X58834025Y-30608547D01*
X58125504Y-29900027D01*
X57416984Y-30608547D01*
X56712704Y-30608547D01*
X56004184Y-29900027D01*
X55295663Y-30608547D01*
X54591384Y-30608547D01*
X53882864Y-29900027D01*
X53174343Y-30608547D01*
X52470064Y-30608547D01*
X51761543Y-29900027D01*
X51053023Y-30608547D01*
X50348743Y-30608547D01*
X49640223Y-29900027D01*
X48931702Y-30608547D01*
X48227423Y-30608547D01*
X47518902Y-29900027D01*
X46810382Y-30608547D01*
X46106103Y-30608547D01*
X45397582Y-29900027D01*
X44689062Y-30608547D01*
X43984782Y-30608547D01*
X43276262Y-29900027D01*
X42567741Y-30608547D01*
X41863462Y-30608547D01*
X41154941Y-29900027D01*
X40917250Y-30137719D01*
X40917250Y-31079376D01*
X40419250Y-31079376D01*
X40419250Y-29547887D01*
X41507081Y-29547887D01*
X42215602Y-30256407D01*
X42924122Y-29547887D01*
X43628401Y-29547887D01*
X44336922Y-30256407D01*
X45045442Y-29547887D01*
X45749722Y-29547887D01*
X46458242Y-30256407D01*
X47010453Y-29704195D01*
X48027351Y-29704195D01*
X48579563Y-30256407D01*
X49288084Y-29547887D01*
X49992362Y-29547887D01*
X50700883Y-30256407D01*
X51409403Y-29547887D01*
X52113683Y-29547887D01*
X52822203Y-30256407D01*
X53530724Y-29547887D01*
X54235003Y-29547887D01*
X54943524Y-30256407D01*
X55652044Y-29547887D01*
X56356323Y-29547887D01*
X57064844Y-30256407D01*
X57773364Y-29547887D01*
X58477644Y-29547887D01*
X59186164Y-30256407D01*
X59894685Y-29547887D01*
X59186164Y-28839366D01*
X58477644Y-29547887D01*
X57773364Y-29547887D01*
X57064844Y-28839366D01*
X56356323Y-29547887D01*
X55652044Y-29547887D01*
X54943524Y-28839366D01*
X54235003Y-29547887D01*
X53530724Y-29547887D01*
X52822203Y-28839366D01*
X52113683Y-29547887D01*
X51409403Y-29547887D01*
X50700883Y-28839366D01*
X49992362Y-29547887D01*
X49288084Y-29547887D01*
X49065334Y-29325137D01*
X49053184Y-29333479D01*
X49052865Y-29333690D01*
X49026240Y-29350693D01*
X49025914Y-29350894D01*
X49024593Y-29351677D01*
X49024257Y-29351868D01*
X48996288Y-29367201D01*
X48995947Y-29367381D01*
X48727755Y-29502905D01*
X48727409Y-29503073D01*
X48698611Y-29516437D01*
X48698259Y-29516593D01*
X48696844Y-29517193D01*
X48696488Y-29517337D01*
X48666867Y-29528745D01*
X48666506Y-29528877D01*
X48382642Y-29627445D01*
X48382278Y-29627564D01*
X48352050Y-29636944D01*
X48351682Y-29637052D01*
X48350201Y-29637458D01*
X48349828Y-29637553D01*
X48318858Y-29644937D01*
X48318482Y-29645021D01*
X48027351Y-29704195D01*
X47010453Y-29704195D01*
X47043115Y-29671533D01*
X46755564Y-29592765D01*
X46755194Y-29592658D01*
X46724832Y-29583238D01*
X46724467Y-29583117D01*
X46723016Y-29582613D01*
X46722655Y-29582481D01*
X46693075Y-29571087D01*
X46692720Y-29570943D01*
X46416074Y-29453635D01*
X46415726Y-29453481D01*
X46387252Y-29440280D01*
X46386910Y-29440115D01*
X46385538Y-29439423D01*
X46385194Y-29439242D01*
X46357035Y-29423825D01*
X46356697Y-29423633D01*
X46098156Y-29270499D01*
X46097826Y-29270296D01*
X46070872Y-29253079D01*
X46070550Y-29252865D01*
X46069284Y-29251995D01*
X46068973Y-29251774D01*
X46055653Y-29241955D01*
X45749722Y-29547887D01*
X45045442Y-29547887D01*
X44336922Y-28839366D01*
X43628401Y-29547887D01*
X42924122Y-29547887D01*
X42215602Y-28839366D01*
X41507081Y-29547887D01*
X40419250Y-29547887D01*
X40419250Y-28958056D01*
X40917250Y-28958056D01*
X41154941Y-29195747D01*
X41745720Y-28604969D01*
X42685484Y-28604969D01*
X43276262Y-29195747D01*
X43984782Y-28487227D01*
X44689062Y-28487227D01*
X45397582Y-29195747D01*
X45676135Y-28917194D01*
X45549250Y-28785996D01*
X45548988Y-28785716D01*
X45527738Y-28762226D01*
X45527485Y-28761937D01*
X45526493Y-28760764D01*
X45526249Y-28760465D01*
X45506532Y-28735499D01*
X45506299Y-28735194D01*
X45328055Y-28493279D01*
X45327833Y-28492966D01*
X45309910Y-28466862D01*
X45309698Y-28466543D01*
X45308871Y-28465248D01*
X45308669Y-28464919D01*
X45292449Y-28437539D01*
X45292258Y-28437205D01*
X45147848Y-28173690D01*
X45147669Y-28173350D01*
X45133365Y-28145047D01*
X45133198Y-28144701D01*
X45132551Y-28143307D01*
X45132395Y-28142956D01*
X45119990Y-28113703D01*
X45119845Y-28113346D01*
X45104023Y-28072265D01*
X44689062Y-28487227D01*
X43984782Y-28487227D01*
X43666132Y-28168577D01*
X43633483Y-28196873D01*
X43633060Y-28197223D01*
X43464102Y-28330093D01*
X43463664Y-28330420D01*
X43426866Y-28356626D01*
X43426413Y-28356933D01*
X43424574Y-28358115D01*
X43424106Y-28358400D01*
X43384936Y-28381016D01*
X43384456Y-28381279D01*
X43193406Y-28479772D01*
X43192912Y-28480011D01*
X43151666Y-28498840D01*
X43151161Y-28499056D01*
X43149131Y-28499868D01*
X43148620Y-28500059D01*
X43106032Y-28514792D01*
X43105512Y-28514958D01*
X42899274Y-28575515D01*
X42898746Y-28575657D01*
X42854859Y-28586306D01*
X42854324Y-28586422D01*
X42852177Y-28586836D01*
X42851637Y-28586927D01*
X42806853Y-28593368D01*
X42806309Y-28593433D01*
X42685484Y-28604969D01*
X41745720Y-28604969D01*
X41863462Y-28487227D01*
X41821912Y-28445677D01*
X41800157Y-28435740D01*
X41799664Y-28435501D01*
X41797721Y-28434499D01*
X41797241Y-28434237D01*
X41758147Y-28411663D01*
X41757681Y-28411378D01*
X41576858Y-28295170D01*
X41576406Y-28294865D01*
X41539698Y-28268734D01*
X41539261Y-28268407D01*
X41537542Y-28267056D01*
X41537118Y-28266706D01*
X41502845Y-28237017D01*
X41502439Y-28236648D01*
X41346876Y-28088320D01*
X41346490Y-28087934D01*
X41315352Y-28055284D01*
X41314984Y-28054880D01*
X41313552Y-28053228D01*
X41313203Y-28052805D01*
X41285203Y-28017207D01*
X41284874Y-28016768D01*
X41160194Y-27841679D01*
X41159887Y-27841224D01*
X41135402Y-27803115D01*
X41135117Y-27802647D01*
X41134024Y-27800753D01*
X41133762Y-27800273D01*
X41133630Y-27800017D01*
X40917250Y-28016399D01*
X40917250Y-28958056D01*
X40419250Y-28958056D01*
X40419250Y-26933703D01*
X41415661Y-26933703D01*
X41415687Y-26934248D01*
X41415687Y-26934249D01*
X41425861Y-27147857D01*
X41425862Y-27147866D01*
X41425888Y-27148404D01*
X41426014Y-27148926D01*
X41426016Y-27148935D01*
X41465388Y-27311225D01*
X41476563Y-27357290D01*
X41476789Y-27357786D01*
X41476791Y-27357790D01*
X41565628Y-27552317D01*
X41565632Y-27552324D01*
X41565854Y-27552810D01*
X41690534Y-27727899D01*
X41690929Y-27728276D01*
X41690932Y-27728279D01*
X41704210Y-27740939D01*
X41846097Y-27876227D01*
X42026920Y-27992435D01*
X42226468Y-28072322D01*
X42437528Y-28113000D01*
X42598345Y-28113000D01*
X42598618Y-28113000D01*
X42758971Y-28097688D01*
X42965209Y-28037131D01*
X43156259Y-27938638D01*
X43325217Y-27805768D01*
X43358383Y-27767492D01*
X43969327Y-27767492D01*
X44336922Y-28135087D01*
X44936416Y-27535592D01*
X44922476Y-27477091D01*
X44922393Y-27476713D01*
X44916043Y-27445440D01*
X44915973Y-27445061D01*
X44915718Y-27443546D01*
X44915660Y-27443168D01*
X44911457Y-27411873D01*
X44911413Y-27411493D01*
X44898106Y-27279230D01*
X44336921Y-26718046D01*
X44165663Y-26889304D01*
X44171775Y-27017603D01*
X44171788Y-27018150D01*
X44171788Y-27063343D01*
X44171775Y-27063890D01*
X44171671Y-27066074D01*
X44171632Y-27066620D01*
X44167335Y-27111625D01*
X44167270Y-27112169D01*
X44136681Y-27324926D01*
X44136590Y-27325465D01*
X44128049Y-27369796D01*
X44127933Y-27370330D01*
X44127418Y-27372454D01*
X44127276Y-27372983D01*
X44114527Y-27416412D01*
X44114361Y-27416934D01*
X44044059Y-27620057D01*
X44043867Y-27620572D01*
X44027013Y-27662654D01*
X44026796Y-27663158D01*
X44025887Y-27665147D01*
X44025649Y-27665638D01*
X44004990Y-27705698D01*
X44004728Y-27706177D01*
X43969327Y-27767492D01*
X43358383Y-27767492D01*
X43465976Y-27643324D01*
X43573448Y-27457177D01*
X43643750Y-27254054D01*
X43674339Y-27041297D01*
X43664112Y-26826596D01*
X43613437Y-26617710D01*
X43578345Y-26540870D01*
X43524371Y-26422682D01*
X43524369Y-26422679D01*
X43524146Y-26422190D01*
X43399466Y-26247101D01*
X43399069Y-26246723D01*
X43399067Y-26246720D01*
X43248445Y-26103104D01*
X43243903Y-26098773D01*
X43243440Y-26098475D01*
X43243437Y-26098473D01*
X43063545Y-25982864D01*
X43063546Y-25982864D01*
X43063080Y-25982565D01*
X43062572Y-25982361D01*
X43062567Y-25982359D01*
X42882161Y-25910136D01*
X42863532Y-25902678D01*
X42816959Y-25893702D01*
X42653013Y-25862104D01*
X42653010Y-25862103D01*
X42652472Y-25862000D01*
X42491382Y-25862000D01*
X42491128Y-25862024D01*
X42491111Y-25862025D01*
X42331573Y-25877259D01*
X42331562Y-25877261D01*
X42331029Y-25877312D01*
X42330509Y-25877464D01*
X42330502Y-25877466D01*
X42125311Y-25937716D01*
X42125308Y-25937717D01*
X42124791Y-25937869D01*
X42124314Y-25938114D01*
X42124311Y-25938116D01*
X41934223Y-26036113D01*
X41934218Y-26036115D01*
X41933741Y-26036362D01*
X41933319Y-26036693D01*
X41933314Y-26036697D01*
X41765205Y-26168899D01*
X41765198Y-26168905D01*
X41764783Y-26169232D01*
X41764431Y-26169637D01*
X41764429Y-26169640D01*
X41624382Y-26331261D01*
X41624374Y-26331271D01*
X41624024Y-26331676D01*
X41623753Y-26332145D01*
X41623749Y-26332151D01*
X41516824Y-26517351D01*
X41516822Y-26517355D01*
X41516552Y-26517823D01*
X41516375Y-26518332D01*
X41516375Y-26518334D01*
X41446427Y-26720432D01*
X41446424Y-26720440D01*
X41446250Y-26720946D01*
X41446173Y-26721477D01*
X41446172Y-26721484D01*
X41415738Y-26933161D01*
X41415737Y-26933170D01*
X41415661Y-26933703D01*
X40419250Y-26933703D01*
X40419250Y-24715415D01*
X40917250Y-24715415D01*
X41154941Y-24953106D01*
X41661431Y-24446616D01*
X41661431Y-24446598D01*
X41661440Y-24446147D01*
X41662904Y-24408879D01*
X41662930Y-24408428D01*
X41683313Y-24149434D01*
X41683358Y-24148983D01*
X41687766Y-24111790D01*
X41687828Y-24111340D01*
X41688111Y-24109557D01*
X41688190Y-24109114D01*
X41690801Y-24096000D01*
X40992870Y-24096000D01*
X40917250Y-24171619D01*
X40917250Y-24715415D01*
X40419250Y-24715415D01*
X40419250Y-23970104D01*
X40420125Y-23965703D01*
X40422618Y-23961972D01*
X40783223Y-23601368D01*
X40791355Y-23598000D01*
X42379287Y-23598000D01*
X42386756Y-23600755D01*
X42390645Y-23607701D01*
X42389092Y-23615509D01*
X42340082Y-23695486D01*
X42340079Y-23695491D01*
X42339846Y-23695872D01*
X42339676Y-23696280D01*
X42339674Y-23696286D01*
X42240596Y-23935479D01*
X42240591Y-23935492D01*
X42240427Y-23935890D01*
X42240324Y-23936318D01*
X42240322Y-23936325D01*
X42179885Y-24188063D01*
X42179779Y-24188506D01*
X42179744Y-24188946D01*
X42179743Y-24188955D01*
X42166042Y-24363051D01*
X42159396Y-24447500D01*
X42159431Y-24447945D01*
X42179743Y-24706044D01*
X42179744Y-24706051D01*
X42179779Y-24706494D01*
X42179884Y-24706934D01*
X42179885Y-24706936D01*
X42238985Y-24953107D01*
X42240427Y-24959110D01*
X42240593Y-24959510D01*
X42240596Y-24959520D01*
X42296464Y-25094395D01*
X42339846Y-25199128D01*
X42340082Y-25199513D01*
X42455327Y-25387578D01*
X42475588Y-25420640D01*
X42644311Y-25618189D01*
X42841860Y-25786912D01*
X43063372Y-25922654D01*
X43144777Y-25956373D01*
X43302979Y-26021903D01*
X43302981Y-26021903D01*
X43303390Y-26022073D01*
X43556006Y-26082721D01*
X43815000Y-26103104D01*
X44073994Y-26082721D01*
X44326610Y-26022073D01*
X44566628Y-25922654D01*
X44788140Y-25786912D01*
X44985689Y-25618189D01*
X45154412Y-25420640D01*
X45290154Y-25199128D01*
X45339457Y-25080097D01*
X45343693Y-25074938D01*
X45350082Y-25073000D01*
X46411129Y-25073000D01*
X46417951Y-25075242D01*
X46422113Y-25081093D01*
X46421993Y-25088272D01*
X46417637Y-25093981D01*
X46231241Y-25221933D01*
X46231234Y-25221938D01*
X46230920Y-25222154D01*
X46230644Y-25222402D01*
X46230632Y-25222413D01*
X46008343Y-25423462D01*
X46008335Y-25423469D01*
X46008061Y-25423718D01*
X46007821Y-25424001D01*
X46007815Y-25424008D01*
X45814302Y-25652897D01*
X45814295Y-25652906D01*
X45814057Y-25653188D01*
X45813856Y-25653502D01*
X45813850Y-25653511D01*
X45652572Y-25906149D01*
X45652568Y-25906156D01*
X45652369Y-25906468D01*
X45652215Y-25906797D01*
X45652212Y-25906805D01*
X45526038Y-26178702D01*
X45526033Y-26178712D01*
X45525882Y-26179040D01*
X45525772Y-26179393D01*
X45525771Y-26179397D01*
X45436967Y-26465670D01*
X45436963Y-26465686D01*
X45436854Y-26466038D01*
X45436792Y-26466401D01*
X45436789Y-26466417D01*
X45386936Y-26761968D01*
X45386934Y-26761983D01*
X45386874Y-26762342D01*
X45386861Y-26762711D01*
X45386861Y-26762718D01*
X45376845Y-27062289D01*
X45376845Y-27062297D01*
X45376833Y-27062664D01*
X45376869Y-27063027D01*
X45376870Y-27063041D01*
X45406872Y-27361267D01*
X45406874Y-27361281D01*
X45406911Y-27361645D01*
X45476570Y-27653949D01*
X45476704Y-27654299D01*
X45476707Y-27654306D01*
X45584434Y-27934010D01*
X45584569Y-27934360D01*
X45584747Y-27934685D01*
X45584749Y-27934689D01*
X45649710Y-28053228D01*
X45728979Y-28197875D01*
X45907223Y-28439790D01*
X45933405Y-28466862D01*
X46040971Y-28578085D01*
X46116121Y-28655789D01*
X46351946Y-28842018D01*
X46610487Y-28995152D01*
X46887133Y-29112460D01*
X47176946Y-29191848D01*
X47474755Y-29231900D01*
X47699851Y-29231900D01*
X47700033Y-29231900D01*
X47924819Y-29216852D01*
X48219287Y-29156999D01*
X48503151Y-29058431D01*
X48771343Y-28922907D01*
X49019080Y-28752846D01*
X49241939Y-28551282D01*
X49296095Y-28487226D01*
X51053022Y-28487226D01*
X51761543Y-29195747D01*
X52379204Y-28578085D01*
X52292223Y-28561322D01*
X52291688Y-28561206D01*
X52247764Y-28550551D01*
X52247235Y-28550409D01*
X52245137Y-28549793D01*
X52244616Y-28549627D01*
X52201893Y-28534841D01*
X52201380Y-28534649D01*
X52188159Y-28529356D01*
X53216473Y-28529356D01*
X53882864Y-29195747D01*
X54591384Y-28487227D01*
X55295663Y-28487227D01*
X56004184Y-29195747D01*
X56712704Y-28487227D01*
X57416984Y-28487227D01*
X58125504Y-29195747D01*
X58834025Y-28487227D01*
X58125504Y-27778706D01*
X57416984Y-28487227D01*
X56712704Y-28487227D01*
X56004184Y-27778706D01*
X55295663Y-28487227D01*
X54591384Y-28487227D01*
X54033489Y-27929332D01*
X54032559Y-27930782D01*
X54032252Y-27931236D01*
X54030984Y-27933017D01*
X54030656Y-27933455D01*
X54002688Y-27969022D01*
X54002339Y-27969445D01*
X53861580Y-28131889D01*
X53861213Y-28132293D01*
X53830084Y-28164946D01*
X53829697Y-28165332D01*
X53828115Y-28166841D01*
X53827710Y-28167210D01*
X53793483Y-28196873D01*
X53793060Y-28197223D01*
X53624102Y-28330093D01*
X53623664Y-28330420D01*
X53586866Y-28356626D01*
X53586413Y-28356933D01*
X53584574Y-28358115D01*
X53584106Y-28358400D01*
X53544936Y-28381016D01*
X53544456Y-28381279D01*
X53353406Y-28479772D01*
X53352912Y-28480011D01*
X53311666Y-28498840D01*
X53311161Y-28499056D01*
X53309131Y-28499868D01*
X53308620Y-28500059D01*
X53266032Y-28514792D01*
X53265512Y-28514958D01*
X53216473Y-28529356D01*
X52188159Y-28529356D01*
X52001832Y-28454762D01*
X52001328Y-28454546D01*
X51960157Y-28435740D01*
X51959664Y-28435501D01*
X51957721Y-28434499D01*
X51957241Y-28434237D01*
X51918147Y-28411663D01*
X51917681Y-28411378D01*
X51736858Y-28295170D01*
X51736406Y-28294865D01*
X51699698Y-28268734D01*
X51699261Y-28268407D01*
X51697542Y-28267056D01*
X51697118Y-28266706D01*
X51662845Y-28237017D01*
X51662439Y-28236648D01*
X51506876Y-28088320D01*
X51506490Y-28087934D01*
X51480044Y-28060204D01*
X51053022Y-28487226D01*
X49296095Y-28487226D01*
X49435943Y-28321812D01*
X49597631Y-28068532D01*
X49724118Y-27795960D01*
X49751636Y-27707250D01*
X50273046Y-27707250D01*
X50700883Y-28135087D01*
X51211229Y-27624740D01*
X51183566Y-27564166D01*
X51183351Y-27563663D01*
X51166547Y-27521689D01*
X51166355Y-27521176D01*
X51165640Y-27519110D01*
X51165474Y-27518589D01*
X51152742Y-27475226D01*
X51152600Y-27474697D01*
X51101925Y-27265811D01*
X51101809Y-27265276D01*
X51093251Y-27220862D01*
X51093160Y-27220322D01*
X51092849Y-27218158D01*
X51092784Y-27217615D01*
X51088491Y-27172644D01*
X51088452Y-27172098D01*
X51085126Y-27102289D01*
X50916540Y-26933703D01*
X51575661Y-26933703D01*
X51575687Y-26934248D01*
X51575687Y-26934249D01*
X51585861Y-27147857D01*
X51585862Y-27147866D01*
X51585888Y-27148404D01*
X51586014Y-27148926D01*
X51586016Y-27148935D01*
X51625388Y-27311225D01*
X51636563Y-27357290D01*
X51636789Y-27357786D01*
X51636791Y-27357790D01*
X51725628Y-27552317D01*
X51725632Y-27552324D01*
X51725854Y-27552810D01*
X51850534Y-27727899D01*
X51850929Y-27728276D01*
X51850932Y-27728279D01*
X51864210Y-27740939D01*
X52006097Y-27876227D01*
X52186920Y-27992435D01*
X52386468Y-28072322D01*
X52597528Y-28113000D01*
X52758345Y-28113000D01*
X52758618Y-28113000D01*
X52918971Y-28097688D01*
X53125209Y-28037131D01*
X53316259Y-27938638D01*
X53485217Y-27805768D01*
X53625976Y-27643324D01*
X53733448Y-27457177D01*
X53734781Y-27453326D01*
X54261763Y-27453326D01*
X54943524Y-28135087D01*
X55652044Y-27426567D01*
X56356324Y-27426567D01*
X57064844Y-28135087D01*
X57773364Y-27426567D01*
X57064844Y-26718046D01*
X56356324Y-27426567D01*
X55652044Y-27426567D01*
X54943523Y-26718046D01*
X54286731Y-27374838D01*
X54274527Y-27416412D01*
X54274360Y-27416934D01*
X54261763Y-27453326D01*
X53734781Y-27453326D01*
X53803750Y-27254054D01*
X53834339Y-27041297D01*
X53824112Y-26826596D01*
X53773437Y-26617710D01*
X53738345Y-26540870D01*
X53684371Y-26422682D01*
X53684369Y-26422679D01*
X53684146Y-26422190D01*
X53644066Y-26365906D01*
X55295663Y-26365906D01*
X56004184Y-27074427D01*
X56712704Y-26365906D01*
X56004184Y-25657386D01*
X55295663Y-26365906D01*
X53644066Y-26365906D01*
X53559466Y-26247101D01*
X53559069Y-26246723D01*
X53559067Y-26246720D01*
X53408445Y-26103104D01*
X53403903Y-26098773D01*
X53403440Y-26098475D01*
X53403437Y-26098473D01*
X53223545Y-25982864D01*
X53223546Y-25982864D01*
X53223080Y-25982565D01*
X53222572Y-25982361D01*
X53222567Y-25982359D01*
X53042161Y-25910136D01*
X53023532Y-25902678D01*
X52976959Y-25893702D01*
X52813013Y-25862104D01*
X52813010Y-25862103D01*
X52812472Y-25862000D01*
X52651382Y-25862000D01*
X52651128Y-25862024D01*
X52651111Y-25862025D01*
X52491573Y-25877259D01*
X52491562Y-25877261D01*
X52491029Y-25877312D01*
X52490509Y-25877464D01*
X52490502Y-25877466D01*
X52285311Y-25937716D01*
X52285308Y-25937717D01*
X52284791Y-25937869D01*
X52284314Y-25938114D01*
X52284311Y-25938116D01*
X52094223Y-26036113D01*
X52094218Y-26036115D01*
X52093741Y-26036362D01*
X52093319Y-26036693D01*
X52093314Y-26036697D01*
X51925205Y-26168899D01*
X51925198Y-26168905D01*
X51924783Y-26169232D01*
X51924431Y-26169637D01*
X51924429Y-26169640D01*
X51784382Y-26331261D01*
X51784374Y-26331271D01*
X51784024Y-26331676D01*
X51783753Y-26332145D01*
X51783749Y-26332151D01*
X51676824Y-26517351D01*
X51676822Y-26517355D01*
X51676552Y-26517823D01*
X51676375Y-26518332D01*
X51676375Y-26518334D01*
X51606427Y-26720432D01*
X51606424Y-26720440D01*
X51606250Y-26720946D01*
X51606173Y-26721477D01*
X51606172Y-26721484D01*
X51575738Y-26933161D01*
X51575737Y-26933170D01*
X51575661Y-26933703D01*
X50916540Y-26933703D01*
X50700882Y-26718046D01*
X50366771Y-27052157D01*
X50360849Y-27229298D01*
X50360829Y-27229683D01*
X50358703Y-27261412D01*
X50358671Y-27261795D01*
X50358517Y-27263324D01*
X50358472Y-27263706D01*
X50354246Y-27295111D01*
X50354189Y-27295490D01*
X50304209Y-27591794D01*
X50304139Y-27592171D01*
X50297819Y-27623268D01*
X50297736Y-27623644D01*
X50297380Y-27625138D01*
X50297284Y-27625510D01*
X50288895Y-27656138D01*
X50288788Y-27656507D01*
X50273046Y-27707250D01*
X49751636Y-27707250D01*
X49813146Y-27508962D01*
X49863126Y-27212658D01*
X49873167Y-26912336D01*
X49843089Y-26613355D01*
X49773430Y-26321051D01*
X49665431Y-26040640D01*
X49521021Y-25777125D01*
X49342777Y-25535210D01*
X49334672Y-25526829D01*
X54456586Y-25526829D01*
X54943524Y-26013767D01*
X55652044Y-25305246D01*
X55258457Y-24911659D01*
X54965641Y-25204475D01*
X54949063Y-25224518D01*
X54948585Y-25225060D01*
X54907749Y-25268549D01*
X54907238Y-25269060D01*
X54905136Y-25271034D01*
X54904594Y-25271512D01*
X54865284Y-25304030D01*
X54827038Y-25337751D01*
X54826481Y-25338212D01*
X54824203Y-25339979D01*
X54823619Y-25340403D01*
X54774276Y-25373937D01*
X54773666Y-25374325D01*
X54751253Y-25387578D01*
X54730207Y-25402871D01*
X54729607Y-25403279D01*
X54679079Y-25435332D01*
X54678455Y-25435701D01*
X54675928Y-25437089D01*
X54675286Y-25437416D01*
X54629234Y-25459074D01*
X54583857Y-25482197D01*
X54583203Y-25482505D01*
X54580557Y-25483650D01*
X54579885Y-25483916D01*
X54523751Y-25504124D01*
X54523064Y-25504348D01*
X54498071Y-25511607D01*
X54473883Y-25521186D01*
X54473203Y-25521431D01*
X54456586Y-25526829D01*
X49334672Y-25526829D01*
X49152255Y-25338212D01*
X49134148Y-25319489D01*
X49134146Y-25319487D01*
X49133879Y-25319211D01*
X48988587Y-25204475D01*
X48898357Y-25133221D01*
X48898354Y-25133219D01*
X48898054Y-25132982D01*
X48832905Y-25094394D01*
X48828106Y-25088812D01*
X48827676Y-25081462D01*
X48831792Y-25075357D01*
X48838767Y-25073000D01*
X54063426Y-25073000D01*
X54065935Y-25073277D01*
X54074417Y-25075173D01*
X54143373Y-25073005D01*
X54143734Y-25073000D01*
X54172740Y-25073000D01*
X54173100Y-25073000D01*
X54182364Y-25071829D01*
X54183403Y-25071747D01*
X54232377Y-25070209D01*
X54260120Y-25062147D01*
X54261876Y-25061784D01*
X54290542Y-25058164D01*
X54336105Y-25040123D01*
X54337089Y-25039787D01*
X54384140Y-25026118D01*
X54409010Y-25011409D01*
X54410606Y-25010626D01*
X54437482Y-24999986D01*
X54477111Y-24971192D01*
X54478014Y-24970600D01*
X54496750Y-24959520D01*
X54520170Y-24945670D01*
X54540596Y-24925242D01*
X54541961Y-24924076D01*
X54565337Y-24907094D01*
X54596562Y-24869347D01*
X54597271Y-24868567D01*
X54906318Y-24559520D01*
X55610597Y-24559520D01*
X56004184Y-24953107D01*
X56502750Y-24454541D01*
X56502750Y-24034631D01*
X56188359Y-23720240D01*
X56187624Y-23723103D01*
X56183557Y-23748788D01*
X56183422Y-23749497D01*
X56170415Y-23807697D01*
X56170236Y-23808397D01*
X56169432Y-23811165D01*
X56169208Y-23811852D01*
X56151922Y-23859864D01*
X56136115Y-23908496D01*
X56135869Y-23909178D01*
X56134807Y-23911858D01*
X56134521Y-23912519D01*
X56109166Y-23966379D01*
X56108838Y-23967022D01*
X56096304Y-23989816D01*
X56085973Y-24013696D01*
X56085666Y-24014348D01*
X56058638Y-24067413D01*
X56058291Y-24068045D01*
X56056824Y-24070527D01*
X56056436Y-24071139D01*
X56027713Y-24113409D01*
X56000327Y-24156559D01*
X55999920Y-24157157D01*
X55998225Y-24159489D01*
X55997783Y-24160059D01*
X55959808Y-24205953D01*
X55959331Y-24206495D01*
X55936945Y-24230330D01*
X55930733Y-24237845D01*
X55930499Y-24238119D01*
X55929544Y-24239203D01*
X55929299Y-24239472D01*
X55908746Y-24261366D01*
X55908493Y-24261627D01*
X55893122Y-24276995D01*
X55851158Y-24321685D01*
X55850647Y-24322196D01*
X55807139Y-24363051D01*
X55806588Y-24363537D01*
X55806547Y-24363570D01*
X55610597Y-24559520D01*
X54906318Y-24559520D01*
X55478828Y-23987011D01*
X55480787Y-23985443D01*
X55488127Y-23980786D01*
X55535367Y-23930479D01*
X55535589Y-23930251D01*
X55556110Y-23909731D01*
X55556110Y-23909730D01*
X55556370Y-23909471D01*
X55562089Y-23902096D01*
X55562776Y-23901292D01*
X55596312Y-23865582D01*
X55610230Y-23840263D01*
X55611219Y-23838759D01*
X55628479Y-23816509D01*
X55628480Y-23816506D01*
X55628923Y-23815936D01*
X55648384Y-23770960D01*
X55648835Y-23770039D01*
X55672447Y-23727092D01*
X55679634Y-23699097D01*
X55680210Y-23697414D01*
X55691687Y-23670896D01*
X55699350Y-23622510D01*
X55699560Y-23621489D01*
X55711750Y-23574019D01*
X55711750Y-23545128D01*
X55711892Y-23543329D01*
X55713042Y-23536066D01*
X55716410Y-23514804D01*
X55711800Y-23466046D01*
X55711750Y-23464965D01*
X55711750Y-20601330D01*
X55713371Y-20595443D01*
X55717776Y-20591216D01*
X55841869Y-20524061D01*
X56021927Y-20383917D01*
X56176463Y-20216047D01*
X56301260Y-20025030D01*
X56345719Y-19923671D01*
X56351922Y-19917636D01*
X56360578Y-19917636D01*
X56366780Y-19923671D01*
G37*
%TD.AperFunction*%
%TA.AperFunction,Conductor*%
G36*
X47464632Y-19012329D02*
G01*
X47466250Y-19012999D01*
X47467867Y-19012329D01*
X48223947Y-18256250D01*
X49248553Y-18256250D01*
X50004632Y-19012329D01*
X50006250Y-19012999D01*
X50007867Y-19012329D01*
X50763947Y-18256250D01*
X50900238Y-18256250D01*
X51698917Y-18256250D01*
X51705599Y-18258391D01*
X51709794Y-18264016D01*
X51709939Y-18271031D01*
X51705980Y-18276825D01*
X51610955Y-18350785D01*
X51610950Y-18350789D01*
X51610573Y-18351083D01*
X51610248Y-18351435D01*
X51610248Y-18351436D01*
X51456357Y-18518604D01*
X51456350Y-18518612D01*
X51456037Y-18518953D01*
X51455778Y-18519349D01*
X51455776Y-18519352D01*
X51331501Y-18709569D01*
X51331496Y-18709577D01*
X51331240Y-18709970D01*
X51331051Y-18710398D01*
X51331048Y-18710406D01*
X51286506Y-18811950D01*
X51280302Y-18817985D01*
X51271647Y-18817985D01*
X51265444Y-18811949D01*
X51221012Y-18710653D01*
X51220553Y-18709804D01*
X51141252Y-18588424D01*
X51140251Y-18587588D01*
X51139101Y-18588200D01*
X50361420Y-19365882D01*
X50360750Y-19367500D01*
X50361420Y-19369117D01*
X51139101Y-20146798D01*
X51140251Y-20147410D01*
X51141252Y-20146574D01*
X51220553Y-20025195D01*
X51221012Y-20024346D01*
X51265444Y-19923049D01*
X51271647Y-19917013D01*
X51280302Y-19917013D01*
X51286506Y-19923048D01*
X51331048Y-20024593D01*
X51331240Y-20025030D01*
X51456037Y-20216047D01*
X51456355Y-20216392D01*
X51456357Y-20216395D01*
X51473418Y-20234928D01*
X51610573Y-20383917D01*
X51790631Y-20524061D01*
X51914723Y-20591216D01*
X51919129Y-20595443D01*
X51920750Y-20601330D01*
X51920750Y-22596145D01*
X51917382Y-22604277D01*
X51338027Y-23183632D01*
X51329895Y-23187000D01*
X51239461Y-23187000D01*
X51232885Y-23184935D01*
X51228672Y-23179480D01*
X51228334Y-23172596D01*
X51231992Y-23166755D01*
X51268022Y-23135982D01*
X51335689Y-23078189D01*
X51504412Y-22880640D01*
X51640154Y-22659128D01*
X51739573Y-22419110D01*
X51800221Y-22166494D01*
X51819556Y-21920815D01*
X51820569Y-21907945D01*
X51820604Y-21907500D01*
X51800221Y-21648506D01*
X51739573Y-21395890D01*
X51728511Y-21369185D01*
X51687910Y-21271165D01*
X51640154Y-21155872D01*
X51504412Y-20934360D01*
X51335689Y-20736811D01*
X51138140Y-20568088D01*
X51136379Y-20567009D01*
X50917013Y-20432582D01*
X50916628Y-20432346D01*
X50916213Y-20432174D01*
X50677020Y-20333096D01*
X50677010Y-20333093D01*
X50676610Y-20332927D01*
X50676177Y-20332823D01*
X50676174Y-20332822D01*
X50602800Y-20315206D01*
X50597353Y-20312156D01*
X50007867Y-19722670D01*
X50006250Y-19722000D01*
X50004632Y-19722670D01*
X49225494Y-20501807D01*
X49224877Y-20502929D01*
X49225629Y-20503968D01*
X49243737Y-20518062D01*
X49247770Y-20524115D01*
X49247364Y-20531376D01*
X49242683Y-20536942D01*
X49192242Y-20567853D01*
X49192234Y-20567858D01*
X49191860Y-20568088D01*
X49191525Y-20568373D01*
X49191521Y-20568377D01*
X48994653Y-20736518D01*
X48994646Y-20736524D01*
X48994311Y-20736811D01*
X48994024Y-20737146D01*
X48994018Y-20737153D01*
X48825877Y-20934021D01*
X48825873Y-20934025D01*
X48825588Y-20934360D01*
X48825358Y-20934734D01*
X48825353Y-20934742D01*
X48690082Y-21155486D01*
X48690079Y-21155491D01*
X48689846Y-21155872D01*
X48689676Y-21156280D01*
X48689674Y-21156286D01*
X48590596Y-21395479D01*
X48590591Y-21395492D01*
X48590427Y-21395890D01*
X48590324Y-21396318D01*
X48590322Y-21396325D01*
X48530665Y-21644814D01*
X48529779Y-21648506D01*
X48529744Y-21648946D01*
X48529743Y-21648955D01*
X48512957Y-21862256D01*
X48509396Y-21907500D01*
X48509431Y-21907945D01*
X48529743Y-22166044D01*
X48529744Y-22166051D01*
X48529779Y-22166494D01*
X48529884Y-22166934D01*
X48529885Y-22166936D01*
X48588277Y-22410158D01*
X48590427Y-22419110D01*
X48590593Y-22419510D01*
X48590596Y-22419520D01*
X48667128Y-22604282D01*
X48689846Y-22659128D01*
X48690082Y-22659513D01*
X48825075Y-22879804D01*
X48825588Y-22880640D01*
X48994311Y-23078189D01*
X48994653Y-23078481D01*
X49098008Y-23166755D01*
X49101666Y-23172596D01*
X49101328Y-23179480D01*
X49097115Y-23184935D01*
X49090539Y-23187000D01*
X48682604Y-23187000D01*
X48678203Y-23186125D01*
X48674472Y-23183632D01*
X48070768Y-22579927D01*
X48069190Y-22577957D01*
X48064924Y-22571235D01*
X48064536Y-22570623D01*
X48014261Y-22523411D01*
X48014001Y-22523160D01*
X47993473Y-22502632D01*
X47993221Y-22502380D01*
X47985857Y-22496667D01*
X47985034Y-22495964D01*
X47949857Y-22462931D01*
X47949856Y-22462930D01*
X47949332Y-22462438D01*
X47948703Y-22462092D01*
X47948696Y-22462087D01*
X47924015Y-22448518D01*
X47922507Y-22447528D01*
X47900257Y-22430270D01*
X47899686Y-22429827D01*
X47899022Y-22429539D01*
X47899021Y-22429539D01*
X47854738Y-22410375D01*
X47853765Y-22409899D01*
X47811476Y-22386651D01*
X47811472Y-22386649D01*
X47810842Y-22386303D01*
X47810145Y-22386124D01*
X47810140Y-22386122D01*
X47782863Y-22379119D01*
X47781156Y-22378534D01*
X47755315Y-22367351D01*
X47755311Y-22367349D01*
X47754646Y-22367062D01*
X47753928Y-22366948D01*
X47753924Y-22366947D01*
X47706274Y-22359400D01*
X47705213Y-22359181D01*
X47658464Y-22347178D01*
X47658460Y-22347177D01*
X47657769Y-22347000D01*
X47657050Y-22347000D01*
X47628879Y-22347000D01*
X47627080Y-22346858D01*
X47599268Y-22342453D01*
X47599267Y-22342452D01*
X47598554Y-22342340D01*
X47597842Y-22342407D01*
X47597835Y-22342407D01*
X47549797Y-22346949D01*
X47548715Y-22347000D01*
X40597819Y-22347000D01*
X40595310Y-22346723D01*
X40587538Y-22344985D01*
X40587531Y-22344984D01*
X40586832Y-22344828D01*
X40586113Y-22344850D01*
X40586107Y-22344850D01*
X40517894Y-22346994D01*
X40517533Y-22347000D01*
X40488150Y-22347000D01*
X40487801Y-22347043D01*
X40487801Y-22347044D01*
X40478903Y-22348167D01*
X40477826Y-22348251D01*
X40429594Y-22349768D01*
X40429591Y-22349768D01*
X40428872Y-22349791D01*
X40428183Y-22349990D01*
X40428177Y-22349992D01*
X40401134Y-22357849D01*
X40399368Y-22358215D01*
X40371430Y-22361744D01*
X40371423Y-22361745D01*
X40370708Y-22361836D01*
X40325150Y-22379872D01*
X40324140Y-22380218D01*
X40277803Y-22393681D01*
X40277798Y-22393682D01*
X40277110Y-22393883D01*
X40276496Y-22394245D01*
X40276489Y-22394249D01*
X40252246Y-22408586D01*
X40250626Y-22409379D01*
X40224443Y-22419746D01*
X40224438Y-22419748D01*
X40223768Y-22420014D01*
X40223181Y-22420440D01*
X40223180Y-22420441D01*
X40184139Y-22448804D01*
X40183234Y-22449398D01*
X40141705Y-22473959D01*
X40141700Y-22473962D01*
X40141079Y-22474330D01*
X40140570Y-22474838D01*
X40140562Y-22474845D01*
X40120650Y-22494756D01*
X40119279Y-22495927D01*
X40096498Y-22512479D01*
X40096488Y-22512487D01*
X40095913Y-22512906D01*
X40095457Y-22513456D01*
X40095457Y-22513457D01*
X40064700Y-22550635D01*
X40063971Y-22551436D01*
X40011133Y-22604275D01*
X40011126Y-22604282D01*
X39988882Y-22626527D01*
X39982994Y-22629674D01*
X39976349Y-22629020D01*
X39971188Y-22624784D01*
X39969250Y-22618395D01*
X39969250Y-22068250D01*
X39972618Y-22060118D01*
X39980750Y-22056750D01*
X44379676Y-22056750D01*
X44382185Y-22057027D01*
X44390667Y-22058923D01*
X44459623Y-22056755D01*
X44459984Y-22056750D01*
X44488990Y-22056750D01*
X44489350Y-22056750D01*
X44498614Y-22055579D01*
X44499653Y-22055497D01*
X44548627Y-22053959D01*
X44576370Y-22045897D01*
X44578126Y-22045534D01*
X44606792Y-22041914D01*
X44652355Y-22023873D01*
X44653339Y-22023537D01*
X44700390Y-22009868D01*
X44725260Y-21995159D01*
X44726856Y-21994376D01*
X44753732Y-21983736D01*
X44793361Y-21954942D01*
X44794264Y-21954350D01*
X44798064Y-21952103D01*
X44836420Y-21929420D01*
X44856846Y-21908992D01*
X44858211Y-21907826D01*
X44881587Y-21890844D01*
X44912812Y-21853097D01*
X44913521Y-21852317D01*
X45318824Y-21447014D01*
X45320791Y-21445440D01*
X45327517Y-21441173D01*
X45327516Y-21441173D01*
X45328127Y-21440786D01*
X45375367Y-21390479D01*
X45375589Y-21390251D01*
X45396110Y-21369731D01*
X45396110Y-21369730D01*
X45396370Y-21369471D01*
X45402089Y-21362096D01*
X45402776Y-21361292D01*
X45436312Y-21325582D01*
X45445542Y-21308792D01*
X45995908Y-21308792D01*
X46458242Y-21771126D01*
X47034209Y-21195158D01*
X47006419Y-21189333D01*
X47005957Y-21189226D01*
X47004116Y-21188760D01*
X47003657Y-21188634D01*
X46965984Y-21177421D01*
X46965531Y-21177276D01*
X46749803Y-21103217D01*
X46749356Y-21103053D01*
X46712739Y-21088763D01*
X46712299Y-21088581D01*
X46710560Y-21087818D01*
X46710130Y-21087618D01*
X46674902Y-21070394D01*
X46674480Y-21070177D01*
X46473883Y-20961619D01*
X46473470Y-20961385D01*
X46439825Y-20941341D01*
X46439423Y-20941090D01*
X46437832Y-20940051D01*
X46437439Y-20939782D01*
X46405401Y-20916912D01*
X46405018Y-20916627D01*
X46378452Y-20895949D01*
X46377245Y-20894864D01*
X46284291Y-20798634D01*
X46283248Y-20797389D01*
X46279488Y-20792197D01*
X46278632Y-20790820D01*
X46236944Y-20711832D01*
X46228317Y-20721205D01*
X46227986Y-20721549D01*
X46200098Y-20749426D01*
X46199754Y-20749757D01*
X46198356Y-20751043D01*
X46198001Y-20751356D01*
X46168171Y-20776612D01*
X46167803Y-20776910D01*
X46049750Y-20868794D01*
X46049750Y-20902021D01*
X46052200Y-20927938D01*
X46052245Y-20928660D01*
X46054116Y-20988358D01*
X46054116Y-20989081D01*
X46054025Y-20991962D01*
X46053980Y-20992682D01*
X46049183Y-21043378D01*
X46045988Y-21094224D01*
X46045920Y-21094943D01*
X46045559Y-21097803D01*
X46045446Y-21098518D01*
X46034258Y-21157177D01*
X46034101Y-21157882D01*
X46027624Y-21183103D01*
X46023557Y-21208788D01*
X46023422Y-21209497D01*
X46010415Y-21267697D01*
X46010236Y-21268397D01*
X46009432Y-21271165D01*
X46009208Y-21271853D01*
X45995908Y-21308792D01*
X45445542Y-21308792D01*
X45450230Y-21300263D01*
X45451219Y-21298759D01*
X45468479Y-21276509D01*
X45468480Y-21276506D01*
X45468923Y-21275936D01*
X45488384Y-21230960D01*
X45488835Y-21230039D01*
X45512447Y-21187092D01*
X45519634Y-21159097D01*
X45520210Y-21157414D01*
X45531687Y-21130896D01*
X45539350Y-21082510D01*
X45539560Y-21081489D01*
X45551750Y-21034019D01*
X45551750Y-21005128D01*
X45551892Y-21003329D01*
X45553692Y-20991962D01*
X45556410Y-20974804D01*
X45551800Y-20926046D01*
X45551750Y-20924965D01*
X45551750Y-20601330D01*
X45553371Y-20595443D01*
X45557776Y-20591216D01*
X45681869Y-20524061D01*
X45709020Y-20502929D01*
X46684877Y-20502929D01*
X46685628Y-20503966D01*
X46710528Y-20523347D01*
X46711327Y-20523869D01*
X46911080Y-20631970D01*
X46911954Y-20632354D01*
X47126784Y-20706105D01*
X47127695Y-20706335D01*
X47351731Y-20743720D01*
X47352688Y-20743800D01*
X47579812Y-20743800D01*
X47580768Y-20743720D01*
X47804804Y-20706335D01*
X47805715Y-20706105D01*
X48020545Y-20632354D01*
X48021419Y-20631970D01*
X48221172Y-20523869D01*
X48221971Y-20523347D01*
X48246871Y-20503965D01*
X48247622Y-20502929D01*
X48247004Y-20501807D01*
X47467867Y-19722670D01*
X47466250Y-19722000D01*
X47464632Y-19722670D01*
X46685494Y-20501807D01*
X46684877Y-20502929D01*
X45709020Y-20502929D01*
X45861927Y-20383917D01*
X46016463Y-20216047D01*
X46141260Y-20025030D01*
X46185993Y-19923047D01*
X46192195Y-19917013D01*
X46200851Y-19917013D01*
X46207054Y-19923049D01*
X46251487Y-20024346D01*
X46251946Y-20025195D01*
X46331246Y-20146574D01*
X46332247Y-20147410D01*
X46333397Y-20146798D01*
X47111626Y-19368570D01*
X47112244Y-19367500D01*
X47820750Y-19367500D01*
X47821420Y-19369117D01*
X48599101Y-20146798D01*
X48600251Y-20147410D01*
X48601252Y-20146574D01*
X48680556Y-20025191D01*
X48681011Y-20024350D01*
X48725719Y-19922428D01*
X48731922Y-19916392D01*
X48740578Y-19916392D01*
X48746781Y-19922428D01*
X48791488Y-20024350D01*
X48791943Y-20025191D01*
X48871246Y-20146574D01*
X48872247Y-20147410D01*
X48873397Y-20146798D01*
X49651626Y-19368570D01*
X49652244Y-19367500D01*
X49651626Y-19366429D01*
X48873397Y-18588200D01*
X48872247Y-18587588D01*
X48871246Y-18588424D01*
X48791943Y-18709808D01*
X48791490Y-18710645D01*
X48746781Y-18812571D01*
X48740578Y-18818606D01*
X48731922Y-18818606D01*
X48725719Y-18812571D01*
X48681009Y-18710645D01*
X48680556Y-18709808D01*
X48601252Y-18588424D01*
X48600251Y-18587588D01*
X48599101Y-18588200D01*
X47821420Y-19365882D01*
X47820750Y-19367500D01*
X47112244Y-19367500D01*
X47111626Y-19366429D01*
X46333397Y-18588200D01*
X46332247Y-18587588D01*
X46331246Y-18588424D01*
X46251943Y-18709808D01*
X46251490Y-18710645D01*
X46207053Y-18811950D01*
X46200849Y-18817985D01*
X46192194Y-18817985D01*
X46185992Y-18811950D01*
X46141260Y-18709970D01*
X46016463Y-18518953D01*
X45861927Y-18351083D01*
X45766520Y-18276825D01*
X45762561Y-18271031D01*
X45762706Y-18264016D01*
X45766901Y-18258391D01*
X45773583Y-18256250D01*
X46572262Y-18256250D01*
X46708553Y-18256250D01*
X47464632Y-19012329D01*
G37*
%TD.AperFunction*%
%TD*%
%TA.AperFunction,NonConductor*%
G36*
X44085599Y-18258391D02*
G01*
X44089794Y-18264016D01*
X44089939Y-18271031D01*
X44085980Y-18276825D01*
X43990955Y-18350785D01*
X43990950Y-18350789D01*
X43990573Y-18351083D01*
X43990248Y-18351435D01*
X43990248Y-18351436D01*
X43836357Y-18518604D01*
X43836350Y-18518612D01*
X43836037Y-18518953D01*
X43790796Y-18588200D01*
X43784176Y-18598332D01*
X43778507Y-18602839D01*
X43771268Y-18603064D01*
X43765330Y-18598916D01*
X43763049Y-18592042D01*
X43763049Y-18443628D01*
X43763049Y-18443328D01*
X43756641Y-18383717D01*
X43714886Y-18271768D01*
X43714628Y-18264510D01*
X43718770Y-18258544D01*
X43725662Y-18256250D01*
X44078917Y-18256250D01*
X44085599Y-18258391D01*
G37*
%TD.AperFunction*%
%TA.AperFunction,NonConductor*%
G36*
X54245599Y-18258391D02*
G01*
X54249794Y-18264016D01*
X54249939Y-18271031D01*
X54245980Y-18276825D01*
X54150955Y-18350785D01*
X54150950Y-18350789D01*
X54150573Y-18351083D01*
X54150248Y-18351435D01*
X54150248Y-18351436D01*
X53996357Y-18518604D01*
X53996350Y-18518612D01*
X53996037Y-18518953D01*
X53995778Y-18519349D01*
X53995776Y-18519352D01*
X53871504Y-18709565D01*
X53871502Y-18709569D01*
X53871240Y-18709970D01*
X53871049Y-18710404D01*
X53871047Y-18710409D01*
X53826781Y-18811327D01*
X53820578Y-18817362D01*
X53811922Y-18817362D01*
X53805719Y-18811327D01*
X53790602Y-18776864D01*
X53761260Y-18709970D01*
X53636463Y-18518953D01*
X53481927Y-18351083D01*
X53386520Y-18276825D01*
X53382561Y-18271031D01*
X53382706Y-18264016D01*
X53386901Y-18258391D01*
X53393583Y-18256250D01*
X54238917Y-18256250D01*
X54245599Y-18258391D01*
G37*
%TD.AperFunction*%
%TA.AperFunction,NonConductor*%
G36*
X56785599Y-18258391D02*
G01*
X56789794Y-18264016D01*
X56789939Y-18271031D01*
X56785980Y-18276825D01*
X56690955Y-18350785D01*
X56690950Y-18350789D01*
X56690573Y-18351083D01*
X56690248Y-18351435D01*
X56690248Y-18351436D01*
X56536357Y-18518604D01*
X56536350Y-18518612D01*
X56536037Y-18518953D01*
X56535778Y-18519349D01*
X56535776Y-18519352D01*
X56411504Y-18709565D01*
X56411502Y-18709569D01*
X56411240Y-18709970D01*
X56411049Y-18710404D01*
X56411047Y-18710409D01*
X56366781Y-18811327D01*
X56360578Y-18817362D01*
X56351922Y-18817362D01*
X56345719Y-18811327D01*
X56330602Y-18776864D01*
X56301260Y-18709970D01*
X56176463Y-18518953D01*
X56021927Y-18351083D01*
X55926520Y-18276825D01*
X55922561Y-18271031D01*
X55922706Y-18264016D01*
X55926901Y-18258391D01*
X55933583Y-18256250D01*
X56778917Y-18256250D01*
X56785599Y-18258391D01*
G37*
%TD.AperFunction*%
%TA.AperFunction,NonConductor*%
G36*
X59325599Y-18258391D02*
G01*
X59329794Y-18264016D01*
X59329939Y-18271031D01*
X59325980Y-18276825D01*
X59230955Y-18350785D01*
X59230950Y-18350789D01*
X59230573Y-18351083D01*
X59230248Y-18351435D01*
X59230248Y-18351436D01*
X59076357Y-18518604D01*
X59076350Y-18518612D01*
X59076037Y-18518953D01*
X59075778Y-18519349D01*
X59075776Y-18519352D01*
X58951504Y-18709565D01*
X58951502Y-18709569D01*
X58951240Y-18709970D01*
X58951049Y-18710404D01*
X58951047Y-18710409D01*
X58906781Y-18811327D01*
X58900578Y-18817362D01*
X58891922Y-18817362D01*
X58885719Y-18811327D01*
X58870602Y-18776864D01*
X58841260Y-18709970D01*
X58716463Y-18518953D01*
X58561927Y-18351083D01*
X58466520Y-18276825D01*
X58462561Y-18271031D01*
X58462706Y-18264016D01*
X58466901Y-18258391D01*
X58473583Y-18256250D01*
X59318917Y-18256250D01*
X59325599Y-18258391D01*
G37*
%TD.AperFunction*%
%TA.AperFunction,NonConductor*%
G36*
X61865599Y-18258391D02*
G01*
X61869794Y-18264016D01*
X61869939Y-18271031D01*
X61865980Y-18276825D01*
X61770955Y-18350785D01*
X61770950Y-18350789D01*
X61770573Y-18351083D01*
X61770248Y-18351435D01*
X61770248Y-18351436D01*
X61616357Y-18518604D01*
X61616350Y-18518612D01*
X61616037Y-18518953D01*
X61615778Y-18519349D01*
X61615776Y-18519352D01*
X61491504Y-18709565D01*
X61491502Y-18709569D01*
X61491240Y-18709970D01*
X61491049Y-18710404D01*
X61491047Y-18710409D01*
X61446781Y-18811327D01*
X61440578Y-18817362D01*
X61431922Y-18817362D01*
X61425719Y-18811327D01*
X61410602Y-18776864D01*
X61381260Y-18709970D01*
X61256463Y-18518953D01*
X61101927Y-18351083D01*
X61006520Y-18276825D01*
X61002561Y-18271031D01*
X61002706Y-18264016D01*
X61006901Y-18258391D01*
X61013583Y-18256250D01*
X61858917Y-18256250D01*
X61865599Y-18258391D01*
G37*
%TD.AperFunction*%
%TA.AperFunction,NonConductor*%
G36*
X64405599Y-18258391D02*
G01*
X64409794Y-18264016D01*
X64409939Y-18271031D01*
X64405980Y-18276825D01*
X64310955Y-18350785D01*
X64310950Y-18350789D01*
X64310573Y-18351083D01*
X64310248Y-18351435D01*
X64310248Y-18351436D01*
X64156357Y-18518604D01*
X64156350Y-18518612D01*
X64156037Y-18518953D01*
X64155778Y-18519349D01*
X64155776Y-18519352D01*
X64031504Y-18709565D01*
X64031502Y-18709569D01*
X64031240Y-18709970D01*
X64031049Y-18710404D01*
X64031047Y-18710409D01*
X63986781Y-18811327D01*
X63980578Y-18817362D01*
X63971922Y-18817362D01*
X63965719Y-18811327D01*
X63950602Y-18776864D01*
X63921260Y-18709970D01*
X63796463Y-18518953D01*
X63641927Y-18351083D01*
X63546520Y-18276825D01*
X63542561Y-18271031D01*
X63542706Y-18264016D01*
X63546901Y-18258391D01*
X63553583Y-18256250D01*
X64398917Y-18256250D01*
X64405599Y-18258391D01*
G37*
%TD.AperFunction*%
%TA.AperFunction,NonConductor*%
G36*
X66945599Y-18258391D02*
G01*
X66949794Y-18264016D01*
X66949939Y-18271031D01*
X66945980Y-18276825D01*
X66850955Y-18350785D01*
X66850950Y-18350789D01*
X66850573Y-18351083D01*
X66850248Y-18351435D01*
X66850248Y-18351436D01*
X66696357Y-18518604D01*
X66696350Y-18518612D01*
X66696037Y-18518953D01*
X66695778Y-18519349D01*
X66695776Y-18519352D01*
X66571504Y-18709565D01*
X66571502Y-18709569D01*
X66571240Y-18709970D01*
X66571049Y-18710404D01*
X66571047Y-18710409D01*
X66526781Y-18811327D01*
X66520578Y-18817362D01*
X66511922Y-18817362D01*
X66505719Y-18811327D01*
X66490602Y-18776864D01*
X66461260Y-18709970D01*
X66336463Y-18518953D01*
X66181927Y-18351083D01*
X66086520Y-18276825D01*
X66082561Y-18271031D01*
X66082706Y-18264016D01*
X66086901Y-18258391D01*
X66093583Y-18256250D01*
X66938917Y-18256250D01*
X66945599Y-18258391D01*
G37*
%TD.AperFunction*%
%TA.AperFunction,NonConductor*%
G36*
X69066780Y-19923671D02*
G01*
X69111240Y-20025030D01*
X69236037Y-20216047D01*
X69236355Y-20216392D01*
X69236357Y-20216395D01*
X69253418Y-20234928D01*
X69256335Y-20241047D01*
X69255299Y-20247746D01*
X69250669Y-20252698D01*
X69244055Y-20254182D01*
X69215445Y-20251931D01*
X69215000Y-20251896D01*
X69214555Y-20251931D01*
X68956455Y-20272243D01*
X68956446Y-20272244D01*
X68956006Y-20272279D01*
X68955567Y-20272384D01*
X68955563Y-20272385D01*
X68824170Y-20303929D01*
X68816985Y-20303330D01*
X68811570Y-20298572D01*
X68810050Y-20291525D01*
X68813023Y-20284960D01*
X68876463Y-20216047D01*
X69001260Y-20025030D01*
X69045719Y-19923671D01*
X69051922Y-19917636D01*
X69060578Y-19917636D01*
X69066780Y-19923671D01*
G37*
%TD.AperFunction*%
%TA.AperFunction,NonConductor*%
G36*
X41006083Y-19996368D02*
G01*
X41009451Y-20004500D01*
X41009451Y-20291672D01*
X41009482Y-20291968D01*
X41009483Y-20291971D01*
X41015781Y-20350566D01*
X41015782Y-20350573D01*
X41015859Y-20351283D01*
X41016109Y-20351954D01*
X41016110Y-20351957D01*
X41046181Y-20432582D01*
X41066154Y-20486131D01*
X41116999Y-20554051D01*
X41147262Y-20594478D01*
X41152404Y-20601346D01*
X41267619Y-20687596D01*
X41402467Y-20737891D01*
X41462077Y-20744300D01*
X43310422Y-20744299D01*
X43370033Y-20737891D01*
X43504881Y-20687596D01*
X43620096Y-20601346D01*
X43706346Y-20486131D01*
X43756641Y-20351283D01*
X43763050Y-20291673D01*
X43763049Y-20142957D01*
X43765330Y-20136084D01*
X43771268Y-20131936D01*
X43778507Y-20132161D01*
X43784175Y-20136667D01*
X43836037Y-20216047D01*
X43836355Y-20216392D01*
X43836357Y-20216395D01*
X43853418Y-20234928D01*
X43990573Y-20383917D01*
X44170631Y-20524061D01*
X44294723Y-20591216D01*
X44299129Y-20595443D01*
X44300750Y-20601330D01*
X44300750Y-20691145D01*
X44297382Y-20699277D01*
X44194277Y-20802382D01*
X44186145Y-20805750D01*
X39757824Y-20805750D01*
X39755315Y-20805473D01*
X39747539Y-20803734D01*
X39747532Y-20803733D01*
X39746833Y-20803577D01*
X39746114Y-20803599D01*
X39746108Y-20803599D01*
X39677877Y-20805744D01*
X39677516Y-20805750D01*
X39648150Y-20805750D01*
X39647799Y-20805794D01*
X39647788Y-20805795D01*
X39638907Y-20806917D01*
X39637824Y-20807002D01*
X39636925Y-20807030D01*
X39630403Y-20805244D01*
X39626012Y-20800102D01*
X39625271Y-20793380D01*
X39628433Y-20787406D01*
X40419472Y-19996368D01*
X40427605Y-19993000D01*
X40997951Y-19993000D01*
X41006083Y-19996368D01*
G37*
%TD.AperFunction*%
%TA.AperFunction,NonConductor*%
G36*
X63986780Y-19923671D02*
G01*
X64031240Y-20025030D01*
X64156037Y-20216047D01*
X64156355Y-20216392D01*
X64156357Y-20216395D01*
X64173418Y-20234928D01*
X64310573Y-20383917D01*
X64490631Y-20524061D01*
X64614723Y-20591216D01*
X64619129Y-20595443D01*
X64620750Y-20601330D01*
X64620750Y-20725926D01*
X64620473Y-20728435D01*
X64618734Y-20736210D01*
X64618733Y-20736218D01*
X64618577Y-20736917D01*
X64618599Y-20737635D01*
X64618599Y-20737641D01*
X64620744Y-20805873D01*
X64620750Y-20806234D01*
X64620750Y-20835600D01*
X64620794Y-20835952D01*
X64620795Y-20835960D01*
X64621917Y-20844841D01*
X64622002Y-20845921D01*
X64623541Y-20894877D01*
X64623741Y-20895566D01*
X64623742Y-20895571D01*
X64631599Y-20922613D01*
X64631965Y-20924380D01*
X64635494Y-20952318D01*
X64635495Y-20952322D01*
X64635586Y-20953042D01*
X64635853Y-20953716D01*
X64635854Y-20953720D01*
X64653615Y-20998579D01*
X64653965Y-20999601D01*
X64655309Y-21004226D01*
X64667105Y-21044829D01*
X64667632Y-21046640D01*
X64667997Y-21047258D01*
X64667998Y-21047259D01*
X64682337Y-21071506D01*
X64683130Y-21073126D01*
X64693496Y-21099307D01*
X64693498Y-21099311D01*
X64693764Y-21099982D01*
X64694190Y-21100568D01*
X64694191Y-21100570D01*
X64722553Y-21139609D01*
X64723147Y-21140514D01*
X64747709Y-21182044D01*
X64747712Y-21182048D01*
X64748080Y-21182670D01*
X64748588Y-21183178D01*
X64768503Y-21203093D01*
X64769675Y-21204465D01*
X64786656Y-21227837D01*
X64787211Y-21228296D01*
X64824389Y-21259052D01*
X64825191Y-21259781D01*
X65145278Y-21579868D01*
X65148646Y-21588000D01*
X65145278Y-21596132D01*
X65137146Y-21599500D01*
X63763854Y-21599500D01*
X63759453Y-21598625D01*
X63755722Y-21596132D01*
X63335118Y-21175527D01*
X63331750Y-21167395D01*
X63331750Y-20601330D01*
X63333371Y-20595443D01*
X63337776Y-20591216D01*
X63461869Y-20524061D01*
X63641927Y-20383917D01*
X63796463Y-20216047D01*
X63921260Y-20025030D01*
X63965719Y-19923671D01*
X63971922Y-19917636D01*
X63980578Y-19917636D01*
X63986780Y-19923671D01*
G37*
%TD.AperFunction*%
%TA.AperFunction,NonConductor*%
G36*
X66526780Y-19923671D02*
G01*
X66571240Y-20025030D01*
X66696037Y-20216047D01*
X66696355Y-20216392D01*
X66696357Y-20216395D01*
X66713418Y-20234928D01*
X66850573Y-20383917D01*
X67030631Y-20524061D01*
X67231300Y-20632658D01*
X67331314Y-20666993D01*
X67445912Y-20706335D01*
X67447107Y-20706745D01*
X67672165Y-20744300D01*
X67899854Y-20744300D01*
X67900335Y-20744300D01*
X68029640Y-20722722D01*
X68036485Y-20723687D01*
X68041541Y-20728404D01*
X68042978Y-20735168D01*
X68040276Y-20741534D01*
X67875877Y-20934021D01*
X67875873Y-20934025D01*
X67875588Y-20934360D01*
X67875358Y-20934734D01*
X67875353Y-20934742D01*
X67740082Y-21155486D01*
X67740079Y-21155491D01*
X67739846Y-21155872D01*
X67739676Y-21156280D01*
X67739674Y-21156286D01*
X67640596Y-21395479D01*
X67640591Y-21395492D01*
X67640427Y-21395890D01*
X67640324Y-21396318D01*
X67640322Y-21396325D01*
X67580665Y-21644814D01*
X67579779Y-21648506D01*
X67579744Y-21648946D01*
X67579743Y-21648955D01*
X67562957Y-21862256D01*
X67559396Y-21907500D01*
X67559431Y-21907945D01*
X67579743Y-22166044D01*
X67579744Y-22166051D01*
X67579779Y-22166494D01*
X67579884Y-22166934D01*
X67579885Y-22166936D01*
X67595121Y-22230400D01*
X67594475Y-22237694D01*
X67589558Y-22243119D01*
X67582363Y-22244477D01*
X67575807Y-22241217D01*
X66749336Y-21414746D01*
X65919846Y-20585255D01*
X65916635Y-20579016D01*
X65917647Y-20572072D01*
X65922503Y-20567010D01*
X66001869Y-20524061D01*
X66181927Y-20383917D01*
X66336463Y-20216047D01*
X66461260Y-20025030D01*
X66505719Y-19923671D01*
X66511922Y-19917636D01*
X66520578Y-19917636D01*
X66526780Y-19923671D01*
G37*
%TD.AperFunction*%
%TA.AperFunction,NonConductor*%
G36*
X47323028Y-23601368D02*
G01*
X47524028Y-23802368D01*
X47527396Y-23810500D01*
X47524028Y-23818632D01*
X47515896Y-23822000D01*
X45350082Y-23822000D01*
X45343693Y-23820062D01*
X45339457Y-23814901D01*
X45338194Y-23811852D01*
X45290154Y-23695872D01*
X45244878Y-23621988D01*
X45240908Y-23615509D01*
X45239355Y-23607701D01*
X45243244Y-23600755D01*
X45250713Y-23598000D01*
X47314896Y-23598000D01*
X47323028Y-23601368D01*
G37*
%TD.AperFunction*%
%TA.AperFunction,NonConductor*%
G36*
X53826780Y-19923671D02*
G01*
X53871240Y-20025030D01*
X53996037Y-20216047D01*
X53996355Y-20216392D01*
X53996357Y-20216395D01*
X54013418Y-20234928D01*
X54150573Y-20383917D01*
X54330631Y-20524061D01*
X54454723Y-20591216D01*
X54459129Y-20595443D01*
X54460750Y-20601330D01*
X54460750Y-23231145D01*
X54457382Y-23239277D01*
X53878027Y-23818632D01*
X53869895Y-23822000D01*
X52496605Y-23822000D01*
X52488473Y-23818632D01*
X52485105Y-23810500D01*
X52488473Y-23802368D01*
X52857620Y-23433221D01*
X52857622Y-23433218D01*
X52857622Y-23433217D01*
X52938825Y-23352014D01*
X52940791Y-23350441D01*
X52947511Y-23346177D01*
X52947511Y-23346176D01*
X52948127Y-23345786D01*
X52995368Y-23295478D01*
X52995590Y-23295250D01*
X53016110Y-23274731D01*
X53016110Y-23274730D01*
X53016370Y-23274471D01*
X53022089Y-23267096D01*
X53022776Y-23266292D01*
X53056312Y-23230582D01*
X53070230Y-23205263D01*
X53071219Y-23203759D01*
X53088479Y-23181509D01*
X53088480Y-23181506D01*
X53088923Y-23180936D01*
X53108384Y-23135960D01*
X53108835Y-23135039D01*
X53132447Y-23092092D01*
X53139634Y-23064097D01*
X53140210Y-23062414D01*
X53151687Y-23035896D01*
X53159350Y-22987510D01*
X53159560Y-22986489D01*
X53171750Y-22939019D01*
X53171750Y-22910128D01*
X53171892Y-22908329D01*
X53176410Y-22879804D01*
X53171800Y-22831046D01*
X53171750Y-22829965D01*
X53171750Y-22618673D01*
X53669750Y-22618673D01*
X53882864Y-22831787D01*
X53962750Y-22751901D01*
X53962750Y-21494632D01*
X53882864Y-21414746D01*
X53669750Y-21627860D01*
X53669750Y-22618673D01*
X53171750Y-22618673D01*
X53171750Y-20601330D01*
X53173371Y-20595443D01*
X53177776Y-20591216D01*
X53301869Y-20524061D01*
X53481927Y-20383917D01*
X53636463Y-20216047D01*
X53761260Y-20025030D01*
X53805719Y-19923671D01*
X53811922Y-19917636D01*
X53820578Y-19917636D01*
X53826780Y-19923671D01*
G37*
%TD.AperFunction*%
%TA.AperFunction,NonConductor*%
G36*
X71047898Y-20549395D02*
G01*
X71051921Y-20554051D01*
X71132776Y-20725005D01*
X71133208Y-20726048D01*
X71265072Y-21094584D01*
X71265399Y-21095664D01*
X71360501Y-21475333D01*
X71360722Y-21476440D01*
X71418157Y-21863628D01*
X71418267Y-21864751D01*
X71437486Y-22255965D01*
X71437500Y-22256529D01*
X71437500Y-25899102D01*
X71435206Y-25905994D01*
X71429240Y-25910136D01*
X71335311Y-25937716D01*
X71335308Y-25937717D01*
X71334791Y-25937869D01*
X71334314Y-25938114D01*
X71334311Y-25938116D01*
X71248492Y-25982359D01*
X71147269Y-26034543D01*
X71139645Y-26035577D01*
X71133074Y-26031572D01*
X71130500Y-26024321D01*
X71130500Y-26016010D01*
X71130500Y-26015650D01*
X71129330Y-26006393D01*
X71129248Y-26005351D01*
X71127710Y-25956373D01*
X71119648Y-25928626D01*
X71119283Y-25926861D01*
X71115664Y-25898208D01*
X71097626Y-25852652D01*
X71097286Y-25851656D01*
X71083618Y-25804610D01*
X71068909Y-25779738D01*
X71068117Y-25778119D01*
X71067856Y-25777460D01*
X71057486Y-25751268D01*
X71028692Y-25711637D01*
X71028100Y-25710735D01*
X71007023Y-25675096D01*
X71003170Y-25668580D01*
X70982742Y-25648152D01*
X70981570Y-25646779D01*
X70973463Y-25635620D01*
X70964594Y-25623413D01*
X70926859Y-25592196D01*
X70926057Y-25591467D01*
X69509901Y-24175311D01*
X70214181Y-24175311D01*
X70922701Y-24883831D01*
X70926000Y-24880534D01*
X70926000Y-23608639D01*
X70853426Y-23536065D01*
X70214181Y-24175311D01*
X69509901Y-24175311D01*
X68881282Y-23546692D01*
X68878022Y-23540136D01*
X68879380Y-23532941D01*
X68884805Y-23528024D01*
X68892098Y-23527378D01*
X68956006Y-23542721D01*
X69215000Y-23563104D01*
X69473994Y-23542721D01*
X69726610Y-23482073D01*
X69966628Y-23382654D01*
X70188140Y-23246912D01*
X70385689Y-23078189D01*
X70554412Y-22880640D01*
X70690154Y-22659128D01*
X70789573Y-22419110D01*
X70850221Y-22166494D01*
X70869556Y-21920815D01*
X70870569Y-21907945D01*
X70870604Y-21907500D01*
X70850221Y-21648506D01*
X70789573Y-21395890D01*
X70778511Y-21369185D01*
X70737910Y-21271165D01*
X70690154Y-21155872D01*
X70554412Y-20934360D01*
X70408285Y-20763268D01*
X70405547Y-20755198D01*
X70409115Y-20747458D01*
X70417031Y-20744300D01*
X70439854Y-20744300D01*
X70440335Y-20744300D01*
X70665393Y-20706745D01*
X70881200Y-20632658D01*
X71036059Y-20548852D01*
X71042050Y-20547480D01*
X71047898Y-20549395D01*
G37*
%TD.AperFunction*%
%TA.AperFunction,NonConductor*%
G36*
X69701382Y-26135972D02*
G01*
X69876132Y-26310722D01*
X69879500Y-26318854D01*
X69879500Y-31624896D01*
X69878625Y-31629297D01*
X69876132Y-31633028D01*
X68663675Y-32845482D01*
X68661706Y-32847059D01*
X68654982Y-32851326D01*
X68654974Y-32851332D01*
X68654373Y-32851714D01*
X68635526Y-32871783D01*
X68607161Y-32901988D01*
X68606910Y-32902246D01*
X68586390Y-32922767D01*
X68586375Y-32922783D01*
X68586130Y-32923029D01*
X68585917Y-32923302D01*
X68585913Y-32923308D01*
X68583546Y-32926358D01*
X68580410Y-32930400D01*
X68579715Y-32931214D01*
X68546684Y-32966388D01*
X68546678Y-32966395D01*
X68546188Y-32966918D01*
X68545839Y-32967551D01*
X68545840Y-32967551D01*
X68532272Y-32992230D01*
X68531282Y-32993737D01*
X68514020Y-33015992D01*
X68514017Y-33015995D01*
X68513577Y-33016564D01*
X68513291Y-33017222D01*
X68513290Y-33017226D01*
X68494125Y-33061511D01*
X68493649Y-33062483D01*
X68470401Y-33104773D01*
X68470398Y-33104780D01*
X68470053Y-33105408D01*
X68469874Y-33106101D01*
X68469872Y-33106109D01*
X68462869Y-33133385D01*
X68462284Y-33135092D01*
X68451101Y-33160934D01*
X68451099Y-33160940D01*
X68450812Y-33161604D01*
X68450698Y-33162318D01*
X68450697Y-33162325D01*
X68443150Y-33209974D01*
X68442931Y-33211035D01*
X68430928Y-33257785D01*
X68430927Y-33257790D01*
X68430750Y-33258481D01*
X68430750Y-33259200D01*
X68430750Y-33287371D01*
X68430608Y-33289169D01*
X68426090Y-33317696D01*
X68426157Y-33318407D01*
X68426157Y-33318414D01*
X68430699Y-33366453D01*
X68430750Y-33367535D01*
X68430750Y-33371505D01*
X68428127Y-33378816D01*
X68421455Y-33382792D01*
X68413777Y-33381619D01*
X68341200Y-33342342D01*
X68340752Y-33342188D01*
X68340747Y-33342186D01*
X68125838Y-33268407D01*
X68125829Y-33268404D01*
X68125393Y-33268255D01*
X68124929Y-33268177D01*
X68124927Y-33268177D01*
X67900810Y-33230779D01*
X67900806Y-33230778D01*
X67900335Y-33230700D01*
X67694153Y-33230700D01*
X67686021Y-33227332D01*
X67682653Y-33219200D01*
X67686021Y-33211068D01*
X68523082Y-32374007D01*
X69448828Y-31448261D01*
X69450787Y-31446693D01*
X69458127Y-31442036D01*
X69505367Y-31391729D01*
X69505589Y-31391501D01*
X69526110Y-31370981D01*
X69526110Y-31370980D01*
X69526370Y-31370721D01*
X69532089Y-31363346D01*
X69532776Y-31362542D01*
X69566312Y-31326832D01*
X69580230Y-31301513D01*
X69581219Y-31300009D01*
X69598479Y-31277759D01*
X69598480Y-31277756D01*
X69598923Y-31277186D01*
X69618386Y-31232207D01*
X69618841Y-31231278D01*
X69642447Y-31188342D01*
X69649629Y-31160364D01*
X69650212Y-31158662D01*
X69661688Y-31132146D01*
X69669352Y-31083753D01*
X69669562Y-31082732D01*
X69681750Y-31035269D01*
X69681750Y-31006379D01*
X69681892Y-31004580D01*
X69686410Y-30976054D01*
X69681800Y-30927296D01*
X69681750Y-30926215D01*
X69681750Y-26144104D01*
X69685118Y-26135972D01*
X69693250Y-26132604D01*
X69701382Y-26135972D01*
G37*
%TD.AperFunction*%
%TA.AperFunction,NonConductor*%
G36*
X58906780Y-19923671D02*
G01*
X58951240Y-20025030D01*
X59076037Y-20216047D01*
X59076355Y-20216392D01*
X59076357Y-20216395D01*
X59093418Y-20234928D01*
X59230573Y-20383917D01*
X59410631Y-20524061D01*
X59534723Y-20591216D01*
X59539129Y-20595443D01*
X59540750Y-20601330D01*
X59540750Y-21678426D01*
X59540473Y-21680935D01*
X59538734Y-21688710D01*
X59538733Y-21688718D01*
X59538577Y-21689417D01*
X59538599Y-21690135D01*
X59538599Y-21690141D01*
X59540744Y-21758373D01*
X59540750Y-21758734D01*
X59540750Y-21788100D01*
X59540794Y-21788452D01*
X59540795Y-21788460D01*
X59541917Y-21797341D01*
X59542002Y-21798421D01*
X59543541Y-21847377D01*
X59543741Y-21848066D01*
X59543742Y-21848071D01*
X59551599Y-21875113D01*
X59551965Y-21876880D01*
X59555494Y-21904818D01*
X59555495Y-21904822D01*
X59555586Y-21905542D01*
X59555853Y-21906216D01*
X59555854Y-21906220D01*
X59573615Y-21951079D01*
X59573966Y-21952103D01*
X59586476Y-21995163D01*
X59587632Y-21999140D01*
X59587997Y-21999758D01*
X59587998Y-21999759D01*
X59602337Y-22024006D01*
X59603130Y-22025626D01*
X59613496Y-22051807D01*
X59613498Y-22051811D01*
X59613764Y-22052482D01*
X59614190Y-22053068D01*
X59614191Y-22053070D01*
X59642553Y-22092109D01*
X59643147Y-22093014D01*
X59667709Y-22134544D01*
X59667712Y-22134548D01*
X59668080Y-22135170D01*
X59668588Y-22135678D01*
X59688503Y-22155593D01*
X59689675Y-22156965D01*
X59706656Y-22180337D01*
X59707211Y-22180796D01*
X59744389Y-22211552D01*
X59745191Y-22212281D01*
X61337237Y-23804327D01*
X61340384Y-23810215D01*
X61339730Y-23816860D01*
X61290596Y-23935479D01*
X61290591Y-23935492D01*
X61290427Y-23935890D01*
X61290324Y-23936318D01*
X61290322Y-23936325D01*
X61229885Y-24188063D01*
X61229779Y-24188506D01*
X61229744Y-24188946D01*
X61229743Y-24188955D01*
X61216042Y-24363051D01*
X61209396Y-24447500D01*
X61209431Y-24447945D01*
X61229743Y-24706044D01*
X61229744Y-24706051D01*
X61229779Y-24706494D01*
X61229884Y-24706934D01*
X61229885Y-24706936D01*
X61288985Y-24953107D01*
X61290427Y-24959110D01*
X61290593Y-24959510D01*
X61290596Y-24959520D01*
X61346464Y-25094395D01*
X61389846Y-25199128D01*
X61390082Y-25199513D01*
X61505327Y-25387578D01*
X61525588Y-25420640D01*
X61694311Y-25618189D01*
X61891860Y-25786912D01*
X62113372Y-25922654D01*
X62194777Y-25956373D01*
X62352979Y-26021903D01*
X62352981Y-26021903D01*
X62353390Y-26022073D01*
X62606006Y-26082721D01*
X62865000Y-26103104D01*
X63123994Y-26082721D01*
X63376610Y-26022073D01*
X63616628Y-25922654D01*
X63838140Y-25786912D01*
X64035689Y-25618189D01*
X64204412Y-25420640D01*
X64340154Y-25199128D01*
X64439573Y-24959110D01*
X64500221Y-24706494D01*
X64520604Y-24447500D01*
X64500221Y-24188506D01*
X64439573Y-23935890D01*
X64429892Y-23912519D01*
X64389612Y-23815273D01*
X64340154Y-23695872D01*
X64204412Y-23474360D01*
X64035689Y-23276811D01*
X63838140Y-23108088D01*
X63813068Y-23092724D01*
X63617013Y-22972582D01*
X63616628Y-22972346D01*
X63537848Y-22939714D01*
X63377020Y-22873096D01*
X63377010Y-22873093D01*
X63376610Y-22872927D01*
X63376177Y-22872823D01*
X63376174Y-22872822D01*
X63124436Y-22812385D01*
X63124434Y-22812384D01*
X63123994Y-22812279D01*
X63123551Y-22812244D01*
X63123544Y-22812243D01*
X62865445Y-22791931D01*
X62865000Y-22791896D01*
X62864555Y-22791931D01*
X62606455Y-22812243D01*
X62606446Y-22812244D01*
X62606006Y-22812279D01*
X62605567Y-22812384D01*
X62605563Y-22812385D01*
X62353825Y-22872822D01*
X62353818Y-22872824D01*
X62353390Y-22872927D01*
X62352992Y-22873091D01*
X62352979Y-22873096D01*
X62234360Y-22922230D01*
X62227715Y-22922884D01*
X62221827Y-22919737D01*
X60795118Y-21493027D01*
X60791750Y-21484895D01*
X60791750Y-20601330D01*
X60793371Y-20595443D01*
X60797776Y-20591216D01*
X60921869Y-20524061D01*
X61101927Y-20383917D01*
X61256463Y-20216047D01*
X61381260Y-20025030D01*
X61425719Y-19923671D01*
X61431922Y-19917636D01*
X61440578Y-19917636D01*
X61446780Y-19923671D01*
X61491240Y-20025030D01*
X61616037Y-20216047D01*
X61616355Y-20216392D01*
X61616357Y-20216395D01*
X61633418Y-20234928D01*
X61770573Y-20383917D01*
X61950631Y-20524061D01*
X62074723Y-20591216D01*
X62079129Y-20595443D01*
X62080750Y-20601330D01*
X62080750Y-21360926D01*
X62080473Y-21363435D01*
X62078734Y-21371210D01*
X62078733Y-21371218D01*
X62078577Y-21371917D01*
X62078599Y-21372635D01*
X62078599Y-21372641D01*
X62080744Y-21440873D01*
X62080750Y-21441234D01*
X62080750Y-21470600D01*
X62080794Y-21470952D01*
X62080795Y-21470960D01*
X62081917Y-21479841D01*
X62082002Y-21480921D01*
X62083541Y-21529877D01*
X62083741Y-21530566D01*
X62083742Y-21530571D01*
X62091599Y-21557613D01*
X62091965Y-21559380D01*
X62095494Y-21587318D01*
X62095495Y-21587322D01*
X62095586Y-21588042D01*
X62095853Y-21588716D01*
X62095854Y-21588720D01*
X62113615Y-21633579D01*
X62113965Y-21634601D01*
X62127632Y-21681640D01*
X62127997Y-21682258D01*
X62127998Y-21682259D01*
X62142337Y-21706506D01*
X62143130Y-21708126D01*
X62153496Y-21734307D01*
X62153498Y-21734311D01*
X62153764Y-21734982D01*
X62154190Y-21735568D01*
X62154191Y-21735570D01*
X62182553Y-21774609D01*
X62183147Y-21775514D01*
X62207709Y-21817044D01*
X62207712Y-21817048D01*
X62208080Y-21817670D01*
X62208587Y-21818177D01*
X62208588Y-21818178D01*
X62228503Y-21838093D01*
X62229675Y-21839465D01*
X62246656Y-21862837D01*
X62247211Y-21863296D01*
X62284389Y-21894052D01*
X62285191Y-21894781D01*
X63007980Y-22617571D01*
X63009558Y-22619541D01*
X63012885Y-22624784D01*
X63014214Y-22626877D01*
X63014742Y-22627373D01*
X63014744Y-22627375D01*
X63064487Y-22674087D01*
X63064747Y-22674338D01*
X63085529Y-22695120D01*
X63085806Y-22695335D01*
X63085813Y-22695341D01*
X63092897Y-22700837D01*
X63093720Y-22701540D01*
X63129418Y-22735062D01*
X63130045Y-22735407D01*
X63130047Y-22735408D01*
X63154733Y-22748979D01*
X63156241Y-22749970D01*
X63158731Y-22751901D01*
X63179064Y-22767673D01*
X63213873Y-22782736D01*
X63224010Y-22787123D01*
X63224983Y-22787599D01*
X63232863Y-22791931D01*
X63267908Y-22811197D01*
X63295888Y-22818380D01*
X63297582Y-22818960D01*
X63324104Y-22830438D01*
X63372491Y-22838101D01*
X63373520Y-22838313D01*
X63420981Y-22850500D01*
X63449871Y-22850500D01*
X63451669Y-22850641D01*
X63480196Y-22855160D01*
X63528953Y-22850550D01*
X63530035Y-22850500D01*
X64998777Y-22850500D01*
X65003178Y-22851375D01*
X65006909Y-22853868D01*
X66883090Y-24730050D01*
X66886306Y-24736317D01*
X66885265Y-24743283D01*
X66880358Y-24748335D01*
X66873425Y-24749579D01*
X66825628Y-24743151D01*
X66825620Y-24743150D01*
X66825245Y-24743100D01*
X66599967Y-24743100D01*
X66599795Y-24743111D01*
X66599780Y-24743112D01*
X66375564Y-24758122D01*
X66375558Y-24758122D01*
X66375181Y-24758148D01*
X66374815Y-24758222D01*
X66374810Y-24758223D01*
X66081084Y-24817925D01*
X66081075Y-24817927D01*
X66080713Y-24818001D01*
X66080356Y-24818124D01*
X66080352Y-24818126D01*
X65797213Y-24916442D01*
X65797205Y-24916445D01*
X65796849Y-24916569D01*
X65796508Y-24916741D01*
X65796504Y-24916743D01*
X65529003Y-25051917D01*
X65528989Y-25051924D01*
X65528657Y-25052093D01*
X65528348Y-25052305D01*
X65528333Y-25052314D01*
X65281241Y-25221933D01*
X65281234Y-25221938D01*
X65280920Y-25222154D01*
X65280644Y-25222402D01*
X65280632Y-25222413D01*
X65058343Y-25423462D01*
X65058335Y-25423469D01*
X65058061Y-25423718D01*
X65057821Y-25424001D01*
X65057815Y-25424008D01*
X64864302Y-25652897D01*
X64864295Y-25652906D01*
X64864057Y-25653188D01*
X64863856Y-25653502D01*
X64863850Y-25653511D01*
X64702572Y-25906149D01*
X64702568Y-25906156D01*
X64702369Y-25906468D01*
X64702215Y-25906797D01*
X64702212Y-25906805D01*
X64576038Y-26178702D01*
X64576033Y-26178712D01*
X64575882Y-26179040D01*
X64575772Y-26179393D01*
X64575771Y-26179397D01*
X64486967Y-26465670D01*
X64486963Y-26465686D01*
X64486854Y-26466038D01*
X64486792Y-26466401D01*
X64486789Y-26466417D01*
X64436936Y-26761968D01*
X64436934Y-26761983D01*
X64436874Y-26762342D01*
X64436861Y-26762711D01*
X64436861Y-26762718D01*
X64426845Y-27062289D01*
X64426845Y-27062297D01*
X64426833Y-27062664D01*
X64426869Y-27063027D01*
X64426870Y-27063041D01*
X64456872Y-27361267D01*
X64456874Y-27361281D01*
X64456911Y-27361645D01*
X64526570Y-27653949D01*
X64526704Y-27654299D01*
X64526707Y-27654306D01*
X64634434Y-27934010D01*
X64634569Y-27934360D01*
X64634747Y-27934685D01*
X64634749Y-27934689D01*
X64699710Y-28053228D01*
X64778979Y-28197875D01*
X64957223Y-28439790D01*
X64983405Y-28466862D01*
X65090971Y-28578085D01*
X65166121Y-28655789D01*
X65401946Y-28842018D01*
X65660487Y-28995152D01*
X65937133Y-29112460D01*
X66226946Y-29191848D01*
X66524755Y-29231900D01*
X66749851Y-29231900D01*
X66750033Y-29231900D01*
X66974819Y-29216852D01*
X67269287Y-29156999D01*
X67553151Y-29058431D01*
X67821343Y-28922907D01*
X68069080Y-28752846D01*
X68291939Y-28551282D01*
X68390894Y-28434237D01*
X68410468Y-28411085D01*
X68416305Y-28407394D01*
X68423203Y-28407711D01*
X68428676Y-28411923D01*
X68430750Y-28418510D01*
X68430750Y-30692396D01*
X68429875Y-30696797D01*
X68427382Y-30700528D01*
X66192375Y-32935532D01*
X66190406Y-32937109D01*
X66183682Y-32941376D01*
X66183674Y-32941382D01*
X66183073Y-32941764D01*
X66159949Y-32966388D01*
X66135861Y-32992038D01*
X66135610Y-32992296D01*
X66115090Y-33012817D01*
X66115075Y-33012833D01*
X66114830Y-33013079D01*
X66114617Y-33013352D01*
X66114613Y-33013358D01*
X66112570Y-33015992D01*
X66109110Y-33020450D01*
X66108415Y-33021264D01*
X66075384Y-33056438D01*
X66075378Y-33056445D01*
X66074888Y-33056968D01*
X66074539Y-33057601D01*
X66074540Y-33057601D01*
X66060972Y-33082280D01*
X66059982Y-33083787D01*
X66042720Y-33106042D01*
X66042717Y-33106045D01*
X66042277Y-33106614D01*
X66041991Y-33107272D01*
X66041990Y-33107276D01*
X66022825Y-33151561D01*
X66022349Y-33152533D01*
X65999101Y-33194823D01*
X65999098Y-33194830D01*
X65998753Y-33195458D01*
X65998574Y-33196151D01*
X65998572Y-33196159D01*
X65991569Y-33223435D01*
X65990984Y-33225142D01*
X65979801Y-33250984D01*
X65979799Y-33250990D01*
X65979512Y-33251654D01*
X65979398Y-33252368D01*
X65979397Y-33252375D01*
X65971850Y-33300024D01*
X65971631Y-33301085D01*
X65959628Y-33347835D01*
X65959627Y-33347840D01*
X65959450Y-33348531D01*
X65959450Y-33349250D01*
X65959450Y-33377421D01*
X65959308Y-33379219D01*
X65954790Y-33407746D01*
X65954497Y-33407699D01*
X65952126Y-33413749D01*
X65945495Y-33417545D01*
X65937949Y-33416347D01*
X65807244Y-33345613D01*
X65801200Y-33342342D01*
X65800752Y-33342188D01*
X65800747Y-33342186D01*
X65585838Y-33268407D01*
X65585829Y-33268404D01*
X65585393Y-33268255D01*
X65584929Y-33268177D01*
X65584927Y-33268177D01*
X65360810Y-33230779D01*
X65360806Y-33230778D01*
X65360335Y-33230700D01*
X65132165Y-33230700D01*
X65131694Y-33230778D01*
X65131689Y-33230779D01*
X64907572Y-33268177D01*
X64907567Y-33268178D01*
X64907107Y-33268255D01*
X64906673Y-33268403D01*
X64906661Y-33268407D01*
X64691752Y-33342186D01*
X64691743Y-33342189D01*
X64691300Y-33342342D01*
X64690881Y-33342568D01*
X64690878Y-33342570D01*
X64687423Y-33344440D01*
X64679745Y-33345613D01*
X64673073Y-33341637D01*
X64670450Y-33334326D01*
X64670450Y-31820324D01*
X64670727Y-31817815D01*
X64672465Y-31810039D01*
X64672623Y-31809333D01*
X64670455Y-31740376D01*
X64670450Y-31740016D01*
X64670450Y-31711010D01*
X64670450Y-31710650D01*
X64669279Y-31701386D01*
X64669197Y-31700344D01*
X64667659Y-31651373D01*
X64659598Y-31623631D01*
X64659233Y-31621866D01*
X64655705Y-31593931D01*
X64655614Y-31593208D01*
X64637575Y-31547649D01*
X64637235Y-31546653D01*
X64623568Y-31499610D01*
X64608859Y-31474738D01*
X64608067Y-31473119D01*
X64597436Y-31446268D01*
X64568642Y-31406637D01*
X64568050Y-31405735D01*
X64562998Y-31397193D01*
X65113618Y-31397193D01*
X65118640Y-31409876D01*
X65118885Y-31410556D01*
X65137315Y-31467272D01*
X65137517Y-31467966D01*
X65138234Y-31470758D01*
X65138391Y-31471463D01*
X65147945Y-31521553D01*
X65159079Y-31571361D01*
X65159214Y-31572071D01*
X65159665Y-31574919D01*
X65159756Y-31575636D01*
X65165368Y-31635023D01*
X65165413Y-31635744D01*
X65166438Y-31668429D01*
X65167365Y-31678207D01*
X65167393Y-31678568D01*
X65167484Y-31680010D01*
X65167501Y-31680372D01*
X65168444Y-31710288D01*
X65168450Y-31710650D01*
X65168450Y-31732372D01*
X65170377Y-31793691D01*
X65170377Y-31794413D01*
X65168507Y-31853986D01*
X65168462Y-31854706D01*
X65168450Y-31854833D01*
X65168450Y-31996053D01*
X65550125Y-32377728D01*
X66258646Y-31669207D01*
X65550125Y-30960686D01*
X65113618Y-31397193D01*
X64562998Y-31397193D01*
X64543120Y-31363580D01*
X64522692Y-31343151D01*
X64521520Y-31341779D01*
X64511042Y-31327357D01*
X64504544Y-31318413D01*
X64484121Y-31301518D01*
X64466809Y-31287196D01*
X64466007Y-31286467D01*
X63432376Y-30252836D01*
X64136656Y-30252836D01*
X64801930Y-30918110D01*
X64821980Y-30934697D01*
X64822522Y-30935175D01*
X64847707Y-30958825D01*
X65197985Y-30608547D01*
X65902265Y-30608547D01*
X66610786Y-31317068D01*
X67319306Y-30608547D01*
X66610786Y-29900027D01*
X65902265Y-30608547D01*
X65197985Y-30608547D01*
X64489465Y-29900026D01*
X64136656Y-30252836D01*
X63432376Y-30252836D01*
X62371716Y-29192176D01*
X63075996Y-29192176D01*
X63784516Y-29900696D01*
X64137325Y-29547886D01*
X64841604Y-29547886D01*
X65550125Y-30256407D01*
X66109412Y-29697119D01*
X67112158Y-29697119D01*
X67671446Y-30256407D01*
X67932750Y-29995104D01*
X67932750Y-29424582D01*
X67777755Y-29502905D01*
X67777409Y-29503073D01*
X67748611Y-29516437D01*
X67748259Y-29516593D01*
X67746844Y-29517193D01*
X67746488Y-29517337D01*
X67716867Y-29528745D01*
X67716506Y-29528877D01*
X67432642Y-29627445D01*
X67432278Y-29627564D01*
X67402050Y-29636944D01*
X67401682Y-29637052D01*
X67400201Y-29637458D01*
X67399828Y-29637553D01*
X67368858Y-29644937D01*
X67368482Y-29645021D01*
X67112158Y-29697119D01*
X66109412Y-29697119D01*
X66126870Y-29679661D01*
X66126600Y-29679602D01*
X66095749Y-29672249D01*
X66095377Y-29672153D01*
X65805564Y-29592765D01*
X65805194Y-29592658D01*
X65774832Y-29583238D01*
X65774467Y-29583117D01*
X65773016Y-29582613D01*
X65772655Y-29582481D01*
X65743075Y-29571087D01*
X65742720Y-29570943D01*
X65466074Y-29453635D01*
X65465726Y-29453481D01*
X65437252Y-29440280D01*
X65436910Y-29440115D01*
X65435538Y-29439423D01*
X65435194Y-29439242D01*
X65407035Y-29423825D01*
X65406697Y-29423633D01*
X65148156Y-29270499D01*
X65147826Y-29270295D01*
X65130355Y-29259135D01*
X64841604Y-29547886D01*
X64137325Y-29547886D01*
X63428805Y-28839366D01*
X63075996Y-29192176D01*
X62371716Y-29192176D01*
X61666766Y-28487226D01*
X63780944Y-28487226D01*
X64489465Y-29195747D01*
X64746727Y-28938485D01*
X64599250Y-28785996D01*
X64598988Y-28785716D01*
X64577738Y-28762226D01*
X64577485Y-28761937D01*
X64576493Y-28760764D01*
X64576249Y-28760465D01*
X64556532Y-28735499D01*
X64556299Y-28735194D01*
X64378055Y-28493279D01*
X64377833Y-28492966D01*
X64359910Y-28466862D01*
X64359698Y-28466543D01*
X64358871Y-28465248D01*
X64358669Y-28464919D01*
X64342449Y-28437539D01*
X64342258Y-28437205D01*
X64197848Y-28173690D01*
X64197669Y-28173350D01*
X64183365Y-28145047D01*
X64183198Y-28144701D01*
X64182551Y-28143307D01*
X64182395Y-28142956D01*
X64169990Y-28113703D01*
X64169846Y-28113346D01*
X64165669Y-28102501D01*
X63780944Y-28487226D01*
X61666766Y-28487226D01*
X61272509Y-28092969D01*
X61269268Y-28086541D01*
X61270483Y-28079446D01*
X61275678Y-28074463D01*
X61282814Y-28073545D01*
X61487528Y-28113000D01*
X61648345Y-28113000D01*
X61648618Y-28113000D01*
X61808971Y-28097688D01*
X62015209Y-28037131D01*
X62206259Y-27938638D01*
X62375217Y-27805768D01*
X62431392Y-27740939D01*
X63034657Y-27740939D01*
X63428805Y-28135087D01*
X63994476Y-27569415D01*
X63972476Y-27477091D01*
X63972393Y-27476713D01*
X63966043Y-27445440D01*
X63965973Y-27445061D01*
X63965718Y-27443546D01*
X63965660Y-27443168D01*
X63961457Y-27411873D01*
X63961413Y-27411493D01*
X63943421Y-27232662D01*
X63428805Y-26718046D01*
X63217567Y-26929283D01*
X63221775Y-27017603D01*
X63221788Y-27018150D01*
X63221788Y-27063343D01*
X63221775Y-27063890D01*
X63221671Y-27066074D01*
X63221632Y-27066620D01*
X63217335Y-27111625D01*
X63217270Y-27112169D01*
X63186681Y-27324926D01*
X63186590Y-27325465D01*
X63178049Y-27369796D01*
X63177933Y-27370330D01*
X63177418Y-27372454D01*
X63177276Y-27372983D01*
X63164527Y-27416412D01*
X63164361Y-27416934D01*
X63094059Y-27620057D01*
X63093867Y-27620572D01*
X63077013Y-27662654D01*
X63076796Y-27663158D01*
X63075887Y-27665147D01*
X63075649Y-27665638D01*
X63054990Y-27705698D01*
X63054728Y-27706177D01*
X63034657Y-27740939D01*
X62431392Y-27740939D01*
X62515976Y-27643324D01*
X62623448Y-27457177D01*
X62693750Y-27254054D01*
X62724339Y-27041297D01*
X62714112Y-26826596D01*
X62663437Y-26617710D01*
X62628345Y-26540870D01*
X62574371Y-26422682D01*
X62574369Y-26422679D01*
X62574146Y-26422190D01*
X62449466Y-26247101D01*
X62449069Y-26246723D01*
X62449067Y-26246720D01*
X62298445Y-26103104D01*
X62293903Y-26098773D01*
X62293440Y-26098475D01*
X62293437Y-26098473D01*
X62113545Y-25982864D01*
X62113546Y-25982864D01*
X62113080Y-25982565D01*
X62112572Y-25982361D01*
X62112567Y-25982359D01*
X61932161Y-25910136D01*
X61913532Y-25902678D01*
X61866959Y-25893702D01*
X61703013Y-25862104D01*
X61703010Y-25862103D01*
X61702472Y-25862000D01*
X61541382Y-25862000D01*
X61541128Y-25862024D01*
X61541111Y-25862025D01*
X61381573Y-25877259D01*
X61381562Y-25877261D01*
X61381029Y-25877312D01*
X61380509Y-25877464D01*
X61380502Y-25877466D01*
X61175311Y-25937716D01*
X61175308Y-25937717D01*
X61174791Y-25937869D01*
X61174314Y-25938114D01*
X61174311Y-25938116D01*
X60984223Y-26036113D01*
X60984218Y-26036115D01*
X60983741Y-26036362D01*
X60983319Y-26036693D01*
X60983314Y-26036697D01*
X60815205Y-26168899D01*
X60815198Y-26168905D01*
X60814783Y-26169232D01*
X60814431Y-26169637D01*
X60814429Y-26169640D01*
X60674382Y-26331261D01*
X60674374Y-26331271D01*
X60674024Y-26331676D01*
X60673753Y-26332145D01*
X60673749Y-26332151D01*
X60566824Y-26517351D01*
X60566822Y-26517355D01*
X60566552Y-26517823D01*
X60566375Y-26518332D01*
X60566375Y-26518334D01*
X60496427Y-26720432D01*
X60496424Y-26720440D01*
X60496250Y-26720946D01*
X60496173Y-26721477D01*
X60496172Y-26721484D01*
X60465738Y-26933161D01*
X60465737Y-26933170D01*
X60465661Y-26933703D01*
X60465687Y-26934248D01*
X60465687Y-26934249D01*
X60475861Y-27147857D01*
X60475862Y-27147866D01*
X60475888Y-27148404D01*
X60476014Y-27148926D01*
X60476016Y-27148935D01*
X60513616Y-27303924D01*
X60512984Y-27311225D01*
X60508071Y-27316662D01*
X60500871Y-27318027D01*
X60494308Y-27314767D01*
X58255118Y-25075577D01*
X58251750Y-25067445D01*
X58251750Y-24949535D01*
X58833356Y-24949535D01*
X59541876Y-25658055D01*
X59894684Y-25305246D01*
X59186164Y-24596726D01*
X58833356Y-24949535D01*
X58251750Y-24949535D01*
X58251750Y-24244586D01*
X59538304Y-24244586D01*
X60246824Y-24953106D01*
X60712961Y-24486969D01*
X60712930Y-24486572D01*
X60712904Y-24486121D01*
X60711440Y-24448853D01*
X60711431Y-24448402D01*
X60711431Y-24446598D01*
X60711440Y-24446147D01*
X60712904Y-24408879D01*
X60712930Y-24408428D01*
X60733313Y-24149434D01*
X60733358Y-24148983D01*
X60737766Y-24111790D01*
X60737828Y-24111340D01*
X60738111Y-24109557D01*
X60738190Y-24109115D01*
X60745442Y-24072689D01*
X60745539Y-24072250D01*
X60752792Y-24042033D01*
X60246825Y-23536066D01*
X59538304Y-24244586D01*
X58251750Y-24244586D01*
X58251750Y-23456032D01*
X58749750Y-23456032D01*
X59186164Y-23892446D01*
X59894685Y-23183926D01*
X59186164Y-22475405D01*
X58749750Y-22911820D01*
X58749750Y-23456032D01*
X58251750Y-23456032D01*
X58251750Y-20601330D01*
X58253371Y-20595443D01*
X58257776Y-20591216D01*
X58381869Y-20524061D01*
X58561927Y-20383917D01*
X58716463Y-20216047D01*
X58841260Y-20025030D01*
X58885719Y-19923671D01*
X58891922Y-19917636D01*
X58900578Y-19917636D01*
X58906780Y-19923671D01*
G37*
%TD.AperFunction*%
%TA.AperFunction,NonConductor*%
G36*
X71148216Y-27935428D02*
G01*
X71236920Y-27992435D01*
X71430274Y-28069842D01*
X71435524Y-28074072D01*
X71437500Y-28080518D01*
X71437500Y-31718471D01*
X71437486Y-31719035D01*
X71418267Y-32110248D01*
X71418157Y-32111371D01*
X71360722Y-32498559D01*
X71360501Y-32499666D01*
X71265399Y-32879335D01*
X71265072Y-32880415D01*
X71133208Y-33248951D01*
X71132776Y-33249994D01*
X71051921Y-33420947D01*
X71047898Y-33425603D01*
X71042050Y-33427518D01*
X71036052Y-33426144D01*
X71022478Y-33418798D01*
X70881200Y-33342342D01*
X70880752Y-33342188D01*
X70880747Y-33342186D01*
X70665838Y-33268407D01*
X70665829Y-33268404D01*
X70665393Y-33268255D01*
X70664929Y-33268177D01*
X70664927Y-33268177D01*
X70440810Y-33230779D01*
X70440806Y-33230778D01*
X70440335Y-33230700D01*
X70212165Y-33230700D01*
X70211694Y-33230778D01*
X70211689Y-33230779D01*
X70050095Y-33257743D01*
X70043045Y-33256679D01*
X70037977Y-33251663D01*
X70036840Y-33244624D01*
X70040068Y-33238270D01*
X70897578Y-32380761D01*
X70899537Y-32379193D01*
X70906877Y-32374536D01*
X70954117Y-32324229D01*
X70954339Y-32324001D01*
X70974860Y-32303481D01*
X70974860Y-32303480D01*
X70975120Y-32303221D01*
X70980839Y-32295846D01*
X70981526Y-32295042D01*
X71015062Y-32259332D01*
X71028980Y-32234013D01*
X71029969Y-32232509D01*
X71047229Y-32210259D01*
X71047230Y-32210256D01*
X71047673Y-32209686D01*
X71067136Y-32164707D01*
X71067591Y-32163778D01*
X71091197Y-32120842D01*
X71098379Y-32092864D01*
X71098962Y-32091162D01*
X71110438Y-32064646D01*
X71118102Y-32016253D01*
X71118312Y-32015232D01*
X71130500Y-31967769D01*
X71130500Y-31938879D01*
X71130642Y-31937080D01*
X71135160Y-31908554D01*
X71130550Y-31859796D01*
X71130500Y-31858715D01*
X71130500Y-27945103D01*
X71133309Y-27937572D01*
X71140363Y-27933720D01*
X71148216Y-27935428D01*
G37*
%TD.AperFunction*%
%TA.AperFunction,NonConductor*%
G36*
X56366781Y-35163672D02*
G01*
X56400648Y-35240881D01*
X56401265Y-35248323D01*
X56397180Y-35254575D01*
X56390117Y-35257000D01*
X56322383Y-35257000D01*
X56315320Y-35254575D01*
X56311235Y-35248323D01*
X56311852Y-35240881D01*
X56345719Y-35163672D01*
X56351922Y-35157636D01*
X56360578Y-35157636D01*
X56366781Y-35163672D01*
G37*
%TD.AperFunction*%
%TA.AperFunction,NonConductor*%
G36*
X58906780Y-35163671D02*
G01*
X58951240Y-35265030D01*
X59076037Y-35456047D01*
X59230573Y-35623917D01*
X59230955Y-35624214D01*
X59290400Y-35670482D01*
X59294161Y-35675673D01*
X59294559Y-35682072D01*
X59291469Y-35687688D01*
X59275527Y-35703631D01*
X59271796Y-35706125D01*
X59267395Y-35707000D01*
X58488679Y-35707000D01*
X58481997Y-35704859D01*
X58477802Y-35699234D01*
X58477657Y-35692219D01*
X58481616Y-35686425D01*
X58487209Y-35682072D01*
X58561927Y-35623917D01*
X58716463Y-35456047D01*
X58841260Y-35265030D01*
X58885719Y-35163671D01*
X58891922Y-35157636D01*
X58900578Y-35157636D01*
X58906780Y-35163671D01*
G37*
%TD.AperFunction*%
%TA.AperFunction,NonConductor*%
G36*
X48746780Y-35163671D02*
G01*
X48791240Y-35265030D01*
X48916037Y-35456047D01*
X49070573Y-35623917D01*
X49070955Y-35624214D01*
X49165980Y-35698175D01*
X49169939Y-35703969D01*
X49169794Y-35710984D01*
X49165599Y-35716609D01*
X49158917Y-35718750D01*
X48313583Y-35718750D01*
X48306901Y-35716609D01*
X48302706Y-35710984D01*
X48302561Y-35703969D01*
X48306520Y-35698175D01*
X48331823Y-35678481D01*
X48401927Y-35623917D01*
X48556463Y-35456047D01*
X48681260Y-35265030D01*
X48725719Y-35163671D01*
X48731922Y-35157636D01*
X48740578Y-35157636D01*
X48746780Y-35163671D01*
G37*
%TD.AperFunction*%
%TA.AperFunction,NonConductor*%
G36*
X51286780Y-35163671D02*
G01*
X51331240Y-35265030D01*
X51456037Y-35456047D01*
X51610573Y-35623917D01*
X51610955Y-35624214D01*
X51705980Y-35698175D01*
X51709939Y-35703969D01*
X51709794Y-35710984D01*
X51705599Y-35716609D01*
X51698917Y-35718750D01*
X50853583Y-35718750D01*
X50846901Y-35716609D01*
X50842706Y-35710984D01*
X50842561Y-35703969D01*
X50846520Y-35698175D01*
X50871823Y-35678481D01*
X50941927Y-35623917D01*
X51096463Y-35456047D01*
X51221260Y-35265030D01*
X51265719Y-35163671D01*
X51271922Y-35157636D01*
X51280578Y-35157636D01*
X51286780Y-35163671D01*
G37*
%TD.AperFunction*%
%TA.AperFunction,NonConductor*%
G36*
X53826780Y-35163671D02*
G01*
X53871240Y-35265030D01*
X53996037Y-35456047D01*
X53996355Y-35456392D01*
X53996357Y-35456395D01*
X54085940Y-35553708D01*
X54088977Y-35561735D01*
X54085611Y-35569629D01*
X53939859Y-35715382D01*
X53936128Y-35717875D01*
X53931727Y-35718750D01*
X53393583Y-35718750D01*
X53386901Y-35716609D01*
X53382706Y-35710984D01*
X53382561Y-35703969D01*
X53386520Y-35698175D01*
X53411823Y-35678481D01*
X53481927Y-35623917D01*
X53636463Y-35456047D01*
X53761260Y-35265030D01*
X53805719Y-35163671D01*
X53811922Y-35157636D01*
X53820578Y-35157636D01*
X53826780Y-35163671D01*
G37*
%TD.AperFunction*%
%TA.AperFunction,NonConductor*%
G36*
X61446780Y-35163671D02*
G01*
X61491240Y-35265030D01*
X61616037Y-35456047D01*
X61770573Y-35623917D01*
X61770955Y-35624214D01*
X61865980Y-35698175D01*
X61869939Y-35703969D01*
X61869794Y-35710984D01*
X61865599Y-35716609D01*
X61858917Y-35718750D01*
X61013583Y-35718750D01*
X61006901Y-35716609D01*
X61002706Y-35710984D01*
X61002561Y-35703969D01*
X61006520Y-35698175D01*
X61031823Y-35678481D01*
X61101927Y-35623917D01*
X61256463Y-35456047D01*
X61381260Y-35265030D01*
X61425719Y-35163671D01*
X61431922Y-35157636D01*
X61440578Y-35157636D01*
X61446780Y-35163671D01*
G37*
%TD.AperFunction*%
M02*
