M48
; DRILL file {KiCad (7.0.0)} date Sun Sep 10 22:45:06 2023
; FORMAT={-:-/ absolute / inch / decimal}
; #@! TF.CreationDate,2023-09-10T22:45:06+02:00
; #@! TF.GenerationSoftware,Kicad,Pcbnew,(7.0.0)
; #@! TF.FileFunction,NonPlated,1,2,NPTH
FMAT,2
INCH
; #@! TA.AperFunction,NonPlated,NPTH,ComponentDrill
T1C0.0689
; #@! TA.AperFunction,NonPlated,NPTH,ComponentDrill
T2C0.1200
; #@! TA.AperFunction,NonPlated,NPTH,ComponentDrill
T3C0.1570
%
G90
G05
T1
X1.3Y-2.5625
X1.3Y-3.3125
X1.4875Y-1.8125
X1.675Y-1.0625
X1.7Y-2.5625
X1.7Y-3.3125
X1.8875Y-1.8125
X2.05Y-2.5625
X2.075Y-1.0625
X2.2375Y-1.8125
X2.425Y-1.0625
X2.425Y-3.3125
X2.45Y-2.5625
X2.6375Y-1.8125
X2.8Y-2.5625
X2.825Y-1.0625
X2.825Y-3.3125
X2.9875Y-1.8125
X3.175Y-1.0625
X3.2Y-2.5625
X3.3875Y-1.8125
X3.55Y-2.5625
X3.55Y-3.5
X3.575Y-1.0625
X3.6437Y-3.5
X3.7375Y-1.8125
X3.925Y-1.0625
X3.95Y-2.5625
X3.95Y-3.5
X4.0438Y-3.5
X4.1375Y-1.8125
X4.2062Y-3.5
X4.3Y-2.5625
X4.3Y-3.5
X4.325Y-1.0625
X4.4875Y-1.8125
X4.6063Y-3.5
X4.675Y-1.0625
X4.7Y-2.5625
X4.7Y-3.5
X4.8875Y-1.8125
X5.05Y-2.5625
X5.05Y-3.5
X5.075Y-1.0625
X5.2375Y-1.8125
X5.2375Y-3.5
X5.425Y-1.0625
X5.425Y-1.8125
X5.425Y-2.5625
X5.425Y-3.5
X5.45Y-2.5625
X5.45Y-3.5
X5.6125Y-3.5
X5.6375Y-1.8125
X5.6375Y-3.5
X5.7062Y-3.5
X5.8Y-2.5625
X5.8Y-3.5
X5.825Y-1.0625
X5.825Y-1.8125
X5.825Y-2.5625
X5.825Y-3.5
X5.9875Y-1.8125
X6.0125Y-3.5
X6.1063Y-3.5
X6.175Y-1.0625
X6.175Y-3.5
X6.2Y-2.5625
X6.2Y-3.5
X6.3625Y-1.8125
X6.3625Y-3.5
X6.3875Y-1.8125
X6.55Y-2.5625
X6.55Y-3.5
X6.575Y-1.0625
X6.575Y-3.5
X6.7375Y-1.8125
X6.7625Y-1.8125
X6.7625Y-3.5
X6.925Y-1.0625
X6.95Y-2.5625
X6.95Y-3.5
X7.1125Y-1.8125
X7.1375Y-1.8125
X7.3Y-2.5625
X7.3Y-3.5
X7.325Y-1.0625
X7.3937Y-3.5
X7.4875Y-1.8125
X7.5125Y-1.8125
X7.675Y-1.0625
X7.7Y-2.5625
X7.7Y-3.5
X7.7938Y-3.5
X7.8625Y-1.8125
X7.8875Y-1.8125
X7.9562Y-3.5
X8.05Y-2.5625
X8.05Y-3.5
X8.075Y-1.0625
X8.2375Y-1.8125
X8.2625Y-1.8125
X8.3562Y-3.5
X8.425Y-1.0625
X8.45Y-2.5625
X8.45Y-3.5
X8.6125Y-1.8125
X8.6375Y-1.8125
X8.8Y-2.5625
X8.825Y-1.0625
X8.9875Y-1.8125
X9.0125Y-1.8125
X9.175Y-1.0625
X9.175Y-3.3125
X9.2Y-2.5625
X9.3625Y-1.8125
X9.3875Y-1.8125
X9.55Y-1.0625
X9.55Y-2.5625
X9.575Y-1.0625
X9.575Y-3.3125
X9.7625Y-1.8125
X9.925Y-1.0625
X9.925Y-1.8125
X9.925Y-2.5625
X9.95Y-1.0625
X9.95Y-2.5625
X10.1125Y-1.8125
X10.3Y-2.5625
X10.3Y-3.3125
X10.325Y-1.0625
X10.325Y-1.8125
X10.325Y-2.5625
X10.5125Y-1.8125
X10.7Y-2.5625
X10.7Y-3.3125
T2
X3.75Y-3.775
X3.75Y-3.775
X3.75Y-3.775
X3.9375Y-3.775
X4.5Y-3.775
X4.5Y-3.775
X4.6875Y-3.775
X4.875Y-3.775
X5.1562Y-2.2875
X5.25Y-3.775
X5.8125Y-3.775
X6.0Y-3.775
X6.0Y-3.775
X6.0938Y-2.2875
X6.1875Y-3.775
X6.75Y-3.775
X7.125Y-3.775
X7.3125Y-3.775
X7.5Y-3.775
X7.5Y-3.775
X8.0625Y-3.775
X8.25Y-3.775
X8.25Y-3.775
X8.25Y-3.775
X9.2812Y-0.7875
X9.6562Y-2.2875
X10.2188Y-0.7875
X10.5938Y-2.2875
T3
X1.5Y-2.5625
X1.5Y-3.3125
X1.6875Y-1.8125
X1.875Y-1.0625
X2.25Y-2.5625
X2.4375Y-1.8125
X2.625Y-1.0625
X2.625Y-3.3125
X3.0Y-2.5625
X3.1875Y-1.8125
X3.375Y-1.0625
X3.75Y-2.5625
X3.75Y-3.175
X3.75Y-3.175
X3.75Y-3.175
X3.75Y-3.5
X3.8438Y-3.5
X3.9375Y-1.8125
X3.9375Y-3.175
X4.125Y-1.0625
X4.4062Y-3.5
X4.5Y-2.5625
X4.5Y-3.175
X4.5Y-3.175
X4.5Y-3.5
X4.6875Y-1.8125
X4.6875Y-3.175
X4.875Y-1.0625
X4.875Y-3.175
X5.1562Y-2.8875
X5.25Y-2.5625
X5.25Y-3.175
X5.25Y-3.5
X5.4375Y-1.8125
X5.4375Y-3.5
X5.625Y-1.0625
X5.625Y-1.8125
X5.625Y-2.5625
X5.625Y-3.5
X5.8125Y-3.175
X5.8125Y-3.5
X5.9062Y-3.5
X6.0Y-2.5625
X6.0Y-3.175
X6.0Y-3.175
X6.0Y-3.5
X6.0938Y-2.8875
X6.1875Y-1.8125
X6.1875Y-3.175
X6.375Y-1.0625
X6.375Y-3.5
X6.5625Y-1.8125
X6.5625Y-3.5
X6.75Y-2.5625
X6.75Y-3.175
X6.75Y-3.5
X6.9375Y-1.8125
X7.125Y-1.0625
X7.125Y-3.175
X7.3125Y-1.8125
X7.3125Y-3.175
X7.5Y-2.5625
X7.5Y-3.175
X7.5Y-3.175
X7.5Y-3.5
X7.5938Y-3.5
X7.6875Y-1.8125
X7.875Y-1.0625
X8.0625Y-1.8125
X8.0625Y-3.175
X8.1562Y-3.5
X8.25Y-2.5625
X8.25Y-3.175
X8.25Y-3.175
X8.25Y-3.175
X8.25Y-3.5
X8.4375Y-1.8125
X8.625Y-1.0625
X8.8125Y-1.8125
X9.0Y-2.5625
X9.1875Y-1.8125
X9.2812Y-1.3875
X9.375Y-1.0625
X9.375Y-3.3125
X9.5625Y-1.8125
X9.6562Y-2.8875
X9.75Y-1.0625
X9.75Y-2.5625
X10.125Y-1.0625
X10.125Y-1.8125
X10.125Y-2.5625
X10.2188Y-1.3875
X10.3125Y-1.8125
X10.5Y-2.5625
X10.5Y-3.3125
X10.5938Y-2.8875
T0
M30
