%TF.GenerationSoftware,KiCad,Pcbnew,(7.0.0)*%
%TF.CreationDate,2023-09-10T22:45:04+02:00*%
%TF.ProjectId,Wakizashi,57616b69-7a61-4736-9869-2e6b69636164,rev?*%
%TF.SameCoordinates,Original*%
%TF.FileFunction,Profile,NP*%
%FSLAX46Y46*%
G04 Gerber Fmt 4.6, Leading zero omitted, Abs format (unit mm)*
G04 Created by KiCad (PCBNEW (7.0.0)) date 2023-09-10 22:45:04*
%MOMM*%
%LPD*%
G01*
G04 APERTURE LIST*
%TA.AperFunction,Profile*%
%ADD10C,0.100000*%
%TD*%
G04 APERTURE END LIST*
D10*
X272256250Y-55562500D02*
X275431250Y-55562500D01*
X29368750Y-55562500D02*
X32543750Y-55562500D01*
X24606250Y-74612500D02*
X27781250Y-74612500D01*
X37306250Y-36512500D02*
G75*
G03*
X38100000Y-35718800I-50J793800D01*
G01*
X280987500Y-75406250D02*
G75*
G03*
X280193750Y-74612500I-793800J-50D01*
G01*
X34131250Y-36512600D02*
G75*
G03*
X33337500Y-37306300I50J-793800D01*
G01*
X38893750Y-17462550D02*
X265906250Y-17462500D01*
X271462500Y-37306250D02*
X271462500Y-54768750D01*
X277018750Y-74612500D02*
X280193750Y-74612500D01*
X280193750Y-93662500D02*
G75*
G03*
X280987500Y-92868750I-50J793800D01*
G01*
X27781250Y-74612500D02*
G75*
G03*
X28575000Y-73818750I-50J793800D01*
G01*
X33337500Y-37306250D02*
X33337500Y-54768750D01*
X280987500Y-75406250D02*
X280987500Y-92868750D01*
X219868750Y-93662500D02*
X280193750Y-93662500D01*
X28575000Y-56356250D02*
X28575000Y-73818750D01*
X29368750Y-55562500D02*
G75*
G03*
X28575000Y-56356250I50J-793800D01*
G01*
X34131250Y-36512550D02*
X37306250Y-36512550D01*
X271462500Y-37306250D02*
G75*
G03*
X270668750Y-36512500I-793800J-50D01*
G01*
X218281250Y-98425000D02*
G75*
G03*
X219075000Y-97631250I-50J793800D01*
G01*
X266700000Y-18256250D02*
G75*
G03*
X265906250Y-17462500I-793800J-50D01*
G01*
X85725000Y-97631250D02*
X85725000Y-94456250D01*
X276225000Y-56356250D02*
X276225000Y-73818750D01*
X38893750Y-17462600D02*
G75*
G03*
X38100000Y-18256300I50J-793800D01*
G01*
X24606250Y-74612500D02*
G75*
G03*
X23812500Y-75406250I50J-793800D01*
G01*
X84931250Y-93662500D02*
X24606250Y-93662500D01*
X23812500Y-92868750D02*
G75*
G03*
X24606250Y-93662500I793800J50D01*
G01*
X38100000Y-18256300D02*
X38100000Y-35718800D01*
X85725000Y-97631250D02*
G75*
G03*
X86518750Y-98425000I793800J50D01*
G01*
X271462500Y-54768750D02*
G75*
G03*
X272256250Y-55562500I793800J50D01*
G01*
X219868750Y-93662500D02*
G75*
G03*
X219075000Y-94456250I50J-793800D01*
G01*
X266700000Y-18256250D02*
X266700000Y-35718750D01*
X219075000Y-94456250D02*
X219075000Y-97631250D01*
X276225000Y-73818750D02*
G75*
G03*
X277018750Y-74612500I793800J50D01*
G01*
X266700000Y-35718750D02*
G75*
G03*
X267493750Y-36512500I793800J50D01*
G01*
X32543750Y-55562500D02*
G75*
G03*
X33337500Y-54768750I-50J793800D01*
G01*
X267493750Y-36512500D02*
X270668750Y-36512500D01*
X85725000Y-94456250D02*
G75*
G03*
X84931250Y-93662500I-793800J-50D01*
G01*
X23812500Y-75406250D02*
X23812500Y-92868750D01*
X276225000Y-56356250D02*
G75*
G03*
X275431250Y-55562500I-793800J-50D01*
G01*
X218281250Y-98425000D02*
X86518750Y-98425000D01*
M02*
