%TF.GenerationSoftware,KiCad,Pcbnew,(7.0.0)*%
%TF.CreationDate,2023-09-12T13:05:00+02:00*%
%TF.ProjectId,Wakizashi,57616b69-7a61-4736-9869-2e6b69636164,rev?*%
%TF.SameCoordinates,Original*%
%TF.FileFunction,Paste,Bot*%
%TF.FilePolarity,Positive*%
%FSLAX46Y46*%
G04 Gerber Fmt 4.6, Leading zero omitted, Abs format (unit mm)*
G04 Created by KiCad (PCBNEW (7.0.0)) date 2023-09-12 13:05:00*
%MOMM*%
%LPD*%
G01*
G04 APERTURE LIST*
%ADD10R,1.200000X1.600000*%
%ADD11R,1.600000X1.200000*%
G04 APERTURE END LIST*
D10*
%TO.C,D37*%
X274637499Y-66487499D03*
X274637499Y-63687499D03*
%TD*%
%TO.C,D1*%
X74612499Y-28387499D03*
X74612499Y-25587499D03*
%TD*%
%TO.C,D39*%
X74612499Y-85537499D03*
X74612499Y-82737499D03*
%TD*%
%TO.C,D44*%
X274637499Y-85537499D03*
X274637499Y-82737499D03*
%TD*%
%TO.C,D10*%
X227012499Y-28387499D03*
X227012499Y-25587499D03*
%TD*%
%TO.C,D2*%
X77787499Y-28387499D03*
X77787499Y-25587499D03*
%TD*%
%TO.C,D3*%
X93662499Y-28387499D03*
X93662499Y-25587499D03*
%TD*%
%TO.C,D27*%
X84137499Y-66487499D03*
X84137499Y-63687499D03*
%TD*%
%TO.C,D7*%
X169862499Y-28387499D03*
X169862499Y-25587499D03*
%TD*%
%TO.C,D16*%
X107949999Y-47437499D03*
X107949999Y-44637499D03*
%TD*%
%TO.C,D17*%
X126999999Y-47437499D03*
X126999999Y-44637499D03*
%TD*%
D11*
%TO.C,D19*%
X164912499Y-50799999D03*
X162112499Y-50799999D03*
%TD*%
%TO.C,D30*%
X141099999Y-69849999D03*
X138299999Y-69849999D03*
%TD*%
%TO.C,D40*%
X108556249Y-77787499D03*
X105756249Y-77787499D03*
%TD*%
D10*
%TO.C,D38*%
X46037499Y-85537499D03*
X46037499Y-82737499D03*
%TD*%
%TO.C,D14*%
X69849999Y-47437499D03*
X69849999Y-44637499D03*
%TD*%
%TO.C,D32*%
X179387499Y-66487499D03*
X179387499Y-63687499D03*
%TD*%
D11*
%TO.C,D24*%
X265112499Y-50799999D03*
X262312499Y-50799999D03*
%TD*%
D10*
%TO.C,D4*%
X112712499Y-28387499D03*
X112712499Y-25587499D03*
%TD*%
D11*
%TO.C,D20*%
X183962499Y-50799999D03*
X181162499Y-50799999D03*
%TD*%
D10*
%TO.C,D35*%
X236537499Y-66487499D03*
X236537499Y-63687499D03*
%TD*%
D11*
%TO.C,D23*%
X241112499Y-50799999D03*
X238312499Y-50799999D03*
%TD*%
%TO.C,D42*%
X199043749Y-77787499D03*
X196243749Y-77787499D03*
%TD*%
D10*
%TO.C,D33*%
X198437499Y-66487499D03*
X198437499Y-63687499D03*
%TD*%
%TO.C,D26*%
X65087499Y-66487499D03*
X65087499Y-63687499D03*
%TD*%
%TO.C,D12*%
X265112499Y-28387499D03*
X265112499Y-25587499D03*
%TD*%
D11*
%TO.C,D22*%
X222062499Y-50799999D03*
X219262499Y-50799999D03*
%TD*%
D10*
%TO.C,D18*%
X150018749Y-47437499D03*
X150018749Y-44637499D03*
%TD*%
%TO.C,D8*%
X188912499Y-28387499D03*
X188912499Y-25587499D03*
%TD*%
%TO.C,D43*%
X246062499Y-85537499D03*
X246062499Y-82737499D03*
%TD*%
%TO.C,D31*%
X160337499Y-66487499D03*
X160337499Y-63687499D03*
%TD*%
%TO.C,D28*%
X103187499Y-66487499D03*
X103187499Y-63687499D03*
%TD*%
D11*
%TO.C,D41*%
X141706249Y-77787499D03*
X138906249Y-77787499D03*
%TD*%
D10*
%TO.C,D34*%
X217487499Y-66487499D03*
X217487499Y-63687499D03*
%TD*%
%TO.C,D13*%
X50799999Y-47437499D03*
X50799999Y-44637499D03*
%TD*%
%TO.C,D29*%
X122237499Y-66487499D03*
X122237499Y-63687499D03*
%TD*%
D11*
%TO.C,D21*%
X203012499Y-50799999D03*
X200212499Y-50799999D03*
%TD*%
D10*
%TO.C,D15*%
X88899999Y-47437499D03*
X88899999Y-44637499D03*
%TD*%
%TO.C,D25*%
X46037499Y-66487499D03*
X46037499Y-63687499D03*
%TD*%
D11*
%TO.C,D36*%
X255399999Y-69849999D03*
X252599999Y-69849999D03*
%TD*%
D10*
%TO.C,D6*%
X150812499Y-28387499D03*
X150812499Y-25587499D03*
%TD*%
%TO.C,D5*%
X131762499Y-28387499D03*
X131762499Y-25587499D03*
%TD*%
D11*
%TO.C,D11*%
X246249999Y-31749999D03*
X249049999Y-31749999D03*
%TD*%
D10*
%TO.C,D9*%
X207962499Y-28387499D03*
X207962499Y-25587499D03*
%TD*%
M02*
